NotoSans-ExtraBold.ufo
<glyph name="quotedbl" format="2">
  <advance width="1073"/>
  <unicode hex="0022"/>
  <outline>
    <contour>
      <point x="477" y="1462" type="line"/>
      <point x="121" y="1462" type="line"/>
      <point x="162" y="934" type="line"/>
      <point x="436" y="934" type="line"/>
    </contour>
    <contour>
      <point x="952" y="1462" type="line"/>
      <point x="596" y="1462" type="line"/>
      <point x="637" y="934" type="line"/>
      <point x="911" y="934" type="line"/>
    </contour>
  </outline>
</glyph>
<glyph name="parenright" format="2">
  <advance width="735"/>
  <unicode hex="0029"/>
  <outline>
    <contour>
      <point x="662" y="582" type="curve" smooth="yes"/>
      <point x="662" y="915"/>
      <point x="588" y="1255"/>
      <point x="381" y="1503" type="curve"/>
      <point x="55" y="1503" type="line"/>
      <point x="240" y="1247"/>
      <point x="317" y="907"/>
      <point x="317" y="584" type="curve" smooth="yes"/>
      <point x="317" y="266"/>
      <point x="240" y="-74"/>
      <point x="57" y="-324" type="curve"/>
      <point x="381" y="-324" type="line"/>
      <point x="588" y="-84"/>
      <point x="662" y="252"/>
    </contour>
  </outline>
</glyph>
<glyph name="four" format="2">
  <advance width="1200"/>
  <unicode hex="0034"/>
  <outline>
    <contour>
      <point x="1169" y="283" type="line"/>
      <point x="1169" y="578" type="line"/>
      <point x="1008" y="578" type="line"/>
      <point x="1008" y="1462" type="line"/>
      <point x="643" y="1462" type="line"/>
      <point x="35" y="573" type="line"/>
      <point x="35" y="283" type="line"/>
      <point x="618" y="283" type="line"/>
      <point x="618" y="0" type="line"/>
      <point x="1008" y="0" type="line"/>
      <point x="1008" y="283" type="line"/>
    </contour>
    <contour>
      <point x="618" y="578" type="line"/>
      <point x="377" y="578" type="line"/>
      <point x="539" y="819" type="line" smooth="yes"/>
      <point x="573" y="872"/>
      <point x="590" y="903"/>
      <point x="616" y="963" type="curve"/>
      <point x="627" y="963" type="line"/>
      <point x="625" y="958"/>
      <point x="618" y="809"/>
      <point x="618" y="748" type="curve" smooth="yes"/>
    </contour>
  </outline>
</glyph>
<glyph name="five" format="2">
  <advance width="1200"/>
  <unicode hex="0035"/>
  <outline>
    <contour>
      <point x="664" y="958" type="curve" smooth="yes"/>
      <point x="567" y="958"/>
      <point x="535" y="948"/>
      <point x="492" y="940" type="curve"/>
      <point x="510" y="1133" type="line"/>
      <point x="1008" y="1133" type="line"/>
      <point x="1008" y="1462" type="line"/>
      <point x="174" y="1462" type="line"/>
      <point x="119" y="690" type="line"/>
      <point x="264" y="618" type="line"/>
      <point x="317" y="635"/>
      <point x="391" y="653"/>
      <point x="465" y="653" type="curve" smooth="yes"/>
      <point x="627" y="653"/>
      <point x="707" y="586"/>
      <point x="707" y="475" type="curve" smooth="yes"/>
      <point x="707" y="354"/>
      <point x="625" y="291"/>
      <point x="479" y="291" type="curve" smooth="yes"/>
      <point x="358" y="291"/>
      <point x="197" y="336"/>
      <point x="94" y="383" type="curve"/>
      <point x="94" y="59" type="line"/>
      <point x="203" y="6"/>
      <point x="342" y="-20"/>
      <point x="512" y="-20" type="curve" smooth="yes"/>
      <point x="911" y="-20"/>
      <point x="1106" y="160"/>
      <point x="1106" y="487" type="curve" smooth="yes"/>
      <point x="1106" y="788"/>
      <point x="907" y="958"/>
    </contour>
  </outline>
</glyph>
<glyph name="six" format="2">
  <advance width="1200"/>
  <unicode hex="0036"/>
  <outline>
    <contour>
      <point x="70" y="618" type="curve" smooth="yes"/>
      <point x="70" y="180"/>
      <point x="307" y="-20"/>
      <point x="621" y="-20" type="curve" smooth="yes"/>
      <point x="940" y="-20"/>
      <point x="1137" y="172"/>
      <point x="1137" y="500" type="curve" smooth="yes"/>
      <point x="1137" y="803"/>
      <point x="983" y="975"/>
      <point x="727" y="975" type="curve" smooth="yes"/>
      <point x="571" y="975"/>
      <point x="489" y="901"/>
      <point x="438" y="805" type="curve"/>
      <point x="426" y="805" type="line"/>
      <point x="438" y="1036"/>
      <point x="530" y="1176"/>
      <point x="827" y="1176" type="curve" smooth="yes"/>
      <point x="926" y="1176"/>
      <point x="989" y="1167"/>
      <point x="1044" y="1157" type="curve"/>
      <point x="1044" y="1466" type="line"/>
      <point x="989" y="1475"/>
      <point x="893" y="1483"/>
      <point x="836" y="1483" type="curve" smooth="yes"/>
      <point x="188" y="1483"/>
      <point x="70" y="1038"/>
    </contour>
    <contour>
      <point x="612" y="293" type="curve" smooth="yes"/>
      <point x="508" y="293"/>
      <point x="463" y="408"/>
      <point x="463" y="512" type="curve" smooth="yes"/>
      <point x="463" y="590"/>
      <point x="518" y="670"/>
      <point x="616" y="670" type="curve" smooth="yes"/>
      <point x="713" y="670"/>
      <point x="754" y="602"/>
      <point x="754" y="492" type="curve" smooth="yes"/>
      <point x="754" y="354"/>
      <point x="696" y="293"/>
    </contour>
  </outline>
</glyph>
<glyph name="question" format="2">
  <advance width="1034"/>
  <unicode hex="003F"/>
  <outline>
    <contour>
      <point x="295" y="516" type="line"/>
      <point x="602" y="516" type="line"/>
      <point x="602" y="567" type="line" smooth="yes"/>
      <point x="602" y="631"/>
      <point x="639" y="664"/>
      <point x="760" y="741" type="curve" smooth="yes"/>
      <point x="930" y="850"/>
      <point x="997" y="961"/>
      <point x="997" y="1118" type="curve" smooth="yes"/>
      <point x="997" y="1337"/>
      <point x="823" y="1483"/>
      <point x="520" y="1483" type="curve" smooth="yes"/>
      <point x="319" y="1483"/>
      <point x="150" y="1427"/>
      <point x="0" y="1341" type="curve"/>
      <point x="139" y="1069" type="line"/>
      <point x="272" y="1139"/>
      <point x="391" y="1176"/>
      <point x="492" y="1176" type="curve" smooth="yes"/>
      <point x="573" y="1176"/>
      <point x="629" y="1141"/>
      <point x="629" y="1085" type="curve" smooth="yes"/>
      <point x="629" y="1030"/>
      <point x="612" y="985"/>
      <point x="477" y="899" type="curve" smooth="yes"/>
      <point x="334" y="809"/>
      <point x="295" y="725"/>
      <point x="295" y="602" type="curve" smooth="yes"/>
    </contour>
    <contour>
      <point x="252" y="166" type="curve" smooth="yes"/>
      <point x="252" y="31"/>
      <point x="346" y="-25"/>
      <point x="463" y="-25" type="curve" smooth="yes"/>
      <point x="575" y="-25"/>
      <point x="670" y="31"/>
      <point x="670" y="166" type="curve" smooth="yes"/>
      <point x="670" y="307"/>
      <point x="575" y="358"/>
      <point x="463" y="358" type="curve" smooth="yes"/>
      <point x="346" y="358"/>
      <point x="252" y="307"/>
    </contour>
  </outline>
</glyph>
<glyph name="H" format="2">
  <advance width="1569"/>
  <unicode hex="0048"/>
  <anchor x="784" y="0" name="bottom"/>
  <anchor x="784" y="731" name="center"/>
  <anchor x="784" y="1462" name="top"/>
  <anchor x="1528" y="1462" name="topright"/>
  <outline>
    <contour>
      <point x="1411" y="0" type="line"/>
      <point x="1411" y="1462" type="line"/>
      <point x="1014" y="1462" type="line"/>
      <point x="1014" y="920" type="line"/>
      <point x="555" y="920" type="line"/>
      <point x="555" y="1462" type="line"/>
      <point x="158" y="1462" type="line"/>
      <point x="158" y="0" type="line"/>
      <point x="555" y="0" type="line"/>
      <point x="555" y="596" type="line"/>
      <point x="1014" y="596" type="line"/>
      <point x="1014" y="0" type="line"/>
    </contour>
  </outline>
</glyph>
<glyph name="J" format="2">
  <advance width="721"/>
  <unicode hex="004A"/>
  <anchor x="43" y="-418" name="bottom"/>
  <anchor x="360" y="1462" name="top"/>
  <anchor x="680" y="1462" name="topright"/>
  <outline>
    <contour>
      <point x="43" y="-459" type="curve" smooth="yes"/>
      <point x="350" y="-459"/>
      <point x="563" y="-297"/>
      <point x="563" y="143" type="curve" smooth="yes"/>
      <point x="563" y="1462" type="line"/>
      <point x="166" y="1462" type="line"/>
      <point x="166" y="109" type="line" smooth="yes"/>
      <point x="166" y="-66"/>
      <point x="125" y="-152"/>
      <point x="-16" y="-152" type="curve" smooth="yes"/>
      <point x="-72" y="-152"/>
      <point x="-119" y="-139"/>
      <point x="-162" y="-131" type="curve"/>
      <point x="-162" y="-438" type="line"/>
      <point x="-113" y="-449"/>
      <point x="-47" y="-459"/>
    </contour>
  </outline>
</glyph>
<glyph name="Z" format="2">
  <advance width="1251"/>
  <unicode hex="005A"/>
  <anchor x="647" y="0" name="bottom"/>
  <anchor x="645" y="1462" name="top"/>
  <anchor x="1210" y="1462" name="topright"/>
  <outline>
    <contour>
      <point x="1200" y="0" type="line"/>
      <point x="1200" y="319" type="line"/>
      <point x="551" y="319" type="line"/>
      <point x="1184" y="1219" type="line"/>
      <point x="1184" y="1462" type="line"/>
      <point x="76" y="1462" type="line"/>
      <point x="76" y="1143" type="line"/>
      <point x="694" y="1143" type="line"/>
      <point x="61" y="244" type="line"/>
      <point x="61" y="0" type="line"/>
    </contour>
  </outline>
</glyph>
<glyph name="bracketleft" format="2">
  <advance width="664"/>
  <unicode hex="005B"/>
  <outline>
    <contour>
      <point x="616" y="-344" type="line"/>
      <point x="616" y="-90" type="line"/>
      <point x="434" y="-90" type="line"/>
      <point x="434" y="1249" type="line"/>
      <point x="616" y="1249" type="line"/>
      <point x="616" y="1503" type="line"/>
      <point x="117" y="1503" type="line"/>
      <point x="117" y="-344" type="line"/>
    </contour>
  </outline>
</glyph>
<glyph name="grave" format="2">
  <advance width="856"/>
  <unicode hex="0060"/>
  <outline>
    <contour>
      <point x="512" y="1569" type="curve"/>
      <point x="82" y="1569" type="line"/>
      <point x="82" y="1548" type="line"/>
      <point x="180" y="1470"/>
      <point x="403" y="1311"/>
      <point x="514" y="1241" type="curve"/>
      <point x="774" y="1241" type="line"/>
      <point x="774" y="1270" type="line"/>
      <point x="707" y="1346"/>
      <point x="582" y="1477"/>
    </contour>
  </outline>
</glyph>
<glyph name="d" format="2">
  <advance width="1317"/>
  <unicode hex="0064"/>
  <anchor x="643" y="0" name="bottom"/>
  <anchor x="659" y="567" name="center"/>
  <anchor x="479" y="1556" name="top"/>
  <anchor x="1235" y="1556" name="topright"/>
  <outline>
    <contour>
      <point x="487" y="-20" type="curve" smooth="yes"/>
      <point x="643" y="-20"/>
      <point x="733" y="53"/>
      <point x="788" y="143" type="curve"/>
      <point x="803" y="143" type="line"/>
      <point x="887" y="0" type="line"/>
      <point x="1182" y="0" type="line"/>
      <point x="1182" y="1556" type="line"/>
      <point x="788" y="1556" type="line"/>
      <point x="788" y="1253" type="line" smooth="yes"/>
      <point x="788" y="1157"/>
      <point x="797" y="1044"/>
      <point x="807" y="987" type="curve"/>
      <point x="799" y="987" type="line"/>
      <point x="739" y="1081"/>
      <point x="653" y="1153"/>
      <point x="502" y="1153" type="curve" smooth="yes"/>
      <point x="256" y="1153"/>
      <point x="86" y="952"/>
      <point x="86" y="565" type="curve" smooth="yes"/>
      <point x="86" y="182"/>
      <point x="254" y="-20"/>
    </contour>
    <contour>
      <point x="647" y="289" type="curve" smooth="yes"/>
      <point x="549" y="289"/>
      <point x="481" y="371"/>
      <point x="481" y="559" type="curve" smooth="yes"/>
      <point x="481" y="750"/>
      <point x="549" y="838"/>
      <point x="643" y="838" type="curve" smooth="yes"/>
      <point x="780" y="838"/>
      <point x="821" y="739"/>
      <point x="821" y="561" type="curve" smooth="yes"/>
      <point x="821" y="530" type="line" smooth="yes"/>
      <point x="817" y="367"/>
      <point x="772" y="289"/>
    </contour>
  </outline>
</glyph>
<glyph name="k" format="2">
  <advance width="1350"/>
  <unicode hex="006B"/>
  <anchor x="676" y="0" name="bottom"/>
  <anchor x="334" y="1556" name="top"/>
  <anchor x="1350" y="1556" name="topright"/>
  <outline>
    <contour>
      <point x="528" y="1556" type="line"/>
      <point x="135" y="1556" type="line"/>
      <point x="135" y="0" type="line"/>
      <point x="528" y="0" type="line"/>
      <point x="528" y="309" type="line"/>
      <point x="655" y="406" type="line"/>
      <point x="903" y="0" type="line"/>
      <point x="1350" y="0" type="line"/>
      <point x="932" y="651" type="line"/>
      <point x="1325" y="1133" type="line"/>
      <point x="889" y="1133" type="line"/>
      <point x="635" y="813" type="line" smooth="yes"/>
      <point x="598" y="766"/>
      <point x="545" y="684"/>
      <point x="514" y="637" type="curve"/>
      <point x="506" y="637" type="line"/>
      <point x="520" y="729"/>
      <point x="528" y="852"/>
      <point x="528" y="944" type="curve" smooth="yes"/>
    </contour>
  </outline>
</glyph>
<glyph name="m" format="2">
  <advance width="2048"/>
  <unicode hex="006D"/>
  <anchor x="1032" y="0" name="bottom"/>
  <anchor x="1065" y="1133" name="top"/>
  <anchor x="1978" y="1133" name="topright"/>
  <outline>
    <contour>
      <point x="1518" y="1153" type="curve" smooth="yes"/>
      <point x="1376" y="1153"/>
      <point x="1260" y="1096"/>
      <point x="1188" y="995" type="curve"/>
      <point x="1176" y="995" type="line"/>
      <point x="1108" y="1094"/>
      <point x="1004" y="1153"/>
      <point x="838" y="1153" type="curve" smooth="yes"/>
      <point x="670" y="1153"/>
      <point x="557" y="1085"/>
      <point x="498" y="993" type="curve"/>
      <point x="487" y="993" type="line"/>
      <point x="430" y="1133" type="line"/>
      <point x="135" y="1133" type="line"/>
      <point x="135" y="0" type="line"/>
      <point x="526" y="0" type="line"/>
      <point x="526" y="496" type="line" smooth="yes"/>
      <point x="526" y="721"/>
      <point x="563" y="846"/>
      <point x="698" y="846" type="curve" smooth="yes"/>
      <point x="786" y="846"/>
      <point x="829" y="780"/>
      <point x="829" y="616" type="curve" smooth="yes"/>
      <point x="829" y="0" type="line"/>
      <point x="1221" y="0" type="line"/>
      <point x="1221" y="528" type="line" smooth="yes"/>
      <point x="1221" y="731"/>
      <point x="1262" y="846"/>
      <point x="1389" y="846" type="curve" smooth="yes"/>
      <point x="1479" y="846"/>
      <point x="1526" y="788"/>
      <point x="1526" y="616" type="curve" smooth="yes"/>
      <point x="1526" y="0" type="line"/>
      <point x="1917" y="0" type="line"/>
      <point x="1917" y="737" type="line" smooth="yes"/>
      <point x="1917" y="1028"/>
      <point x="1776" y="1153"/>
    </contour>
  </outline>
</glyph>
<glyph name="q" format="2">
  <advance width="1317"/>
  <unicode hex="0071"/>
  <anchor x="985" y="-492" name="bottom"/>
  <anchor x="659" y="1133" name="top"/>
  <anchor x="1241" y="1133" name="topright"/>
  <outline>
    <contour>
      <point x="791" y="-492" type="line"/>
      <point x="1182" y="-492" type="line"/>
      <point x="1182" y="1133" type="line"/>
      <point x="844" y="1133" type="line"/>
      <point x="815" y="993" type="line"/>
      <point x="807" y="993" type="line"/>
      <point x="748" y="1083"/>
      <point x="655" y="1153"/>
      <point x="498" y="1153" type="curve" smooth="yes"/>
      <point x="254" y="1153"/>
      <point x="86" y="948"/>
      <point x="86" y="565" type="curve" smooth="yes"/>
      <point x="86" y="182"/>
      <point x="250" y="-20"/>
      <point x="492" y="-20" type="curve" smooth="yes"/>
      <point x="647" y="-20"/>
      <point x="737" y="53"/>
      <point x="791" y="143" type="curve"/>
      <point x="803" y="143" type="line"/>
      <point x="795" y="88"/>
      <point x="791" y="33"/>
      <point x="791" y="-23" type="curve" smooth="yes"/>
    </contour>
    <contour>
      <point x="651" y="283" type="curve" smooth="yes"/>
      <point x="537" y="283"/>
      <point x="483" y="362"/>
      <point x="483" y="559" type="curve" smooth="yes"/>
      <point x="483" y="750"/>
      <point x="537" y="850"/>
      <point x="645" y="850" type="curve" smooth="yes"/>
      <point x="784" y="850"/>
      <point x="821" y="748"/>
      <point x="821" y="571" type="curve" smooth="yes"/>
      <point x="821" y="524" type="line" smooth="yes"/>
      <point x="821" y="362"/>
      <point x="778" y="283"/>
    </contour>
  </outline>
</glyph>
<glyph name="w" format="2">
  <advance width="1864"/>
  <unicode hex="0077"/>
  <anchor x="926" y="0" name="bottom"/>
  <anchor x="932" y="1133" name="top"/>
  <anchor x="1823" y="1133" name="topright"/>
  <outline>
    <contour>
      <point x="1110" y="0" type="line"/>
      <point x="1528" y="0" type="line"/>
      <point x="1839" y="1133" type="line"/>
      <point x="1462" y="1133" type="line"/>
      <point x="1362" y="698" type="line" smooth="yes"/>
      <point x="1341" y="610"/>
      <point x="1319" y="436"/>
      <point x="1311" y="326" type="curve"/>
      <point x="1305" y="326" type="line"/>
      <point x="1294" y="432"/>
      <point x="1264" y="592"/>
      <point x="1247" y="670" type="curve" smooth="yes"/>
      <point x="1151" y="1133" type="line"/>
      <point x="719" y="1133" type="line"/>
      <point x="614" y="676" type="line" smooth="yes"/>
      <point x="606" y="637"/>
      <point x="565" y="434"/>
      <point x="559" y="326" type="curve"/>
      <point x="553" y="326" type="line"/>
      <point x="547" y="434"/>
      <point x="522" y="602"/>
      <point x="502" y="698" type="curve" smooth="yes"/>
      <point x="410" y="1133" type="line"/>
      <point x="25" y="1133" type="line"/>
      <point x="334" y="0" type="line"/>
      <point x="745" y="0" type="line"/>
      <point x="860" y="481" type="line" smooth="yes"/>
      <point x="887" y="598"/>
      <point x="918" y="772"/>
      <point x="926" y="834" type="curve"/>
      <point x="932" y="834" type="line"/>
      <point x="940" y="772"/>
      <point x="967" y="598"/>
      <point x="991" y="496" type="curve" smooth="yes"/>
    </contour>
  </outline>
</glyph>
<glyph name="z" format="2">
  <advance width="1038"/>
  <unicode hex="007A"/>
  <anchor x="522" y="0" name="bottom"/>
  <anchor x="520" y="1133" name="top"/>
  <anchor x="977" y="1133" name="topright"/>
  <outline>
    <contour>
      <point x="987" y="0" type="line"/>
      <point x="987" y="299" type="line"/>
      <point x="516" y="299" type="line"/>
      <point x="965" y="891" type="line"/>
      <point x="965" y="1133" type="line"/>
      <point x="76" y="1133" type="line"/>
      <point x="76" y="834" type="line"/>
      <point x="518" y="834" type="line"/>
      <point x="49" y="223" type="line"/>
      <point x="49" y="0" type="line"/>
    </contour>
  </outline>
</glyph>
<glyph name="exclamdown" format="2">
  <advance width="594"/>
  <unicode hex="00A1"/>
  <outline>
    <contour>
      <point x="133" y="612" type="line"/>
      <point x="82" y="-334" type="line"/>
      <point x="514" y="-334" type="line"/>
      <point x="463" y="612" type="line"/>
    </contour>
    <contour>
      <point x="510" y="963" type="curve" smooth="yes"/>
      <point x="510" y="1098"/>
      <point x="414" y="1153"/>
      <point x="299" y="1153" type="curve" smooth="yes"/>
      <point x="186" y="1153"/>
      <point x="92" y="1098"/>
      <point x="92" y="963" type="curve" smooth="yes"/>
      <point x="92" y="821"/>
      <point x="186" y="770"/>
      <point x="299" y="770" type="curve" smooth="yes"/>
      <point x="414" y="770"/>
      <point x="510" y="821"/>
    </contour>
  </outline>
</glyph>
<glyph name="currency" format="2">
  <advance width="1159"/>
  <unicode hex="00A4"/>
  <outline>
    <contour>
      <point x="180" y="723" type="curve" smooth="yes"/>
      <point x="180" y="659"/>
      <point x="193" y="604"/>
      <point x="221" y="549" type="curve"/>
      <point x="98" y="430" type="line"/>
      <point x="276" y="252" type="line"/>
      <point x="395" y="367" type="line"/>
      <point x="449" y="340"/>
      <point x="508" y="330"/>
      <point x="571" y="330" type="curve" smooth="yes"/>
      <point x="635" y="330"/>
      <point x="696" y="346"/>
      <point x="748" y="369" type="curve"/>
      <point x="868" y="250" type="line"/>
      <point x="1047" y="428" type="line"/>
      <point x="926" y="547" type="line"/>
      <point x="954" y="602"/>
      <point x="967" y="657"/>
      <point x="967" y="723" type="curve" smooth="yes"/>
      <point x="967" y="786"/>
      <point x="952" y="852"/>
      <point x="926" y="901" type="curve"/>
      <point x="1053" y="1026" type="line"/>
      <point x="868" y="1200" type="line"/>
      <point x="748" y="1073" type="line"/>
      <point x="690" y="1104"/>
      <point x="635" y="1118"/>
      <point x="571" y="1118" type="curve" smooth="yes"/>
      <point x="518" y="1118"/>
      <point x="451" y="1102"/>
      <point x="399" y="1077" type="curve"/>
      <point x="276" y="1200" type="line"/>
      <point x="96" y="1018" type="line"/>
      <point x="221" y="899" type="line"/>
      <point x="197" y="848"/>
      <point x="180" y="786"/>
    </contour>
    <contour>
      <point x="436" y="723" type="curve" smooth="yes"/>
      <point x="436" y="801"/>
      <point x="498" y="860"/>
      <point x="571" y="860" type="curve" smooth="yes"/>
      <point x="649" y="860"/>
      <point x="713" y="801"/>
      <point x="713" y="723" type="curve" smooth="yes"/>
      <point x="713" y="647"/>
      <point x="649" y="588"/>
      <point x="571" y="588" type="curve" smooth="yes"/>
      <point x="498" y="588"/>
      <point x="436" y="647"/>
    </contour>
  </outline>
</glyph>
<glyph name="section" format="2">
  <advance width="1024"/>
  <unicode hex="00A7"/>
  <outline>
    <contour>
      <point x="106" y="803" type="curve" smooth="yes"/>
      <point x="106" y="614"/>
      <point x="244" y="532"/>
      <point x="440" y="444" type="curve" smooth="yes"/>
      <point x="584" y="381"/>
      <point x="610" y="348"/>
      <point x="610" y="293" type="curve" smooth="yes"/>
      <point x="610" y="236"/>
      <point x="575" y="197"/>
      <point x="471" y="197" type="curve" smooth="yes"/>
      <point x="379" y="197"/>
      <point x="233" y="242"/>
      <point x="117" y="305" type="curve"/>
      <point x="117" y="61" type="line"/>
      <point x="215" y="4"/>
      <point x="332" y="-25"/>
      <point x="469" y="-25" type="curve" smooth="yes"/>
      <point x="758" y="-25"/>
      <point x="905" y="117"/>
      <point x="905" y="301" type="curve" smooth="yes"/>
      <point x="905" y="408"/>
      <point x="854" y="489"/>
      <point x="780" y="545" type="curve"/>
      <point x="854" y="598"/>
      <point x="928" y="666"/>
      <point x="928" y="803" type="curve" smooth="yes"/>
      <point x="928" y="932"/>
      <point x="831" y="1038"/>
      <point x="598" y="1133" type="curve" smooth="yes"/>
      <point x="459" y="1190"/>
      <point x="424" y="1237"/>
      <point x="424" y="1282" type="curve" smooth="yes"/>
      <point x="424" y="1331"/>
      <point x="463" y="1356"/>
      <point x="532" y="1356" type="curve" smooth="yes"/>
      <point x="616" y="1356"/>
      <point x="719" y="1317"/>
      <point x="807" y="1270" type="curve"/>
      <point x="905" y="1491" type="line"/>
      <point x="803" y="1540"/>
      <point x="672" y="1577"/>
      <point x="535" y="1577" type="curve" smooth="yes"/>
      <point x="274" y="1577"/>
      <point x="129" y="1454"/>
      <point x="129" y="1282" type="curve" smooth="yes"/>
      <point x="129" y="1180"/>
      <point x="178" y="1102"/>
      <point x="270" y="1036" type="curve"/>
      <point x="190" y="987"/>
      <point x="106" y="907"/>
    </contour>
    <contour>
      <point x="397" y="834" type="curve" smooth="yes"/>
      <point x="397" y="887"/>
      <point x="426" y="920"/>
      <point x="455" y="936" type="curve"/>
      <point x="594" y="877"/>
      <point x="637" y="823"/>
      <point x="637" y="752" type="curve" smooth="yes"/>
      <point x="637" y="698"/>
      <point x="614" y="666"/>
      <point x="596" y="645" type="curve"/>
      <point x="569" y="659" type="line"/>
      <point x="449" y="723"/>
      <point x="397" y="766"/>
    </contour>
  </outline>
</glyph>
<glyph name="dieresis" format="2">
  <advance width="1233"/>
  <unicode hex="00A8"/>
  <outline>
    <contour>
      <point x="223" y="1413" type="curve"/>
      <point x="223" y="1307"/>
      <point x="297" y="1257"/>
      <point x="393" y="1257" type="curve" smooth="yes"/>
      <point x="485" y="1257"/>
      <point x="565" y="1307"/>
      <point x="565" y="1413" type="curve" smooth="yes"/>
      <point x="565" y="1522"/>
      <point x="485" y="1571"/>
      <point x="393" y="1571" type="curve" smooth="yes"/>
      <point x="297" y="1571"/>
      <point x="223" y="1522"/>
    </contour>
    <contour>
      <point x="702" y="1413" type="curve"/>
      <point x="702" y="1307"/>
      <point x="776" y="1257"/>
      <point x="874" y="1257" type="curve" smooth="yes"/>
      <point x="967" y="1257"/>
      <point x="1047" y="1307"/>
      <point x="1047" y="1413" type="curve" smooth="yes"/>
      <point x="1047" y="1522"/>
      <point x="967" y="1571"/>
      <point x="874" y="1571" type="curve" smooth="yes"/>
      <point x="776" y="1571"/>
      <point x="702" y="1522"/>
    </contour>
  </outline>
</glyph>
<glyph name="ordfeminine" format="2">
  <advance width="813"/>
  <unicode hex="00AA"/>
  <anchor x="393" y="735" name="bottom"/>
  <anchor x="393" y="1485" name="top"/>
  <outline>
    <contour>
      <point x="436" y="1479" type="curve" smooth="yes"/>
      <point x="274" y="1479"/>
      <point x="193" y="1448"/>
      <point x="92" y="1399" type="curve"/>
      <point x="168" y="1233" type="line"/>
      <point x="254" y="1272"/>
      <point x="307" y="1288"/>
      <point x="379" y="1288" type="curve" smooth="yes"/>
      <point x="446" y="1288"/>
      <point x="481" y="1266"/>
      <point x="481" y="1212" type="curve" smooth="yes"/>
      <point x="481" y="1206" type="line"/>
      <point x="393" y="1202" type="line" smooth="yes"/>
      <point x="172" y="1192"/>
      <point x="49" y="1141"/>
      <point x="49" y="967" type="curve" smooth="yes"/>
      <point x="49" y="805"/>
      <point x="152" y="729"/>
      <point x="283" y="729" type="curve" smooth="yes"/>
      <point x="403" y="729"/>
      <point x="467" y="776"/>
      <point x="526" y="868" type="curve"/>
      <point x="571" y="741" type="line"/>
      <point x="733" y="741" type="line"/>
      <point x="733" y="1190" type="line"/>
      <point x="733" y="1382"/>
      <point x="612" y="1479"/>
    </contour>
    <contour>
      <point x="481" y="1069" type="line"/>
      <point x="481" y="1047" type="line"/>
      <point x="481" y="977"/>
      <point x="444" y="911"/>
      <point x="371" y="911" type="curve" smooth="yes"/>
      <point x="326" y="911"/>
      <point x="301" y="936"/>
      <point x="301" y="979" type="curve" smooth="yes"/>
      <point x="301" y="1018"/>
      <point x="315" y="1057"/>
      <point x="397" y="1063" type="curve" smooth="yes"/>
    </contour>
  </outline>
</glyph>
<glyph name="acute" format="2">
  <advance width="856"/>
  <unicode hex="00B4"/>
  <outline>
    <contour>
      <point x="774" y="1569" type="line"/>
      <point x="346" y="1569" type="line"/>
      <point x="279" y="1477"/>
      <point x="152" y="1346"/>
      <point x="82" y="1270" type="curve"/>
      <point x="82" y="1241" type="line"/>
      <point x="342" y="1241" type="line"/>
      <point x="453" y="1311"/>
      <point x="678" y="1470"/>
      <point x="774" y="1548" type="curve"/>
    </contour>
  </outline>
</glyph>
<glyph name="AE" format="2">
  <advance width="1937"/>
  <unicode hex="00C6"/>
  <anchor x="969" y="0" name="bottom"/>
  <anchor x="1081" y="1462" name="top"/>
  <outline>
    <contour>
      <point x="1839" y="0" type="line"/>
      <point x="1839" y="322" type="line"/>
      <point x="1366" y="322" type="line"/>
      <point x="1366" y="598" type="line"/>
      <point x="1804" y="598" type="line"/>
      <point x="1804" y="915" type="line"/>
      <point x="1366" y="915" type="line"/>
      <point x="1366" y="1145" type="line"/>
      <point x="1839" y="1145" type="line"/>
      <point x="1839" y="1462" type="line"/>
      <point x="618" y="1462" type="line"/>
      <point x="-10" y="0" type="line"/>
      <point x="432" y="0" type="line"/>
      <point x="532" y="274" type="line"/>
      <point x="969" y="274" type="line"/>
      <point x="969" y="0" type="line"/>
    </contour>
    <contour>
      <point x="653" y="602" type="line"/>
      <point x="858" y="1128" type="line"/>
      <point x="969" y="1128" type="line"/>
      <point x="969" y="602" type="line"/>
    </contour>
  </outline>
</glyph>
<glyph name="Oslash" format="2">
  <advance width="1632"/>
  <unicode hex="00D8"/>
  <anchor x="817" y="0" name="bottom"/>
  <anchor x="823" y="1462" name="top"/>
  <outline>
    <contour>
      <point x="1526" y="733" type="curve" smooth="yes"/>
      <point x="1526" y="977"/>
      <point x="1466" y="1178"/>
      <point x="1331" y="1309" type="curve"/>
      <point x="1413" y="1434" type="line"/>
      <point x="1223" y="1548" type="line"/>
      <point x="1147" y="1430" type="line"/>
      <point x="1057" y="1466"/>
      <point x="946" y="1485"/>
      <point x="817" y="1485" type="curve" smooth="yes"/>
      <point x="324" y="1485"/>
      <point x="104" y="1190"/>
      <point x="104" y="735" type="curve" smooth="yes"/>
      <point x="104" y="479"/>
      <point x="170" y="274"/>
      <point x="315" y="141" type="curve"/>
      <point x="231" y="16" type="line"/>
      <point x="424" y="-109" type="line"/>
      <point x="508" y="23" type="line"/>
      <point x="596" y="-6"/>
      <point x="698" y="-20"/>
      <point x="815" y="-20" type="curve" smooth="yes"/>
      <point x="1317" y="-20"/>
      <point x="1526" y="281"/>
    </contour>
    <contour>
      <point x="1110" y="733" type="curve" smooth="yes"/>
      <point x="1110" y="469"/>
      <point x="1032" y="309"/>
      <point x="815" y="309" type="curve" smooth="yes"/>
      <point x="772" y="309"/>
      <point x="731" y="315"/>
      <point x="698" y="324" type="curve"/>
      <point x="1092" y="944" type="line"/>
      <point x="1104" y="887"/>
      <point x="1110" y="815"/>
    </contour>
    <contour>
      <point x="520" y="733" type="curve" smooth="yes"/>
      <point x="520" y="997"/>
      <point x="602" y="1161"/>
      <point x="817" y="1161" type="curve" smooth="yes"/>
      <point x="866" y="1161"/>
      <point x="913" y="1149"/>
      <point x="952" y="1133" type="curve"/>
      <point x="549" y="494" type="line"/>
      <point x="526" y="559"/>
      <point x="520" y="641"/>
    </contour>
  </outline>
</glyph>
<glyph name="eogonek" format="2">
  <advance width="1266"/>
  <unicode hex="0119"/>
  <anchor x="682" y="-492" name="bottom"/>
  <anchor x="633" y="1133" name="top"/>
  <outline>
    <contour>
      <point x="915" y="-186" type="curve" smooth="yes"/>
      <point x="915" y="-127"/>
      <point x="940" y="-78"/>
      <point x="1106" y="63" type="curve"/>
      <point x="895" y="51" type="line"/>
      <point x="713" y="-72"/>
      <point x="662" y="-168"/>
      <point x="662" y="-260" type="curve" smooth="yes"/>
      <point x="662" y="-403"/>
      <point x="782" y="-492"/>
      <point x="938" y="-492" type="curve" smooth="yes"/>
      <point x="1012" y="-492"/>
      <point x="1067" y="-479"/>
      <point x="1112" y="-465" type="curve"/>
      <point x="1112" y="-244" type="line"/>
      <point x="1083" y="-256"/>
      <point x="1040" y="-266"/>
      <point x="999" y="-266" type="curve" smooth="yes"/>
      <point x="952" y="-266"/>
      <point x="915" y="-238"/>
    </contour>
    <component base="e"/>
  </outline>
</glyph>
<glyph name="idotless" format="2">
  <advance width="666"/>
  <unicode hex="0131"/>
  <anchor x="332" y="0" name="bottom"/>
  <anchor x="334" y="1133" name="top"/>
  <outline>
    <contour>
      <point x="528" y="0" type="line"/>
      <point x="528" y="1133" type="line"/>
      <point x="137" y="1133" type="line"/>
      <point x="137" y="0" type="line"/>
    </contour>
  </outline>
</glyph>
<glyph name="kgreenlandic" format="2">
  <advance width="1350"/>
  <unicode hex="0138"/>
  <anchor x="676" y="0" name="bottom"/>
  <anchor x="676" y="1133" name="top"/>
  <outline>
    <contour>
      <point x="1331" y="1133" type="line"/>
      <point x="893" y="1133" type="line"/>
      <point x="647" y="817" type="line" smooth="yes"/>
      <point x="592" y="745"/>
      <point x="551" y="678"/>
      <point x="526" y="643" type="curve"/>
      <point x="518" y="643" type="line"/>
      <point x="522" y="694"/>
      <point x="528" y="774"/>
      <point x="528" y="887" type="curve" smooth="yes"/>
      <point x="528" y="1133" type="line"/>
      <point x="135" y="1133" type="line"/>
      <point x="135" y="0" type="line"/>
      <point x="528" y="0" type="line"/>
      <point x="528" y="301" type="line"/>
      <point x="657" y="399" type="line"/>
      <point x="909" y="0" type="line"/>
      <point x="1350" y="0" type="line"/>
      <point x="926" y="637" type="line"/>
    </contour>
  </outline>
</glyph>
<glyph name="eng" format="2">
  <advance width="1372"/>
  <unicode hex="014B"/>
  <anchor x="686" y="-492" name="bottom"/>
  <anchor x="686" y="1133" name="top"/>
  <anchor x="1303" y="1133" name="topright"/>
  <outline>
    <contour>
      <point x="829" y="-492" type="curve" smooth="yes"/>
      <point x="1133" y="-492"/>
      <point x="1241" y="-297"/>
      <point x="1241" y="-92" type="curve" smooth="yes"/>
      <point x="1241" y="737" type="line" smooth="yes"/>
      <point x="1241" y="1028"/>
      <point x="1065" y="1153"/>
      <point x="846" y="1153" type="curve" smooth="yes"/>
      <point x="711" y="1153"/>
      <point x="575" y="1108"/>
      <point x="504" y="993" type="curve"/>
      <point x="479" y="993" type="line"/>
      <point x="430" y="1133" type="line"/>
      <point x="135" y="1133" type="line"/>
      <point x="135" y="0" type="line"/>
      <point x="526" y="0" type="line"/>
      <point x="526" y="496" type="line" smooth="yes"/>
      <point x="526" y="721"/>
      <point x="565" y="846"/>
      <point x="713" y="846" type="curve" smooth="yes"/>
      <point x="799" y="846"/>
      <point x="848" y="780"/>
      <point x="848" y="655" type="curve" smooth="yes"/>
      <point x="848" y="-10" type="line" smooth="yes"/>
      <point x="848" y="-147"/>
      <point x="795" y="-180"/>
      <point x="735" y="-180" type="curve" smooth="yes"/>
      <point x="692" y="-180"/>
      <point x="664" y="-174"/>
      <point x="618" y="-162" type="curve"/>
      <point x="618" y="-467" type="line"/>
      <point x="672" y="-481"/>
      <point x="768" y="-492"/>
    </contour>
  </outline>
</glyph>
<glyph name="uni018A" format="2">
  <advance width="1829"/>
  <unicode hex="018A"/>
  <anchor x="920" y="0" name="bottom"/>
  <anchor x="920" y="1462" name="top"/>
  <outline>
    <contour>
      <point x="467" y="0" type="line"/>
      <point x="909" y="0" type="line" smooth="yes"/>
      <point x="1415" y="0"/>
      <point x="1724" y="252"/>
      <point x="1724" y="745" type="curve"/>
      <point x="1724" y="1214"/>
      <point x="1409" y="1462"/>
      <point x="954" y="1462" type="curve"/>
      <point x="426" y="1462" type="line"/>
      <point x="106" y="1462"/>
      <point x="6" y="1280"/>
      <point x="6" y="1073" type="curve"/>
      <point x="6" y="1014"/>
      <point x="23" y="971"/>
      <point x="33" y="952" type="curve"/>
      <point x="340" y="952" type="line"/>
      <point x="332" y="973"/>
      <point x="319" y="997"/>
      <point x="319" y="1044" type="curve"/>
      <point x="319" y="1092"/>
      <point x="350" y="1135"/>
      <point x="414" y="1135" type="curve"/>
      <point x="467" y="1135" type="line"/>
    </contour>
    <contour>
      <point x="868" y="330" type="line"/>
      <point x="868" y="1135" type="line"/>
      <point x="989" y="1135" type="line"/>
      <point x="1196" y="1135"/>
      <point x="1309" y="1016"/>
      <point x="1309" y="735" type="curve"/>
      <point x="1309" y="467"/>
      <point x="1196" y="330"/>
      <point x="952" y="330" type="curve"/>
    </contour>
  </outline>
</glyph>
<glyph name="uni0190" format="2">
  <advance width="1303"/>
  <unicode hex="0190"/>
  <anchor x="651" y="0" name="bottom"/>
  <anchor x="651" y="1462" name="top"/>
  <outline>
    <contour>
      <point x="678" y="1487" type="curve"/>
      <point x="319" y="1487"/>
      <point x="133" y="1325"/>
      <point x="133" y="1098" type="curve"/>
      <point x="133" y="883"/>
      <point x="287" y="791"/>
      <point x="492" y="766" type="curve"/>
      <point x="492" y="760" type="line"/>
      <point x="231" y="748"/>
      <point x="74" y="610"/>
      <point x="74" y="403" type="curve" smooth="yes"/>
      <point x="74" y="158"/>
      <point x="252" y="-25"/>
      <point x="676" y="-25" type="curve"/>
      <point x="907" y="-25"/>
      <point x="1081" y="4"/>
      <point x="1202" y="53" type="curve"/>
      <point x="1202" y="385" type="line"/>
      <point x="1083" y="324"/>
      <point x="909" y="289"/>
      <point x="776" y="289" type="curve"/>
      <point x="541" y="289"/>
      <point x="471" y="354"/>
      <point x="471" y="453" type="curve"/>
      <point x="471" y="563"/>
      <point x="629" y="606"/>
      <point x="883" y="606" type="curve"/>
      <point x="977" y="606" type="line"/>
      <point x="977" y="913" type="line"/>
      <point x="907" y="913" type="line" smooth="yes"/>
      <point x="606" y="913"/>
      <point x="520" y="971"/>
      <point x="520" y="1055" type="curve"/>
      <point x="520" y="1118"/>
      <point x="582" y="1167"/>
      <point x="727" y="1167" type="curve"/>
      <point x="866" y="1167"/>
      <point x="983" y="1118"/>
      <point x="1079" y="1059" type="curve"/>
      <point x="1241" y="1323" type="line"/>
      <point x="1087" y="1421"/>
      <point x="928" y="1487"/>
    </contour>
  </outline>
</glyph>
<glyph name="florin" format="2">
  <advance width="1137"/>
  <unicode hex="0192"/>
  <anchor x="567" y="-492" name="bottom"/>
  <anchor x="678" y="1567" name="top"/>
  <outline>
    <contour>
      <point x="725" y="1567" type="curve" smooth="yes"/>
      <point x="467" y="1567"/>
      <point x="352" y="1456"/>
      <point x="352" y="1165" type="curve" smooth="yes"/>
      <point x="352" y="1128" type="line"/>
      <point x="195" y="1032" type="line"/>
      <point x="195" y="840" type="line"/>
      <point x="344" y="840" type="line"/>
      <point x="344" y="-37" type="line" smooth="yes"/>
      <point x="344" y="-131"/>
      <point x="313" y="-180"/>
      <point x="250" y="-180" type="curve" smooth="yes"/>
      <point x="205" y="-180"/>
      <point x="180" y="-174"/>
      <point x="139" y="-162" type="curve"/>
      <point x="139" y="-463" type="line"/>
      <point x="188" y="-479"/>
      <point x="283" y="-492"/>
      <point x="354" y="-492" type="curve" smooth="yes"/>
      <point x="602" y="-492"/>
      <point x="735" y="-340"/>
      <point x="735" y="-84" type="curve" smooth="yes"/>
      <point x="735" y="840" type="line"/>
      <point x="991" y="840" type="line"/>
      <point x="991" y="1133" type="line"/>
      <point x="735" y="1133" type="line"/>
      <point x="735" y="1137" type="line" smooth="yes"/>
      <point x="735" y="1239"/>
      <point x="766" y="1280"/>
      <point x="836" y="1280" type="curve" smooth="yes"/>
      <point x="881" y="1280"/>
      <point x="928" y="1270"/>
      <point x="975" y="1255" type="curve"/>
      <point x="1051" y="1513" type="line"/>
      <point x="961" y="1544"/>
      <point x="840" y="1567"/>
    </contour>
  </outline>
</glyph>
<glyph name="uni01B2" format="2">
  <advance width="1550"/>
  <unicode hex="01B2"/>
  <anchor x="760" y="0" name="bottom"/>
  <anchor x="760" y="1462" name="top"/>
  <anchor x="1509" y="1462" name="topright"/>
  <outline>
    <contour>
      <point x="770" y="-20" type="curve" smooth="yes"/>
      <point x="1192" y="-20"/>
      <point x="1401" y="213"/>
      <point x="1401" y="582" type="curve" smooth="yes"/>
      <point x="1401" y="1159" type="line" smooth="yes"/>
      <point x="1401" y="1346"/>
      <point x="1290" y="1485"/>
      <point x="1032" y="1485" type="curve" smooth="yes"/>
      <point x="936" y="1485"/>
      <point x="844" y="1460"/>
      <point x="788" y="1430" type="curve"/>
      <point x="788" y="1120" type="line"/>
      <point x="838" y="1143"/>
      <point x="877" y="1151"/>
      <point x="918" y="1151" type="curve" smooth="yes"/>
      <point x="963" y="1151"/>
      <point x="1006" y="1130"/>
      <point x="1006" y="1067" type="curve" smooth="yes"/>
      <point x="1006" y="606" type="line" smooth="yes"/>
      <point x="1006" y="397"/>
      <point x="938" y="309"/>
      <point x="776" y="309" type="curve" smooth="yes"/>
      <point x="625" y="309"/>
      <point x="547" y="397"/>
      <point x="547" y="604" type="curve" smooth="yes"/>
      <point x="547" y="1462" type="line"/>
      <point x="150" y="1462" type="line"/>
      <point x="150" y="573" type="line" smooth="yes"/>
      <point x="150" y="195"/>
      <point x="367" y="-20"/>
    </contour>
  </outline>
</glyph>
<glyph name="uni01B9" format="2">
  <advance width="1300"/>
  <unicode hex="01B9"/>
  <anchor x="651" y="-492" name="bottom"/>
  <anchor x="651" y="1133" name="top"/>
  <outline>
    <contour>
      <point x="705" y="-492" type="curve"/>
      <point x="907" y="-492"/>
      <point x="1061" y="-461"/>
      <point x="1200" y="-401" type="curve"/>
      <point x="1200" y="-70" type="line"/>
      <point x="1063" y="-137"/>
      <point x="883" y="-176"/>
      <point x="762" y="-176" type="curve"/>
      <point x="539" y="-176"/>
      <point x="483" y="-66"/>
      <point x="483" y="37" type="curve"/>
      <point x="483" y="150"/>
      <point x="551" y="250"/>
      <point x="860" y="250" type="curve"/>
      <point x="975" y="250" type="line"/>
      <point x="975" y="528" type="line"/>
      <point x="623" y="834" type="line"/>
      <point x="1192" y="834" type="line"/>
      <point x="1192" y="1133" type="line"/>
      <point x="135" y="1133" type="line"/>
      <point x="135" y="877" type="line"/>
      <point x="539" y="537" type="line"/>
      <point x="201" y="465"/>
      <point x="82" y="256"/>
      <point x="82" y="12" type="curve"/>
      <point x="84" y="-276"/>
      <point x="274" y="-489"/>
    </contour>
  </outline>
</glyph>
<glyph name="uni01E4" format="2">
  <advance width="1483"/>
  <unicode hex="01E4"/>
  <anchor x="823" y="0" name="bottom"/>
  <anchor x="844" y="1462" name="top"/>
  <outline>
    <contour>
      <point x="799" y="-20" type="curve" smooth="yes"/>
      <point x="1022" y="-20"/>
      <point x="1182" y="20"/>
      <point x="1319" y="61" type="curve"/>
      <point x="1319" y="369" type="line"/>
      <point x="1452" y="369" type="line"/>
      <point x="1452" y="604" type="line"/>
      <point x="1319" y="604" type="line"/>
      <point x="1319" y="918" type="line"/>
      <point x="725" y="918" type="line"/>
      <point x="725" y="682" type="line"/>
      <point x="926" y="682" type="line"/>
      <point x="926" y="604" type="line"/>
      <point x="725" y="604" type="line"/>
      <point x="725" y="369" type="line"/>
      <point x="926" y="369" type="line"/>
      <point x="926" y="295" type="line"/>
      <point x="891" y="287"/>
      <point x="858" y="283"/>
      <point x="815" y="283" type="curve" smooth="yes"/>
      <point x="631" y="283"/>
      <point x="528" y="383"/>
      <point x="528" y="705" type="curve" smooth="yes"/>
      <point x="528" y="1001"/>
      <point x="639" y="1149"/>
      <point x="866" y="1149" type="curve" smooth="yes"/>
      <point x="985" y="1149"/>
      <point x="1126" y="1116"/>
      <point x="1200" y="1077" type="curve"/>
      <point x="1323" y="1391" type="line"/>
      <point x="1202" y="1442"/>
      <point x="1040" y="1483"/>
      <point x="887" y="1483" type="curve"/>
      <point x="391" y="1483"/>
      <point x="115" y="1190"/>
      <point x="115" y="694" type="curve" smooth="yes"/>
      <point x="115" y="195"/>
      <point x="397" y="-20"/>
    </contour>
  </outline>
</glyph>
<glyph name="uni01F6" format="2">
  <advance width="2212"/>
  <unicode hex="01F6"/>
  <anchor x="1106" y="0" name="bottom"/>
  <anchor x="1106" y="1462" name="top"/>
  <outline>
    <contour>
      <point x="174" y="0" type="line"/>
      <point x="575" y="0" type="line"/>
      <point x="575" y="592" type="line"/>
      <point x="936" y="592" type="line"/>
      <point x="936" y="477" type="line" smooth="yes"/>
      <point x="936" y="131"/>
      <point x="1090" y="-31"/>
      <point x="1491" y="-31" type="curve"/>
      <point x="1880" y="-31"/>
      <point x="2046" y="174"/>
      <point x="2046" y="547" type="curve"/>
      <point x="2046" y="1133" type="line"/>
      <point x="1642" y="1133" type="line"/>
      <point x="1642" y="549" type="line" smooth="yes"/>
      <point x="1642" y="356"/>
      <point x="1599" y="293"/>
      <point x="1487" y="293" type="curve"/>
      <point x="1376" y="293"/>
      <point x="1339" y="362"/>
      <point x="1339" y="516" type="curve"/>
      <point x="1339" y="1462" type="line"/>
      <point x="936" y="1462" type="line"/>
      <point x="936" y="924" type="line"/>
      <point x="575" y="924" type="line"/>
      <point x="575" y="1462" type="line"/>
      <point x="174" y="1462" type="line"/>
    </contour>
  </outline>
</glyph>
<glyph name="uni0222" format="2">
  <advance width="1675"/>
  <unicode hex="0222"/>
  <anchor x="838" y="0" name="bottom"/>
  <anchor x="838" y="1462" name="top"/>
  <outline>
    <contour>
      <point x="838" y="-20" type="curve"/>
      <point x="1356" y="-20"/>
      <point x="1575" y="213"/>
      <point x="1573" y="532" type="curve"/>
      <point x="1573" y="698"/>
      <point x="1505" y="850"/>
      <point x="1309" y="946" type="curve"/>
      <point x="1477" y="1044"/>
      <point x="1505" y="1186"/>
      <point x="1505" y="1343" type="curve"/>
      <point x="1505" y="1452" type="line"/>
      <point x="1098" y="1452" type="line"/>
      <point x="1098" y="1339" type="line" smooth="yes"/>
      <point x="1098" y="1212"/>
      <point x="1028" y="1098"/>
      <point x="844" y="1098" type="curve"/>
      <point x="651" y="1098"/>
      <point x="578" y="1210"/>
      <point x="578" y="1343" type="curve"/>
      <point x="578" y="1452" type="line"/>
      <point x="168" y="1452" type="line"/>
      <point x="168" y="1343" type="line" smooth="yes"/>
      <point x="168" y="1182"/>
      <point x="195" y="1044"/>
      <point x="373" y="946" type="curve"/>
      <point x="166" y="848"/>
      <point x="102" y="686"/>
      <point x="102" y="526" type="curve"/>
      <point x="102" y="211"/>
      <point x="303" y="-20"/>
    </contour>
    <contour>
      <point x="836" y="319" type="curve"/>
      <point x="604" y="319"/>
      <point x="535" y="408"/>
      <point x="535" y="537" type="curve"/>
      <point x="535" y="670"/>
      <point x="614" y="754"/>
      <point x="844" y="754" type="curve"/>
      <point x="1069" y="754"/>
      <point x="1141" y="664"/>
      <point x="1141" y="539" type="curve"/>
      <point x="1141" y="408"/>
      <point x="1071" y="319"/>
    </contour>
  </outline>
</glyph>
<glyph name="uni023D" format="2">
  <advance width="1192"/>
  <unicode hex="023D"/>
  <anchor x="633" y="0" name="bottom"/>
  <anchor x="348" y="1462" name="top"/>
  <outline>
    <contour>
      <point x="23" y="573" type="line"/>
      <point x="834" y="573" type="line"/>
      <point x="834" y="885" type="line"/>
      <point x="23" y="885" type="line"/>
    </contour>
    <component base="L"/>
  </outline>
</glyph>
<glyph name="uni023F" format="2">
  <advance width="1092"/>
  <unicode hex="023F"/>
  <anchor x="547" y="-492" name="bottom"/>
  <anchor x="547" y="1133" name="top"/>
  <outline>
    <contour>
      <point x="743" y="-492" type="curve" smooth="yes"/>
      <point x="829" y="-492"/>
      <point x="897" y="-477"/>
      <point x="938" y="-465" type="curve"/>
      <point x="938" y="-184" type="line"/>
      <point x="907" y="-193"/>
      <point x="870" y="-205"/>
      <point x="823" y="-205" type="curve" smooth="yes"/>
      <point x="750" y="-205"/>
      <point x="711" y="-180"/>
      <point x="659" y="-86" type="curve" smooth="yes"/>
      <point x="645" y="-59"/>
      <point x="631" y="-35"/>
      <point x="614" y="-16" type="curve"/>
      <point x="897" y="6"/>
      <point x="1010" y="152"/>
      <point x="1010" y="348" type="curve" smooth="yes"/>
      <point x="1010" y="547"/>
      <point x="915" y="629"/>
      <point x="719" y="709" type="curve" smooth="yes"/>
      <point x="530" y="784"/>
      <point x="492" y="799"/>
      <point x="492" y="842" type="curve" smooth="yes"/>
      <point x="492" y="872"/>
      <point x="526" y="889"/>
      <point x="588" y="889" type="curve" smooth="yes"/>
      <point x="655" y="889"/>
      <point x="782" y="856"/>
      <point x="895" y="805" type="curve"/>
      <point x="1001" y="1057" type="line"/>
      <point x="860" y="1120"/>
      <point x="735" y="1153"/>
      <point x="586" y="1153" type="curve" smooth="yes"/>
      <point x="305" y="1153"/>
      <point x="119" y="1040"/>
      <point x="119" y="819" type="curve" smooth="yes"/>
      <point x="119" y="633"/>
      <point x="211" y="545"/>
      <point x="399" y="467" type="curve" smooth="yes"/>
      <point x="590" y="389"/>
      <point x="641" y="371"/>
      <point x="641" y="322" type="curve" smooth="yes"/>
      <point x="641" y="283"/>
      <point x="602" y="264"/>
      <point x="514" y="264" type="curve" smooth="yes"/>
      <point x="428" y="264"/>
      <point x="264" y="291"/>
      <point x="121" y="356" type="curve"/>
      <point x="121" y="45" type="line"/>
      <point x="135" y="39"/>
      <point x="164" y="33"/>
      <point x="182" y="27" type="curve" smooth="yes"/>
      <point x="254" y="2"/>
      <point x="301" y="-68"/>
      <point x="342" y="-176" type="curve" smooth="yes"/>
      <point x="410" y="-356"/>
      <point x="487" y="-492"/>
    </contour>
  </outline>
</glyph>
<glyph name="uni024F" format="2">
  <advance width="1266"/>
  <unicode hex="024F"/>
  <anchor x="283" y="-492" name="bottom"/>
  <anchor x="625" y="1133" name="top"/>
  <outline>
    <contour>
      <point x="1241" y="823" type="line"/>
      <point x="27" y="823" type="line"/>
      <point x="27" y="569" type="line"/>
      <point x="1241" y="569" type="line"/>
    </contour>
    <component base="y"/>
  </outline>
</glyph>
<glyph name="uni0256" format="2">
  <advance width="1331"/>
  <unicode hex="0256"/>
  <anchor x="666" y="-492" name="bottom"/>
  <anchor x="666" y="1556" name="top"/>
  <anchor x="1235" y="1556" name="topright"/>
  <outline>
    <contour>
      <point x="1159" y="-492" type="curve"/>
      <point x="1247" y="-492"/>
      <point x="1327" y="-469"/>
      <point x="1376" y="-451" type="curve"/>
      <point x="1376" y="-160" type="line"/>
      <point x="1335" y="-172"/>
      <point x="1305" y="-178"/>
      <point x="1262" y="-178" type="curve" smooth="yes"/>
      <point x="1210" y="-178"/>
      <point x="1182" y="-143"/>
      <point x="1182" y="-80" type="curve" smooth="yes"/>
      <point x="1182" y="1556" type="line"/>
      <point x="786" y="1556" type="line"/>
      <point x="786" y="1233" type="line" smooth="yes"/>
      <point x="786" y="1143"/>
      <point x="795" y="1061"/>
      <point x="803" y="991" type="curve"/>
      <point x="791" y="991" type="line"/>
      <point x="743" y="1067"/>
      <point x="666" y="1153"/>
      <point x="496" y="1153" type="curve"/>
      <point x="260" y="1153"/>
      <point x="86" y="956"/>
      <point x="86" y="569" type="curve" smooth="yes"/>
      <point x="86" y="182"/>
      <point x="256" y="-20"/>
      <point x="483" y="-20" type="curve"/>
      <point x="649" y="-20"/>
      <point x="735" y="57"/>
      <point x="784" y="135" type="curve"/>
      <point x="797" y="135" type="line"/>
      <point x="791" y="78"/>
      <point x="784" y="2"/>
      <point x="784" y="-80" type="curve"/>
      <point x="784" y="-104" type="line" smooth="yes"/>
      <point x="784" y="-332"/>
      <point x="872" y="-492"/>
    </contour>
    <contour>
      <point x="651" y="289" type="curve"/>
      <point x="551" y="289"/>
      <point x="481" y="371"/>
      <point x="481" y="563" type="curve"/>
      <point x="481" y="737"/>
      <point x="543" y="836"/>
      <point x="653" y="836" type="curve"/>
      <point x="776" y="836"/>
      <point x="819" y="750"/>
      <point x="819" y="573" type="curve" smooth="yes"/>
      <point x="819" y="537" type="line" smooth="yes"/>
      <point x="819" y="369"/>
      <point x="764" y="289"/>
    </contour>
  </outline>
</glyph>
<glyph name="schwahook" format="2">
  <advance width="1788"/>
  <unicode hex="025A"/>
  <anchor x="602" y="0" name="bottom"/>
  <anchor x="602" y="1133" name="top"/>
  <outline>
    <contour>
      <point x="614" y="-20" type="curve" smooth="yes"/>
      <point x="950" y="-20"/>
      <point x="1190" y="180"/>
      <point x="1204" y="565" type="curve"/>
      <point x="1280" y="584" type="line"/>
      <point x="1341" y="403"/>
      <point x="1425" y="344"/>
      <point x="1579" y="344" type="curve" smooth="yes"/>
      <point x="1673" y="344"/>
      <point x="1749" y="385"/>
      <point x="1788" y="422" type="curve"/>
      <point x="1724" y="618" type="line"/>
      <point x="1688" y="592"/>
      <point x="1655" y="573"/>
      <point x="1608" y="573" type="curve" smooth="yes"/>
      <point x="1546" y="573"/>
      <point x="1518" y="629"/>
      <point x="1485" y="758" type="curve" smooth="yes"/>
      <point x="1456" y="868" type="line"/>
      <point x="1171" y="801" type="line"/>
      <point x="1090" y="1049"/>
      <point x="879" y="1153"/>
      <point x="606" y="1153" type="curve" smooth="yes"/>
      <point x="406" y="1153"/>
      <point x="233" y="1100"/>
      <point x="154" y="1067" type="curve"/>
      <point x="154" y="768" type="line"/>
      <point x="248" y="815"/>
      <point x="389" y="864"/>
      <point x="545" y="864" type="curve" smooth="yes"/>
      <point x="674" y="864"/>
      <point x="766" y="825"/>
      <point x="805" y="700" type="curve"/>
      <point x="82" y="508" type="line"/>
      <point x="82" y="174"/>
      <point x="260" y="-20"/>
    </contour>
    <contour>
      <point x="631" y="254" type="curve"/>
      <point x="520" y="254"/>
      <point x="469" y="315"/>
      <point x="453" y="377" type="curve"/>
      <point x="831" y="475" type="line"/>
      <point x="831" y="324"/>
      <point x="739" y="254"/>
    </contour>
  </outline>
</glyph>
<glyph name="uni026E" format="2">
  <advance width="1688"/>
  <unicode hex="026E"/>
  <anchor x="844" y="-492" name="bottom"/>
  <anchor x="844" y="1556" name="top"/>
  <outline>
    <contour>
      <point x="938" y="-492" type="curve" smooth="yes"/>
      <point x="1409" y="-492"/>
      <point x="1610" y="-260"/>
      <point x="1610" y="72" type="curve" smooth="yes"/>
      <point x="1610" y="317"/>
      <point x="1452" y="498"/>
      <point x="1149" y="524" type="curve"/>
      <point x="1571" y="891" type="line"/>
      <point x="1571" y="1133" type="line"/>
      <point x="547" y="1133" type="line"/>
      <point x="547" y="1556" type="line"/>
      <point x="150" y="1556" type="line"/>
      <point x="150" y="0" type="line"/>
      <point x="547" y="0" type="line"/>
      <point x="547" y="834" type="line"/>
      <point x="1067" y="834" type="line"/>
      <point x="705" y="516" type="line"/>
      <point x="705" y="266" type="line"/>
      <point x="840" y="266" type="line" smooth="yes"/>
      <point x="1159" y="266"/>
      <point x="1212" y="162"/>
      <point x="1212" y="41" type="curve" smooth="yes"/>
      <point x="1212" y="-82"/>
      <point x="1135" y="-180"/>
      <point x="922" y="-180" type="curve" smooth="yes"/>
      <point x="760" y="-180"/>
      <point x="596" y="-137"/>
      <point x="465" y="-78" type="curve"/>
      <point x="465" y="-414" type="line"/>
      <point x="598" y="-463"/>
      <point x="727" y="-492"/>
    </contour>
  </outline>
</glyph>
<glyph name="omegaclosed" format="2">
  <advance width="1745"/>
  <unicode hex="0277"/>
  <anchor x="872" y="0" name="bottom"/>
  <anchor x="872" y="1133" name="top"/>
  <outline>
    <contour>
      <point x="877" y="1147" type="curve"/>
      <point x="379" y="1147"/>
      <point x="78" y="879"/>
      <point x="78" y="487" type="curve"/>
      <point x="78" y="172"/>
      <point x="246" y="-20"/>
      <point x="522" y="-20" type="curve"/>
      <point x="727" y="-20"/>
      <point x="819" y="78"/>
      <point x="864" y="190" type="curve"/>
      <point x="877" y="190" type="line"/>
      <point x="915" y="86"/>
      <point x="1006" y="-20"/>
      <point x="1212" y="-20" type="curve"/>
      <point x="1503" y="-20"/>
      <point x="1663" y="172"/>
      <point x="1663" y="487" type="curve"/>
      <point x="1663" y="872"/>
      <point x="1399" y="1147"/>
    </contour>
    <contour>
      <point x="868" y="827" type="curve"/>
      <point x="1186" y="827"/>
      <point x="1294" y="662"/>
      <point x="1294" y="481" type="curve"/>
      <point x="1294" y="362"/>
      <point x="1249" y="287"/>
      <point x="1165" y="287" type="curve"/>
      <point x="1061" y="287"/>
      <point x="1047" y="360"/>
      <point x="1047" y="457" type="curve"/>
      <point x="1047" y="662" type="line"/>
      <point x="694" y="662" type="line"/>
      <point x="694" y="465" type="line" smooth="yes"/>
      <point x="694" y="360"/>
      <point x="676" y="287"/>
      <point x="569" y="287" type="curve"/>
      <point x="489" y="287"/>
      <point x="446" y="362"/>
      <point x="446" y="487" type="curve"/>
      <point x="446" y="664"/>
      <point x="549" y="827"/>
    </contour>
  </outline>
</glyph>
<glyph name="uni0288" format="2">
  <advance width="981"/>
  <unicode hex="0288"/>
  <anchor x="492" y="-492" name="bottom"/>
  <anchor x="492" y="1358" name="top"/>
  <anchor x="862" y="1360" name="topright"/>
  <outline>
    <contour>
      <point x="705" y="-178" type="curve"/>
      <point x="643" y="-178"/>
      <point x="592" y="-154"/>
      <point x="592" y="-104" type="curve"/>
      <point x="592" y="838" type="line"/>
      <point x="903" y="838" type="line"/>
      <point x="903" y="1133" type="line"/>
      <point x="592" y="1133" type="line"/>
      <point x="592" y="1358" type="line"/>
      <point x="334" y="1358" type="line"/>
      <point x="227" y="1128" type="line"/>
      <point x="57" y="999" type="line"/>
      <point x="57" y="838" type="line"/>
      <point x="195" y="838" type="line"/>
      <point x="195" y="-98" type="line" smooth="yes"/>
      <point x="195" y="-418"/>
      <point x="373" y="-492"/>
      <point x="578" y="-492" type="curve"/>
      <point x="715" y="-492"/>
      <point x="836" y="-463"/>
      <point x="909" y="-428" type="curve"/>
      <point x="909" y="-135" type="line"/>
      <point x="838" y="-160"/>
      <point x="772" y="-178"/>
    </contour>
  </outline>
</glyph>
<glyph name="eopenclosed" format="2">
  <advance width="1341"/>
  <unicode hex="029A"/>
  <anchor x="672" y="0" name="bottom"/>
  <anchor x="672" y="1133" name="top"/>
  <outline>
    <contour>
      <point x="614" y="1153" type="curve" smooth="yes"/>
      <point x="266" y="1153"/>
      <point x="94" y="1026"/>
      <point x="94" y="834" type="curve" smooth="yes"/>
      <point x="94" y="694"/>
      <point x="197" y="608"/>
      <point x="326" y="584" type="curve"/>
      <point x="326" y="575" type="line"/>
      <point x="201" y="559"/>
      <point x="68" y="485"/>
      <point x="68" y="324" type="curve" smooth="yes"/>
      <point x="68" y="111"/>
      <point x="231" y="-20"/>
      <point x="606" y="-20" type="curve"/>
      <point x="987" y="-20"/>
      <point x="1262" y="158"/>
      <point x="1262" y="571" type="curve" smooth="yes"/>
      <point x="1262" y="938"/>
      <point x="1044" y="1153"/>
    </contour>
    <contour>
      <point x="614" y="874" type="curve" smooth="yes"/>
      <point x="801" y="874"/>
      <point x="872" y="764"/>
      <point x="872" y="563" type="curve" smooth="yes"/>
      <point x="872" y="317"/>
      <point x="756" y="276"/>
      <point x="621" y="276" type="curve" smooth="yes"/>
      <point x="532" y="276"/>
      <point x="467" y="313"/>
      <point x="467" y="373" type="curve" smooth="yes"/>
      <point x="467" y="426"/>
      <point x="520" y="451"/>
      <point x="657" y="451" type="curve" smooth="yes"/>
      <point x="713" y="451" type="line"/>
      <point x="713" y="694" type="line"/>
      <point x="647" y="694" type="line" smooth="yes"/>
      <point x="512" y="694"/>
      <point x="459" y="717"/>
      <point x="459" y="784" type="curve" smooth="yes"/>
      <point x="459" y="838"/>
      <point x="514" y="874"/>
    </contour>
  </outline>
</glyph>
<glyph name="rhotichookmod" format="2">
  <advance width="524"/>
  <unicode hex="02DE"/>
  <outline>
    <contour>
      <point x="289" y="342" type="curve"/>
      <point x="389" y="342"/>
      <point x="461" y="377"/>
      <point x="524" y="430" type="curve"/>
      <point x="436" y="639" type="line"/>
      <point x="401" y="612"/>
      <point x="369" y="588"/>
      <point x="311" y="588" type="curve"/>
      <point x="240" y="588"/>
      <point x="225" y="639"/>
      <point x="190" y="768" type="curve"/>
      <point x="164" y="860" type="line"/>
      <point x="-307" y="731" type="line"/>
      <point x="-246" y="506" type="line"/>
      <point x="-6" y="569" type="line"/>
      <point x="45" y="414"/>
      <point x="137" y="342"/>
    </contour>
  </outline>
</glyph>
<glyph name="hookretroflexbelowcomb" format="2">
  <unicode hex="0322"/>
  <anchor x="258" y="0" name="_bottom"/>
  <anchor x="258" y="-494" name="bottom"/>
  <outline>
    <contour>
      <point x="307" y="-494" type="curve"/>
      <point x="379" y="-494"/>
      <point x="457" y="-487"/>
      <point x="514" y="-467" type="curve"/>
      <point x="514" y="-213" type="line"/>
      <point x="481" y="-223"/>
      <point x="449" y="-231"/>
      <point x="420" y="-231" type="curve"/>
      <point x="348" y="-231"/>
      <point x="313" y="-201"/>
      <point x="313" y="-104" type="curve"/>
      <point x="313" y="119" type="line"/>
      <point x="0" y="119" type="line"/>
      <point x="0" y="-143" type="line" smooth="yes"/>
      <point x="0" y="-401"/>
      <point x="133" y="-494"/>
    </contour>
  </outline>
</glyph>
<glyph name="Delta" format="2">
  <advance width="1446"/>
  <unicode hex="0394"/>
  <anchor x="723" y="0" name="bottom"/>
  <anchor x="723" y="1462" name="top"/>
  <outline>
    <contour>
      <point x="958" y="1473" type="line"/>
      <point x="492" y="1473" type="line"/>
      <point x="33" y="223" type="line"/>
      <point x="33" y="0" type="line"/>
      <point x="1413" y="0" type="line"/>
      <point x="1413" y="221" type="line"/>
    </contour>
    <contour>
      <point x="983" y="324" type="line"/>
      <point x="465" y="324" type="line"/>
      <point x="692" y="1018" type="line" smooth="yes"/>
      <point x="702" y="1053"/>
      <point x="715" y="1108"/>
      <point x="723" y="1161" type="curve"/>
      <point x="731" y="1108"/>
      <point x="743" y="1055"/>
      <point x="756" y="1018" type="curve" smooth="yes"/>
    </contour>
  </outline>
</glyph>
<glyph name="Lambda" format="2">
  <advance width="1421"/>
  <unicode hex="039B"/>
  <anchor x="711" y="0" name="bottom"/>
  <anchor x="711" y="1462" name="top"/>
  <outline>
    <contour>
      <point x="944" y="1462" type="line"/>
      <point x="479" y="1462" type="line"/>
      <point x="0" y="0" type="line"/>
      <point x="442" y="0" type="line"/>
      <point x="645" y="745" type="line" smooth="yes"/>
      <point x="670" y="829"/>
      <point x="702" y="1004"/>
      <point x="711" y="1085" type="curve"/>
      <point x="717" y="1004"/>
      <point x="758" y="825"/>
      <point x="778" y="741" type="curve" smooth="yes"/>
      <point x="977" y="0" type="line"/>
      <point x="1421" y="0" type="line"/>
    </contour>
  </outline>
</glyph>
<glyph name="zeta" format="2">
  <advance width="1044"/>
  <unicode hex="03B6"/>
  <anchor x="522" y="-365" name="bottom"/>
  <anchor x="522" y="1556" name="top"/>
  <outline>
    <contour>
      <point x="1061" y="-18" type="curve" smooth="yes"/>
      <point x="1061" y="123"/>
      <point x="993" y="236"/>
      <point x="762" y="285" type="curve"/>
      <point x="545" y="332"/>
      <point x="483" y="371"/>
      <point x="483" y="489" type="curve" smooth="yes"/>
      <point x="483" y="727"/>
      <point x="602" y="969"/>
      <point x="1038" y="1325" type="curve"/>
      <point x="1038" y="1556" type="line"/>
      <point x="141" y="1556" type="line"/>
      <point x="141" y="1266" type="line"/>
      <point x="442" y="1266" type="line" smooth="yes"/>
      <point x="489" y="1266"/>
      <point x="563" y="1274"/>
      <point x="608" y="1288" type="curve"/>
      <point x="242" y="1012"/>
      <point x="86" y="741"/>
      <point x="86" y="471" type="curve" smooth="yes"/>
      <point x="86" y="248"/>
      <point x="139" y="96"/>
      <point x="440" y="25" type="curve" smooth="yes"/>
      <point x="637" y="-23"/>
      <point x="674" y="-47"/>
      <point x="674" y="-102" type="curve" smooth="yes"/>
      <point x="674" y="-143"/>
      <point x="621" y="-258"/>
      <point x="522" y="-365" type="curve"/>
      <point x="922" y="-365" type="line"/>
      <point x="1004" y="-256"/>
      <point x="1061" y="-143"/>
    </contour>
  </outline>
</glyph>
<glyph name="pi" format="2">
  <advance width="1628"/>
  <unicode hex="03C0"/>
  <anchor x="815" y="0" name="bottom"/>
  <anchor x="815" y="1133" name="top"/>
  <outline>
    <contour>
      <point x="1393" y="287" type="curve" smooth="yes"/>
      <point x="1341" y="287"/>
      <point x="1298" y="317"/>
      <point x="1298" y="395" type="curve" smooth="yes"/>
      <point x="1298" y="842" type="line"/>
      <point x="1548" y="842" type="line"/>
      <point x="1548" y="1133" type="line"/>
      <point x="223" y="1133" type="line"/>
      <point x="23" y="1008" type="line"/>
      <point x="23" y="842" type="line"/>
      <point x="264" y="842" type="line"/>
      <point x="264" y="0" type="line"/>
      <point x="655" y="0" type="line"/>
      <point x="655" y="842" type="line"/>
      <point x="907" y="842" type="line"/>
      <point x="907" y="352" type="line" smooth="yes"/>
      <point x="907" y="111"/>
      <point x="1006" y="-20"/>
      <point x="1245" y="-20" type="curve" smooth="yes"/>
      <point x="1366" y="-20"/>
      <point x="1485" y="14"/>
      <point x="1548" y="53" type="curve"/>
      <point x="1548" y="322" type="line"/>
      <point x="1503" y="301"/>
      <point x="1438" y="287"/>
    </contour>
  </outline>
</glyph>
<glyph name="tau" format="2">
  <advance width="1083"/>
  <unicode hex="03C4"/>
  <anchor x="543" y="0" name="bottom"/>
  <anchor x="543" y="1133" name="top"/>
  <outline>
    <contour>
      <point x="1018" y="1133" type="line"/>
      <point x="217" y="1133" type="line"/>
      <point x="23" y="1008" type="line"/>
      <point x="23" y="842" type="line"/>
      <point x="293" y="842" type="line"/>
      <point x="293" y="373" type="line" smooth="yes"/>
      <point x="293" y="63"/>
      <point x="442" y="-18"/>
      <point x="672" y="-18" type="curve" smooth="yes"/>
      <point x="797" y="-18"/>
      <point x="901" y="8"/>
      <point x="977" y="45" type="curve"/>
      <point x="977" y="330" type="line"/>
      <point x="907" y="303"/>
      <point x="850" y="287"/>
      <point x="784" y="287" type="curve" smooth="yes"/>
      <point x="721" y="287"/>
      <point x="684" y="326"/>
      <point x="684" y="395" type="curve" smooth="yes"/>
      <point x="684" y="842" type="line"/>
      <point x="1018" y="842" type="line"/>
    </contour>
  </outline>
</glyph>
<glyph name="uni03DC" format="2">
  <advance width="1229"/>
  <unicode hex="03DC"/>
  <anchor x="614" y="0" name="bottom"/>
  <anchor x="614" y="1462" name="top"/>
  <outline>
    <contour>
      <point x="158" y="0" type="line"/>
      <point x="547" y="0" type="line"/>
      <point x="547" y="549" type="line"/>
      <point x="721" y="549" type="line"/>
      <point x="721" y="338" type="line"/>
      <point x="1001" y="338" type="line"/>
      <point x="1001" y="866" type="line"/>
      <point x="547" y="866" type="line"/>
      <point x="547" y="1145" type="line"/>
      <point x="1020" y="1145" type="line"/>
      <point x="1020" y="1462" type="line"/>
      <point x="158" y="1462" type="line"/>
    </contour>
  </outline>
</glyph>
<glyph name="uni03DF" format="2">
  <advance width="1122"/>
  <unicode hex="03DF"/>
  <anchor x="561" y="-492" name="bottom"/>
  <anchor x="561" y="1573" name="top"/>
  <outline>
    <contour>
      <point x="737" y="-492" type="curve"/>
      <point x="858" y="-492"/>
      <point x="940" y="-471"/>
      <point x="971" y="-461" type="curve"/>
      <point x="971" y="-205" type="line"/>
      <point x="946" y="-213"/>
      <point x="913" y="-225"/>
      <point x="872" y="-225" type="curve" smooth="yes"/>
      <point x="807" y="-225"/>
      <point x="776" y="-178"/>
      <point x="776" y="-123" type="curve" smooth="yes"/>
      <point x="776" y="-88"/>
      <point x="793" y="-35"/>
      <point x="819" y="37" type="curve" smooth="yes"/>
      <point x="1034" y="606" type="line"/>
      <point x="1024" y="805" type="line"/>
      <point x="465" y="696" type="line"/>
      <point x="596" y="1014" type="line" smooth="yes"/>
      <point x="635" y="1108"/>
      <point x="666" y="1196"/>
      <point x="666" y="1284" type="curve" smooth="yes"/>
      <point x="666" y="1466"/>
      <point x="563" y="1573"/>
      <point x="346" y="1573" type="curve"/>
      <point x="268" y="1573"/>
      <point x="188" y="1559"/>
      <point x="127" y="1536" type="curve"/>
      <point x="178" y="1284" type="line"/>
      <point x="199" y="1298"/>
      <point x="233" y="1311"/>
      <point x="262" y="1311" type="curve" smooth="yes"/>
      <point x="299" y="1311"/>
      <point x="328" y="1290"/>
      <point x="328" y="1255" type="curve" smooth="yes"/>
      <point x="328" y="1206"/>
      <point x="311" y="1159"/>
      <point x="291" y="1104" type="curve" smooth="yes"/>
      <point x="88" y="582" type="line"/>
      <point x="88" y="336" type="line"/>
      <point x="629" y="449" type="line"/>
      <point x="465" y="6" type="line" smooth="yes"/>
      <point x="438" y="-66"/>
      <point x="420" y="-139"/>
      <point x="420" y="-207" type="curve" smooth="yes"/>
      <point x="420" y="-391"/>
      <point x="551" y="-492"/>
    </contour>
  </outline>
</glyph>
<glyph name="afii10053" format="2">
  <advance width="1372"/>
  <unicode hex="0404"/>
  <anchor x="686" y="0" name="bottom"/>
  <anchor x="686" y="1462" name="top"/>
  <outline>
    <contour>
      <point x="838" y="1155" type="curve" smooth="yes"/>
      <point x="981" y="1155"/>
      <point x="1073" y="1112"/>
      <point x="1182" y="1051" type="curve"/>
      <point x="1309" y="1372" type="line"/>
      <point x="1188" y="1427"/>
      <point x="1028" y="1481"/>
      <point x="834" y="1481" type="curve" smooth="yes"/>
      <point x="350" y="1481"/>
      <point x="104" y="1163"/>
      <point x="104" y="727" type="curve" smooth="yes"/>
      <point x="104" y="276"/>
      <point x="319" y="-20"/>
      <point x="815" y="-20" type="curve" smooth="yes"/>
      <point x="987" y="-20"/>
      <point x="1147" y="16"/>
      <point x="1264" y="68" type="curve"/>
      <point x="1264" y="395" type="line"/>
      <point x="1120" y="344"/>
      <point x="1001" y="309"/>
      <point x="844" y="309" type="curve" smooth="yes"/>
      <point x="635" y="309"/>
      <point x="530" y="408"/>
      <point x="518" y="578" type="curve"/>
      <point x="1098" y="578" type="line"/>
      <point x="1098" y="879" type="line"/>
      <point x="518" y="879" type="line"/>
      <point x="545" y="1071"/>
      <point x="659" y="1155"/>
    </contour>
  </outline>
</glyph>
<glyph name="afii10024" format="2">
  <advance width="2101"/>
  <unicode hex="0416"/>
  <anchor x="1051" y="0" name="bottom"/>
  <anchor x="1049" y="1462" name="top"/>
  <outline>
    <contour>
      <point x="455" y="764" type="line"/>
      <point x="-8" y="0" type="line"/>
      <point x="428" y="0" type="line"/>
      <point x="860" y="741" type="line"/>
      <point x="860" y="0" type="line"/>
      <point x="1241" y="0" type="line"/>
      <point x="1241" y="741" type="line"/>
      <point x="1673" y="0" type="line"/>
      <point x="2109" y="0" type="line"/>
      <point x="1645" y="764" type="line"/>
      <point x="2075" y="1462" type="line"/>
      <point x="1649" y="1462" type="line"/>
      <point x="1241" y="754" type="line"/>
      <point x="1241" y="1462" type="line"/>
      <point x="860" y="1462" type="line"/>
      <point x="860" y="754" type="line"/>
      <point x="455" y="1462" type="line"/>
      <point x="29" y="1462" type="line"/>
    </contour>
  </outline>
</glyph>
<glyph name="afii10067" format="2">
  <advance width="1288"/>
  <unicode hex="0432"/>
  <anchor x="645" y="0" name="bottom"/>
  <anchor x="645" y="1133" name="top"/>
  <outline>
    <contour>
      <point x="1184" y="840" type="curve" smooth="yes"/>
      <point x="1184" y="1030"/>
      <point x="1034" y="1133"/>
      <point x="692" y="1133" type="curve" smooth="yes"/>
      <point x="135" y="1133" type="line"/>
      <point x="135" y="0" type="line"/>
      <point x="690" y="0" type="line" smooth="yes"/>
      <point x="1106" y="0"/>
      <point x="1219" y="154"/>
      <point x="1219" y="324" type="curve" smooth="yes"/>
      <point x="1219" y="469"/>
      <point x="1128" y="567"/>
      <point x="967" y="586" type="curve"/>
      <point x="967" y="594" type="line"/>
      <point x="1114" y="618"/>
      <point x="1184" y="721"/>
    </contour>
    <contour>
      <point x="821" y="362" type="curve" smooth="yes"/>
      <point x="821" y="299"/>
      <point x="780" y="256"/>
      <point x="678" y="256" type="curve" smooth="yes"/>
      <point x="526" y="256" type="line"/>
      <point x="526" y="461" type="line"/>
      <point x="682" y="461" type="line" smooth="yes"/>
      <point x="791" y="461"/>
      <point x="821" y="420"/>
    </contour>
    <contour>
      <point x="795" y="788" type="curve" smooth="yes"/>
      <point x="795" y="741"/>
      <point x="754" y="707"/>
      <point x="672" y="707" type="curve" smooth="yes"/>
      <point x="526" y="707" type="line"/>
      <point x="526" y="877" type="line"/>
      <point x="686" y="877" type="line" smooth="yes"/>
      <point x="756" y="877"/>
      <point x="795" y="846"/>
    </contour>
  </outline>
</glyph>
<glyph name="afii10068" format="2">
  <advance width="1026"/>
  <unicode hex="0433"/>
  <anchor x="514" y="0" name="bottom"/>
  <anchor x="549" y="1133" name="top"/>
  <outline>
    <contour>
      <point x="977" y="1133" type="line"/>
      <point x="135" y="1133" type="line"/>
      <point x="135" y="0" type="line"/>
      <point x="526" y="0" type="line"/>
      <point x="526" y="842" type="line"/>
      <point x="977" y="842" type="line"/>
    </contour>
  </outline>
</glyph>
<glyph name="afii10084" format="2">
  <advance width="1235"/>
  <unicode hex="0442"/>
  <anchor x="618" y="0" name="bottom"/>
  <anchor x="618" y="1133" name="top"/>
  <outline>
    <contour>
      <point x="1186" y="842" type="line"/>
      <point x="1186" y="1133" type="line"/>
      <point x="49" y="1133" type="line"/>
      <point x="49" y="842" type="line"/>
      <point x="422" y="842" type="line"/>
      <point x="422" y="0" type="line"/>
      <point x="813" y="0" type="line"/>
      <point x="813" y="842" type="line"/>
    </contour>
  </outline>
</glyph>
<glyph name="afii10092" format="2">
  <advance width="1460"/>
  <unicode hex="044A"/>
  <anchor x="731" y="0" name="bottom"/>
  <anchor x="731" y="1133" name="top"/>
  <outline>
    <contour>
      <point x="799" y="1133" type="line"/>
      <point x="49" y="1133" type="line"/>
      <point x="49" y="842" type="line"/>
      <point x="408" y="842" type="line"/>
      <point x="408" y="0" type="line"/>
      <point x="883" y="0" type="line" smooth="yes"/>
      <point x="1270" y="0"/>
      <point x="1395" y="150"/>
      <point x="1395" y="377" type="curve" smooth="yes"/>
      <point x="1395" y="598"/>
      <point x="1284" y="725"/>
      <point x="928" y="725" type="curve" smooth="yes"/>
      <point x="799" y="725" type="line"/>
    </contour>
    <contour>
      <point x="860" y="469" type="line" smooth="yes"/>
      <point x="975" y="469"/>
      <point x="1004" y="428"/>
      <point x="1004" y="358" type="curve" smooth="yes"/>
      <point x="1004" y="293"/>
      <point x="961" y="256"/>
      <point x="864" y="256" type="curve" smooth="yes"/>
      <point x="799" y="256" type="line"/>
      <point x="799" y="469" type="line"/>
    </contour>
  </outline>
</glyph>
<glyph name="afii10099" format="2">
  <advance width="1393"/>
  <unicode hex="0452"/>
  <anchor x="696" y="-492" name="bottom"/>
  <anchor x="696" y="1556" name="top"/>
  <outline>
    <contour>
      <point x="844" y="-492" type="curve" smooth="yes"/>
      <point x="1153" y="-492"/>
      <point x="1262" y="-297"/>
      <point x="1262" y="-92" type="curve" smooth="yes"/>
      <point x="1262" y="639" type="line" smooth="yes"/>
      <point x="1262" y="928"/>
      <point x="1087" y="1053"/>
      <point x="862" y="1053" type="curve" smooth="yes"/>
      <point x="725" y="1053"/>
      <point x="627" y="1008"/>
      <point x="553" y="893" type="curve"/>
      <point x="530" y="893" type="line"/>
      <point x="537" y="956"/>
      <point x="547" y="1063"/>
      <point x="547" y="1126" type="curve" smooth="yes"/>
      <point x="547" y="1167" type="line"/>
      <point x="780" y="1167" type="line"/>
      <point x="780" y="1409" type="line"/>
      <point x="547" y="1409" type="line"/>
      <point x="547" y="1556" type="line"/>
      <point x="156" y="1556" type="line"/>
      <point x="156" y="1409" type="line"/>
      <point x="0" y="1409" type="line"/>
      <point x="0" y="1167" type="line"/>
      <point x="156" y="1167" type="line"/>
      <point x="156" y="0" type="line"/>
      <point x="547" y="0" type="line"/>
      <point x="547" y="395" type="line" smooth="yes"/>
      <point x="547" y="621"/>
      <point x="592" y="745"/>
      <point x="733" y="745" type="curve" smooth="yes"/>
      <point x="825" y="745"/>
      <point x="868" y="668"/>
      <point x="868" y="518" type="curve" smooth="yes"/>
      <point x="868" y="-10" type="line" smooth="yes"/>
      <point x="868" y="-147"/>
      <point x="813" y="-180"/>
      <point x="750" y="-180" type="curve" smooth="yes"/>
      <point x="702" y="-180"/>
      <point x="672" y="-176"/>
      <point x="627" y="-164" type="curve"/>
      <point x="627" y="-467" type="line"/>
      <point x="682" y="-481"/>
      <point x="780" y="-492"/>
    </contour>
  </outline>
</glyph>
<glyph name="afii10193" format="2">
  <advance width="1411"/>
  <unicode hex="045F"/>
  <anchor x="707" y="-416" name="bottom"/>
  <anchor x="707" y="1133" name="top"/>
  <outline>
    <contour>
      <point x="535" y="0" type="line"/>
      <point x="535" y="-416" type="line"/>
      <point x="877" y="-416" type="line"/>
      <point x="877" y="0" type="line"/>
      <point x="1276" y="0" type="line"/>
      <point x="1276" y="1133" type="line"/>
      <point x="885" y="1133" type="line"/>
      <point x="885" y="291" type="line"/>
      <point x="526" y="291" type="line"/>
      <point x="526" y="1133" type="line"/>
      <point x="135" y="1133" type="line"/>
      <point x="135" y="0" type="line"/>
    </contour>
  </outline>
</glyph>
<glyph name="uni0468" format="2">
  <advance width="2380"/>
  <unicode hex="0468"/>
  <anchor x="1518" y="0" name="bottom"/>
  <anchor x="1518" y="1462" name="top"/>
  <outline>
    <contour>
      <point x="1745" y="1462" type="line"/>
      <point x="1280" y="1462" type="line"/>
      <point x="1042" y="920" type="line"/>
      <point x="555" y="920" type="line"/>
      <point x="555" y="1462" type="line"/>
      <point x="158" y="1462" type="line"/>
      <point x="158" y="0" type="line"/>
      <point x="555" y="0" type="line"/>
      <point x="555" y="596" type="line"/>
      <point x="899" y="596" type="line"/>
      <point x="639" y="0" type="line"/>
      <point x="1047" y="0" type="line"/>
      <point x="1260" y="555" type="line"/>
      <point x="1341" y="555" type="line"/>
      <point x="1341" y="0" type="line"/>
      <point x="1690" y="0" type="line"/>
      <point x="1690" y="555" type="line"/>
      <point x="1772" y="555" type="line"/>
      <point x="1987" y="0" type="line"/>
      <point x="2392" y="0" type="line"/>
    </contour>
    <contour>
      <point x="1516" y="1217" type="curve"/>
      <point x="1532" y="1159"/>
      <point x="1563" y="1071"/>
      <point x="1589" y="1006" type="curve" smooth="yes"/>
      <point x="1653" y="846" type="line"/>
      <point x="1380" y="846" type="line"/>
      <point x="1442" y="1004" type="line" smooth="yes"/>
      <point x="1468" y="1069"/>
      <point x="1501" y="1159"/>
    </contour>
  </outline>
</glyph>
<glyph name="uni046B" format="2">
  <advance width="1462"/>
  <unicode hex="046B"/>
  <anchor x="731" y="0" name="bottom"/>
  <anchor x="731" y="1133" name="top"/>
  <outline>
    <contour>
      <point x="1311" y="1133" type="line"/>
      <point x="143" y="1133" type="line"/>
      <point x="143" y="983" type="line"/>
      <point x="424" y="651" type="line"/>
      <point x="270" y="623"/>
      <point x="164" y="528"/>
      <point x="109" y="352" type="curve" smooth="yes"/>
      <point x="0" y="0" type="line"/>
      <point x="375" y="0" type="line"/>
      <point x="459" y="309" type="line" smooth="yes"/>
      <point x="492" y="416"/>
      <point x="535" y="446"/>
      <point x="573" y="446" type="curve"/>
      <point x="573" y="0" type="line"/>
      <point x="889" y="0" type="line"/>
      <point x="889" y="446" type="line"/>
      <point x="934" y="442"/>
      <point x="975" y="406"/>
      <point x="1004" y="307" type="curve" smooth="yes"/>
      <point x="1087" y="0" type="line"/>
      <point x="1462" y="0" type="line"/>
      <point x="1346" y="352" type="line" smooth="yes"/>
      <point x="1288" y="522"/>
      <point x="1194" y="612"/>
      <point x="1040" y="649" type="curve"/>
      <point x="1311" y="983" type="line"/>
    </contour>
    <contour>
      <point x="885" y="883" type="line"/>
      <point x="727" y="676" type="line"/>
      <point x="569" y="883" type="line"/>
    </contour>
  </outline>
</glyph>
<glyph name="uni046F" format="2">
  <advance width="1135"/>
  <unicode hex="046F"/>
  <anchor x="567" y="-492" name="bottom"/>
  <anchor x="567" y="1395" name="top"/>
  <outline>
    <contour>
      <point x="897" y="1395" type="curve" smooth="yes"/>
      <point x="754" y="1395"/>
      <point x="680" y="1335"/>
      <point x="547" y="1157" type="curve"/>
      <point x="475" y="1243"/>
      <point x="395" y="1311"/>
      <point x="342" y="1352" type="curve"/>
      <point x="98" y="1352" type="line"/>
      <point x="98" y="1325" type="line"/>
      <point x="139" y="1282"/>
      <point x="211" y="1196"/>
      <point x="268" y="1126" type="curve"/>
      <point x="209" y="1112"/>
      <point x="152" y="1092"/>
      <point x="92" y="1067" type="curve"/>
      <point x="203" y="803" type="line"/>
      <point x="307" y="850"/>
      <point x="397" y="874"/>
      <point x="506" y="874" type="curve" smooth="yes"/>
      <point x="612" y="874"/>
      <point x="655" y="846"/>
      <point x="655" y="799" type="curve" smooth="yes"/>
      <point x="655" y="741"/>
      <point x="598" y="715"/>
      <point x="436" y="715" type="curve" smooth="yes"/>
      <point x="313" y="715" type="line"/>
      <point x="313" y="461" type="line"/>
      <point x="461" y="461" type="line" smooth="yes"/>
      <point x="649" y="461"/>
      <point x="680" y="428"/>
      <point x="680" y="367" type="curve" smooth="yes"/>
      <point x="680" y="330"/>
      <point x="649" y="264"/>
      <point x="451" y="258" type="curve" smooth="yes"/>
      <point x="172" y="248"/>
      <point x="-2" y="135"/>
      <point x="-2" y="-102" type="curve" smooth="yes"/>
      <point x="-2" y="-309"/>
      <point x="131" y="-459"/>
      <point x="465" y="-459" type="curve" smooth="yes"/>
      <point x="590" y="-459"/>
      <point x="666" y="-449"/>
      <point x="791" y="-449" type="curve" smooth="yes"/>
      <point x="852" y="-449"/>
      <point x="924" y="-467"/>
      <point x="948" y="-492" type="curve"/>
      <point x="948" y="-209" type="line"/>
      <point x="915" y="-184"/>
      <point x="866" y="-166"/>
      <point x="780" y="-166" type="curve" smooth="yes"/>
      <point x="684" y="-166"/>
      <point x="600" y="-176"/>
      <point x="494" y="-176" type="curve" smooth="yes"/>
      <point x="414" y="-176"/>
      <point x="362" y="-160"/>
      <point x="362" y="-102" type="curve" smooth="yes"/>
      <point x="362" y="-49"/>
      <point x="410" y="-27"/>
      <point x="551" y="-20" type="curve" smooth="yes"/>
      <point x="932" y="-6"/>
      <point x="1071" y="102"/>
      <point x="1071" y="322" type="curve" smooth="yes"/>
      <point x="1071" y="453"/>
      <point x="999" y="563"/>
      <point x="819" y="588" type="curve"/>
      <point x="819" y="598" type="line"/>
      <point x="942" y="631"/>
      <point x="1024" y="723"/>
      <point x="1024" y="846" type="curve" smooth="yes"/>
      <point x="1024" y="987"/>
      <point x="934" y="1073"/>
      <point x="797" y="1116" type="curve"/>
      <point x="834" y="1171"/>
      <point x="885" y="1214"/>
      <point x="934" y="1214" type="curve" smooth="yes"/>
      <point x="977" y="1214"/>
      <point x="1020" y="1206"/>
      <point x="1036" y="1200" type="curve"/>
      <point x="1036" y="1376" type="line"/>
      <point x="1016" y="1382"/>
      <point x="975" y="1395"/>
    </contour>
  </outline>
</glyph>
<glyph name="uni047B" format="2">
  <advance width="1438"/>
  <unicode hex="047B"/>
  <outline>
    <contour>
      <point x="1350" y="569" type="curve" smooth="yes"/>
      <point x="1350" y="895"/>
      <point x="1149" y="1087"/>
      <point x="856" y="1133" type="curve"/>
      <point x="844" y="1202"/>
      <point x="788" y="1251"/>
      <point x="719" y="1251" type="curve" smooth="yes"/>
      <point x="645" y="1251"/>
      <point x="590" y="1204"/>
      <point x="578" y="1133" type="curve"/>
      <point x="268" y="1090"/>
      <point x="86" y="895"/>
      <point x="86" y="569" type="curve" smooth="yes"/>
      <point x="86" y="240"/>
      <point x="285" y="45"/>
      <point x="578" y="0" type="curve"/>
      <point x="592" y="-70"/>
      <point x="645" y="-119"/>
      <point x="717" y="-119" type="curve" smooth="yes"/>
      <point x="791" y="-119"/>
      <point x="844" y="-72"/>
      <point x="856" y="0" type="curve"/>
      <point x="1165" y="43"/>
      <point x="1350" y="238"/>
    </contour>
    <contour>
      <point x="952" y="569" type="curve" smooth="yes"/>
      <point x="952" y="440"/>
      <point x="924" y="342"/>
      <point x="856" y="291" type="curve"/>
      <point x="844" y="360"/>
      <point x="788" y="410"/>
      <point x="719" y="410" type="curve" smooth="yes"/>
      <point x="643" y="410"/>
      <point x="590" y="362"/>
      <point x="578" y="291" type="curve"/>
      <point x="510" y="340"/>
      <point x="483" y="436"/>
      <point x="483" y="569" type="curve" smooth="yes"/>
      <point x="483" y="694"/>
      <point x="512" y="788"/>
      <point x="578" y="840" type="curve"/>
      <point x="592" y="772"/>
      <point x="647" y="723"/>
      <point x="717" y="723" type="curve" smooth="yes"/>
      <point x="791" y="723"/>
      <point x="846" y="770"/>
      <point x="856" y="842" type="curve"/>
      <point x="924" y="791"/>
      <point x="952" y="694"/>
    </contour>
  </outline>
</glyph>
<glyph name="uni049F" format="2">
  <advance width="1405"/>
  <unicode hex="049F"/>
  <anchor x="702" y="0" name="bottom"/>
  <anchor x="354" y="1556" name="top"/>
  <outline>
    <contour>
      <point x="547" y="1556" type="line"/>
      <point x="156" y="1556" type="line"/>
      <point x="156" y="1409" type="line"/>
      <point x="0" y="1409" type="line"/>
      <point x="0" y="1167" type="line"/>
      <point x="156" y="1167" type="line"/>
      <point x="156" y="0" type="line"/>
      <point x="547" y="0" type="line"/>
      <point x="547" y="575" type="line"/>
      <point x="967" y="0" type="line"/>
      <point x="1413" y="0" type="line"/>
      <point x="956" y="590" type="line"/>
      <point x="1380" y="1133" type="line"/>
      <point x="948" y="1133" type="line"/>
      <point x="547" y="584" type="line"/>
      <point x="547" y="1167" type="line"/>
      <point x="780" y="1167" type="line"/>
      <point x="780" y="1409" type="line"/>
      <point x="547" y="1409" type="line"/>
    </contour>
  </outline>
</glyph>
<glyph name="uni04A0" format="2">
  <advance width="1626"/>
  <unicode hex="04A0"/>
  <anchor x="813" y="0" name="bottom"/>
  <anchor x="813" y="1462" name="top"/>
  <outline>
    <contour>
      <point x="1626" y="1462" type="line"/>
      <point x="1192" y="1462" type="line"/>
      <point x="774" y="754" type="line"/>
      <point x="774" y="1462" type="line"/>
      <point x="51" y="1462" type="line"/>
      <point x="51" y="1139" type="line"/>
      <point x="377" y="1139" type="line"/>
      <point x="377" y="0" type="line"/>
      <point x="774" y="0" type="line"/>
      <point x="774" y="741" type="line"/>
      <point x="1208" y="0" type="line"/>
      <point x="1655" y="0" type="line"/>
      <point x="1176" y="764" type="line"/>
    </contour>
  </outline>
</glyph>
<glyph name="uni04AD" format="2">
  <advance width="1235"/>
  <unicode hex="04AD"/>
  <anchor x="618" y="-416" name="bottom"/>
  <anchor x="618" y="1133" name="top"/>
  <outline>
    <contour>
      <point x="1186" y="1133" type="line"/>
      <point x="49" y="1133" type="line"/>
      <point x="49" y="842" type="line"/>
      <point x="422" y="842" type="line"/>
      <point x="422" y="0" type="line"/>
      <point x="705" y="0" type="line"/>
      <point x="705" y="-416" type="line"/>
      <point x="1047" y="-416" type="line"/>
      <point x="1047" y="291" type="line"/>
      <point x="813" y="291" type="line"/>
      <point x="813" y="842" type="line"/>
      <point x="1186" y="842" type="line"/>
    </contour>
  </outline>
</glyph>
<glyph name="uni04F7" format="2">
  <advance width="1026"/>
  <unicode hex="04F7"/>
  <anchor x="514" y="-416" name="bottom"/>
  <anchor x="514" y="1133" name="top"/>
  <outline>
    <contour>
      <point x="977" y="1133" type="line"/>
      <point x="135" y="1133" type="line"/>
      <point x="135" y="0" type="line"/>
      <point x="438" y="0" type="line"/>
      <point x="438" y="-416" type="line"/>
      <point x="780" y="-416" type="line"/>
      <point x="780" y="291" type="line"/>
      <point x="526" y="291" type="line"/>
      <point x="526" y="842" type="line"/>
      <point x="977" y="842" type="line"/>
    </contour>
  </outline>
</glyph>
<glyph name="uni0505" format="2">
  <advance width="1843"/>
  <unicode hex="0505"/>
  <anchor x="922" y="0" name="bottom"/>
  <anchor x="922" y="1133" name="top"/>
  <outline>
    <contour>
      <point x="502" y="1153" type="curve" smooth="yes"/>
      <point x="332" y="1153"/>
      <point x="207" y="1124"/>
      <point x="72" y="1067" type="curve"/>
      <point x="182" y="803" type="line"/>
      <point x="287" y="850"/>
      <point x="377" y="874"/>
      <point x="485" y="874" type="curve" smooth="yes"/>
      <point x="592" y="874"/>
      <point x="635" y="846"/>
      <point x="635" y="799" type="curve" smooth="yes"/>
      <point x="635" y="741"/>
      <point x="578" y="715"/>
      <point x="416" y="715" type="curve" smooth="yes"/>
      <point x="293" y="715" type="line"/>
      <point x="293" y="461" type="line"/>
      <point x="440" y="461" type="line" smooth="yes"/>
      <point x="629" y="461"/>
      <point x="682" y="420"/>
      <point x="692" y="317" type="curve" smooth="yes"/>
      <point x="705" y="190"/>
      <point x="774" y="-20"/>
      <point x="1212" y="-20" type="curve" smooth="yes"/>
      <point x="1618" y="-20"/>
      <point x="1733" y="213"/>
      <point x="1733" y="416" type="curve" smooth="yes"/>
      <point x="1733" y="700" type="line"/>
      <point x="1341" y="700" type="line"/>
      <point x="1341" y="424" type="line" smooth="yes"/>
      <point x="1341" y="342"/>
      <point x="1298" y="283"/>
      <point x="1212" y="283" type="curve" smooth="yes"/>
      <point x="1126" y="283"/>
      <point x="1075" y="324"/>
      <point x="1069" y="377" type="curve" smooth="yes"/>
      <point x="1055" y="500"/>
      <point x="981" y="578"/>
      <point x="799" y="588" type="curve"/>
      <point x="799" y="598" type="line"/>
      <point x="922" y="631"/>
      <point x="1004" y="723"/>
      <point x="1004" y="846" type="curve" smooth="yes"/>
      <point x="1004" y="1069"/>
      <point x="780" y="1153"/>
    </contour>
  </outline>
</glyph>
<glyph name="uni050A" format="2">
  <advance width="2146"/>
  <unicode hex="050A"/>
  <anchor x="1073" y="0" name="bottom"/>
  <anchor x="1073" y="1462" name="top"/>
  <outline>
    <contour>
      <point x="1370" y="1462" type="line"/>
      <point x="973" y="1462" type="line"/>
      <point x="973" y="920" type="line"/>
      <point x="555" y="920" type="line"/>
      <point x="555" y="1462" type="line"/>
      <point x="158" y="1462" type="line"/>
      <point x="158" y="0" type="line"/>
      <point x="555" y="0" type="line"/>
      <point x="555" y="596" type="line"/>
      <point x="973" y="596" type="line"/>
      <point x="973" y="436" type="line" smooth="yes"/>
      <point x="973" y="111"/>
      <point x="1126" y="-20"/>
      <point x="1495" y="-20" type="curve" smooth="yes"/>
      <point x="1862" y="-20"/>
      <point x="2015" y="129"/>
      <point x="2015" y="459" type="curve" smooth="yes"/>
      <point x="2015" y="848" type="line"/>
      <point x="1618" y="848" type="line"/>
      <point x="1618" y="477" type="line" smooth="yes"/>
      <point x="1618" y="348"/>
      <point x="1583" y="305"/>
      <point x="1495" y="305" type="curve" smooth="yes"/>
      <point x="1397" y="305"/>
      <point x="1370" y="342"/>
      <point x="1370" y="481" type="curve" smooth="yes"/>
    </contour>
  </outline>
</glyph>
<glyph name="uni0524" format="2">
  <advance width="1700"/>
  <unicode hex="0524"/>
  <anchor x="758" y="-455" name="bottom"/>
  <anchor x="758" y="1462" name="top"/>
  <outline>
    <contour>
      <point x="1278" y="-455" type="line"/>
      <point x="1663" y="-455" type="line"/>
      <point x="1663" y="324" type="line"/>
      <point x="1356" y="324" type="line"/>
      <point x="1356" y="1462" type="line"/>
      <point x="158" y="1462" type="line"/>
      <point x="158" y="0" type="line"/>
      <point x="555" y="0" type="line"/>
      <point x="555" y="1139" type="line"/>
      <point x="958" y="1139" type="line"/>
      <point x="958" y="0" type="line"/>
      <point x="1278" y="0" type="line"/>
    </contour>
  </outline>
</glyph>
<glyph name="uni052C" format="2">
  <advance width="1667"/>
  <unicode hex="052C"/>
  <anchor x="834" y="-455" name="bottom"/>
  <anchor x="834" y="1462" name="top"/>
  <outline>
    <contour>
      <point x="8" y="-455" type="line"/>
      <point x="393" y="-455" type="line"/>
      <point x="393" y="0" type="line"/>
      <point x="1245" y="0" type="line"/>
      <point x="1245" y="-455" type="line"/>
      <point x="1630" y="-455" type="line"/>
      <point x="1630" y="324" type="line"/>
      <point x="1430" y="324" type="line"/>
      <point x="1430" y="1462" type="line"/>
      <point x="571" y="1462" type="line"/>
      <point x="555" y="1229"/>
      <point x="518" y="1006"/>
      <point x="455" y="803" type="curve"/>
      <point x="408" y="836"/>
      <point x="383" y="887"/>
      <point x="383" y="952" type="curve" smooth="yes"/>
      <point x="383" y="1462" type="line"/>
      <point x="23" y="1462" type="line"/>
      <point x="23" y="844" type="line" smooth="yes"/>
      <point x="23" y="659"/>
      <point x="123" y="535"/>
      <point x="324" y="481" type="curve"/>
      <point x="295" y="426"/>
      <point x="264" y="375"/>
      <point x="231" y="324" type="curve"/>
      <point x="8" y="324" type="line"/>
    </contour>
    <contour>
      <point x="614" y="324" type="line"/>
      <point x="639" y="369"/>
      <point x="662" y="414"/>
      <point x="682" y="459" type="curve"/>
      <point x="784" y="469"/>
      <point x="897" y="496"/>
      <point x="1032" y="541" type="curve"/>
      <point x="1032" y="324" type="line"/>
    </contour>
    <contour>
      <point x="784" y="760" type="curve"/>
      <point x="817" y="883"/>
      <point x="848" y="1010"/>
      <point x="858" y="1139" type="curve"/>
      <point x="1032" y="1139" type="line"/>
      <point x="1032" y="815" type="line"/>
      <point x="952" y="788"/>
      <point x="872" y="770"/>
    </contour>
  </outline>
</glyph>
<glyph name="uni052F" format="2">
  <advance width="1550"/>
  <unicode hex="052F"/>
  <anchor x="776" y="-416" name="bottom"/>
  <anchor x="776" y="1133" name="top"/>
  <outline>
    <contour>
      <point x="1018" y="0" type="line"/>
      <point x="1184" y="0" type="line"/>
      <point x="1184" y="-416" type="line"/>
      <point x="1526" y="-416" type="line"/>
      <point x="1526" y="272" type="line"/>
      <point x="1272" y="272" type="line"/>
    </contour>
    <component base="afii10077"/>
  </outline>
</glyph>
<glyph name="uni1AB4" format="2">
  <unicode hex="1AB4"/>
  <anchor x="0" y="1133" name="_top"/>
  <anchor x="4" y="1939" name="top"/>
  <outline>
    <contour>
      <point x="-412" y="1413" type="curve"/>
      <point x="-412" y="1307"/>
      <point x="-338" y="1257"/>
      <point x="-242" y="1257" type="curve" smooth="yes"/>
      <point x="-150" y="1257"/>
      <point x="-70" y="1307"/>
      <point x="-70" y="1413" type="curve" smooth="yes"/>
      <point x="-70" y="1522"/>
      <point x="-150" y="1571"/>
      <point x="-242" y="1571" type="curve" smooth="yes"/>
      <point x="-338" y="1571"/>
      <point x="-412" y="1522"/>
    </contour>
    <contour>
      <point x="68" y="1413" type="curve"/>
      <point x="68" y="1307"/>
      <point x="141" y="1257"/>
      <point x="240" y="1257" type="curve" smooth="yes"/>
      <point x="332" y="1257"/>
      <point x="412" y="1307"/>
      <point x="412" y="1413" type="curve" smooth="yes"/>
      <point x="412" y="1522"/>
      <point x="332" y="1571"/>
      <point x="240" y="1571" type="curve" smooth="yes"/>
      <point x="141" y="1571"/>
      <point x="68" y="1522"/>
    </contour>
    <contour>
      <point x="-170" y="1782" type="curve"/>
      <point x="-170" y="1675"/>
      <point x="-96" y="1626"/>
      <point x="2" y="1626" type="curve" smooth="yes"/>
      <point x="94" y="1626"/>
      <point x="174" y="1675"/>
      <point x="174" y="1782" type="curve" smooth="yes"/>
      <point x="174" y="1890"/>
      <point x="94" y="1939"/>
      <point x="2" y="1939" type="curve" smooth="yes"/>
      <point x="-96" y="1939"/>
      <point x="-170" y="1890"/>
    </contour>
  </outline>
</glyph>
<glyph name="uni1ABA" format="2">
  <unicode hex="1ABA"/>
  <anchor x="-18" y="0" name="_bottom"/>
  <anchor x="-14" y="-530" name="bottom"/>
  <outline>
    <contour>
      <point x="8" y="82" type="line"/>
      <point x="-135" y="-219" type="line"/>
      <point x="53" y="-289" type="line"/>
      <point x="229" y="82" type="line"/>
    </contour>
    <contour>
      <point x="-264" y="-360" type="curve" smooth="yes"/>
      <point x="-264" y="-475"/>
      <point x="-186" y="-530"/>
      <point x="-86" y="-530" type="curve" smooth="yes"/>
      <point x="10" y="-530"/>
      <point x="94" y="-475"/>
      <point x="94" y="-360" type="curve" smooth="yes"/>
      <point x="94" y="-250"/>
      <point x="12" y="-188"/>
      <point x="-88" y="-188" type="curve" smooth="yes"/>
      <point x="-178" y="-188"/>
      <point x="-264" y="-246"/>
    </contour>
  </outline>
</glyph>
<glyph name="uni1D0F" format="2">
  <advance width="1274"/>
  <unicode hex="1D0F"/>
  <anchor x="637" y="0" name="bottom"/>
  <anchor x="637" y="1133" name="top"/>
  <outline>
    <contour>
      <point x="1190" y="565" type="curve" smooth="yes"/>
      <point x="1190" y="915"/>
      <point x="1028" y="1143"/>
      <point x="637" y="1143" type="curve" smooth="yes"/>
      <point x="252" y="1143"/>
      <point x="82" y="915"/>
      <point x="82" y="565" type="curve" smooth="yes"/>
      <point x="82" y="215"/>
      <point x="252" y="-16"/>
      <point x="635" y="-16" type="curve" smooth="yes"/>
      <point x="1028" y="-16"/>
      <point x="1190" y="215"/>
    </contour>
    <contour>
      <point x="406" y="565" type="curve" smooth="yes"/>
      <point x="406" y="768"/>
      <point x="469" y="895"/>
      <point x="637" y="895" type="curve" smooth="yes"/>
      <point x="805" y="895"/>
      <point x="866" y="768"/>
      <point x="866" y="565" type="curve" smooth="yes"/>
      <point x="866" y="360"/>
      <point x="805" y="238"/>
      <point x="635" y="238" type="curve" smooth="yes"/>
      <point x="471" y="238"/>
      <point x="406" y="360"/>
    </contour>
  </outline>
</glyph>
<glyph name="uni1D23" format="2">
  <advance width="1014"/>
  <unicode hex="1D23"/>
  <anchor x="508" y="0" name="bottom"/>
  <anchor x="508" y="1133" name="top"/>
  <outline>
    <contour>
      <point x="874" y="1126" type="line"/>
      <point x="100" y="1126" type="line"/>
      <point x="100" y="877" type="line"/>
      <point x="467" y="877" type="line"/>
      <point x="227" y="668" type="line"/>
      <point x="227" y="463" type="line"/>
      <point x="315" y="463" type="line" smooth="yes"/>
      <point x="567" y="463"/>
      <point x="623" y="416"/>
      <point x="623" y="354" type="curve" smooth="yes"/>
      <point x="623" y="285"/>
      <point x="575" y="233"/>
      <point x="399" y="233" type="curve" smooth="yes"/>
      <point x="303" y="233"/>
      <point x="168" y="258"/>
      <point x="57" y="307" type="curve"/>
      <point x="57" y="45" type="line"/>
      <point x="162" y="8"/>
      <point x="287" y="-16"/>
      <point x="424" y="-16" type="curve" smooth="yes"/>
      <point x="780" y="-16"/>
      <point x="940" y="133"/>
      <point x="940" y="346" type="curve" smooth="yes"/>
      <point x="940" y="528"/>
      <point x="799" y="653"/>
      <point x="559" y="666" type="curve"/>
      <point x="874" y="938" type="line"/>
    </contour>
  </outline>
</glyph>
<glyph name="uni1D6B" format="2">
  <advance width="2036"/>
  <unicode hex="1D6B"/>
  <anchor x="1047" y="0" name="bottom"/>
  <anchor x="1049" y="1133" name="top"/>
  <outline>
    <contour>
      <point x="1960" y="463" type="line"/>
      <point x="1960" y="637" type="line" smooth="yes"/>
      <point x="1960" y="965"/>
      <point x="1757" y="1151"/>
      <point x="1477" y="1151" type="curve"/>
      <point x="1405" y="1151"/>
      <point x="1315" y="1137"/>
      <point x="1266" y="1104" type="curve"/>
      <point x="1266" y="1130" type="line"/>
      <point x="879" y="1130" type="line"/>
      <point x="879" y="569" type="line" smooth="yes"/>
      <point x="879" y="348"/>
      <point x="817" y="287"/>
      <point x="707" y="287" type="curve"/>
      <point x="578" y="287"/>
      <point x="532" y="356"/>
      <point x="532" y="569" type="curve"/>
      <point x="532" y="1130" type="line"/>
      <point x="145" y="1130" type="line"/>
      <point x="145" y="584" type="line" smooth="yes"/>
      <point x="145" y="256"/>
      <point x="229" y="-25"/>
      <point x="664" y="-25" type="curve"/>
      <point x="883" y="-25"/>
      <point x="989" y="63"/>
      <point x="1059" y="160" type="curve"/>
      <point x="1151" y="45"/>
      <point x="1288" y="-20"/>
      <point x="1473" y="-20" type="curve"/>
      <point x="1659" y="-20"/>
      <point x="1778" y="6"/>
      <point x="1886" y="66" type="curve"/>
      <point x="1886" y="350" type="line"/>
      <point x="1755" y="285"/>
      <point x="1636" y="254"/>
      <point x="1491" y="254" type="curve"/>
      <point x="1348" y="254"/>
      <point x="1262" y="344"/>
      <point x="1257" y="463" type="curve"/>
    </contour>
    <contour>
      <point x="1608" y="705" type="curve"/>
      <point x="1266" y="705" type="line"/>
      <point x="1274" y="844"/>
      <point x="1352" y="889"/>
      <point x="1430" y="889" type="curve" smooth="yes"/>
      <point x="1548" y="889"/>
      <point x="1606" y="807"/>
    </contour>
  </outline>
</glyph>
<glyph name="uni1D6C" format="2">
  <advance width="1321"/>
  <unicode hex="1D6C"/>
  <anchor x="694" y="6" name="bottom"/>
  <anchor x="729" y="1579" name="top"/>
  <outline>
    <contour>
      <point x="1241" y="569" type="curve"/>
      <point x="1241" y="983"/>
      <point x="1075" y="1120"/>
      <point x="840" y="1120" type="curve"/>
      <point x="684" y="1120"/>
      <point x="594" y="1044"/>
      <point x="537" y="952" type="curve"/>
      <point x="522" y="952" type="line"/>
      <point x="528" y="1014"/>
      <point x="537" y="1071"/>
      <point x="537" y="1157" type="curve" smooth="yes"/>
      <point x="537" y="1190" type="line"/>
      <point x="545" y="1188"/>
      <point x="559" y="1186"/>
      <point x="569" y="1186" type="curve"/>
      <point x="723" y="1186"/>
      <point x="858" y="1292"/>
      <point x="856" y="1522" type="curve"/>
      <point x="676" y="1522" type="line"/>
      <point x="668" y="1452"/>
      <point x="633" y="1417"/>
      <point x="588" y="1417" type="curve"/>
      <point x="567" y="1417"/>
      <point x="549" y="1417"/>
      <point x="537" y="1417" type="curve"/>
      <point x="537" y="1556" type="line"/>
      <point x="150" y="1556" type="line"/>
      <point x="150" y="1518" type="line"/>
      <point x="143" y="1518"/>
      <point x="133" y="1520"/>
      <point x="123" y="1520" type="curve"/>
      <point x="-37" y="1520"/>
      <point x="-162" y="1413"/>
      <point x="-162" y="1184" type="curve"/>
      <point x="16" y="1184" type="line"/>
      <point x="18" y="1247"/>
      <point x="53" y="1288"/>
      <point x="98" y="1288" type="curve"/>
      <point x="117" y="1288"/>
      <point x="129" y="1288"/>
      <point x="150" y="1284" type="curve"/>
      <point x="150" y="0" type="line"/>
      <point x="453" y="0" type="line"/>
      <point x="512" y="113" type="line"/>
      <point x="537" y="113" type="line"/>
      <point x="594" y="47"/>
      <point x="668" y="-20"/>
      <point x="825" y="-20" type="curve"/>
      <point x="1073" y="-20"/>
      <point x="1241" y="182"/>
    </contour>
    <contour>
      <point x="850" y="575" type="curve" smooth="yes"/>
      <point x="850" y="385"/>
      <point x="788" y="291"/>
      <point x="680" y="291" type="curve" smooth="yes"/>
      <point x="578" y="291"/>
      <point x="537" y="373"/>
      <point x="537" y="535" type="curve" smooth="yes"/>
      <point x="537" y="567" type="line" smooth="yes"/>
      <point x="537" y="717"/>
      <point x="582" y="815"/>
      <point x="692" y="815" type="curve" smooth="yes"/>
      <point x="776" y="815"/>
      <point x="850" y="760"/>
    </contour>
  </outline>
</glyph>
<glyph name="uni1D75" format="2">
  <advance width="942"/>
  <unicode hex="1D75"/>
  <outline>
    <contour>
      <point x="561" y="-20" type="curve" smooth="yes"/>
      <point x="709" y="-20"/>
      <point x="793" y="6"/>
      <point x="879" y="43" type="curve"/>
      <point x="879" y="328" type="line"/>
      <point x="815" y="305"/>
      <point x="758" y="289"/>
      <point x="688" y="289" type="curve" smooth="yes"/>
      <point x="627" y="289"/>
      <point x="584" y="313"/>
      <point x="584" y="373" type="curve" smooth="yes"/>
      <point x="584" y="387" type="line"/>
      <point x="598" y="385"/>
      <point x="612" y="383"/>
      <point x="621" y="383" type="curve" smooth="yes"/>
      <point x="770" y="383"/>
      <point x="895" y="489"/>
      <point x="895" y="719" type="curve"/>
      <point x="715" y="719" type="line"/>
      <point x="707" y="649"/>
      <point x="672" y="618"/>
      <point x="627" y="618" type="curve" smooth="yes"/>
      <point x="612" y="618"/>
      <point x="596" y="621"/>
      <point x="584" y="623" type="curve"/>
      <point x="584" y="840" type="line"/>
      <point x="862" y="840" type="line"/>
      <point x="862" y="1133" type="line"/>
      <point x="584" y="1133" type="line"/>
      <point x="584" y="1360" type="line"/>
      <point x="328" y="1360" type="line"/>
      <point x="227" y="1122" type="line"/>
      <point x="53" y="999" type="line"/>
      <point x="53" y="840" type="line"/>
      <point x="190" y="840" type="line"/>
      <point x="190" y="715" type="line"/>
      <point x="180" y="715"/>
      <point x="170" y="717"/>
      <point x="160" y="717" type="curve" smooth="yes"/>
      <point x="0" y="717"/>
      <point x="-125" y="610"/>
      <point x="-125" y="381" type="curve"/>
      <point x="55" y="381" type="line"/>
      <point x="57" y="444"/>
      <point x="92" y="483"/>
      <point x="135" y="483" type="curve" smooth="yes"/>
      <point x="152" y="483"/>
      <point x="172" y="481"/>
      <point x="190" y="477" type="curve"/>
      <point x="190" y="373" type="line" smooth="yes"/>
      <point x="190" y="66"/>
      <point x="340" y="-20"/>
    </contour>
  </outline>
</glyph>
<glyph name="uni1D83" format="2">
  <advance width="1790"/>
  <unicode hex="1D83"/>
  <outline>
    <contour>
      <point x="1151" y="252" type="line"/>
      <point x="1151" y="0" type="line"/>
      <point x="1440" y="0" type="line"/>
      <point x="1440" y="-61" type="line" smooth="yes"/>
      <point x="1440" y="-162"/>
      <point x="1407" y="-188"/>
      <point x="1335" y="-188" type="curve"/>
      <point x="1307" y="-188"/>
      <point x="1272" y="-182"/>
      <point x="1239" y="-170" type="curve"/>
      <point x="1239" y="-424" type="line"/>
      <point x="1296" y="-444"/>
      <point x="1358" y="-453"/>
      <point x="1430" y="-453" type="curve"/>
      <point x="1638" y="-453"/>
      <point x="1755" y="-342"/>
      <point x="1755" y="-68" type="curve"/>
      <point x="1755" y="252" type="line"/>
    </contour>
    <component base="g.salt"/>
  </outline>
</glyph>
<glyph name="uni1D93" format="2">
  <advance width="1135"/>
  <unicode hex="1D93"/>
  <outline>
    <contour>
      <point x="1063" y="-465" type="curve" smooth="yes"/>
      <point x="1135" y="-465"/>
      <point x="1208" y="-453"/>
      <point x="1264" y="-436" type="curve"/>
      <point x="1264" y="-184" type="line"/>
      <point x="1231" y="-197"/>
      <point x="1200" y="-203"/>
      <point x="1163" y="-203" type="curve" smooth="yes"/>
      <point x="1098" y="-203"/>
      <point x="1063" y="-176"/>
      <point x="1063" y="-92" type="curve" smooth="yes"/>
      <point x="1063" y="358" type="line"/>
      <point x="969" y="315"/>
      <point x="831" y="270"/>
      <point x="662" y="270" type="curve" smooth="yes"/>
      <point x="477" y="270"/>
      <point x="455" y="330"/>
      <point x="455" y="367" type="curve" smooth="yes"/>
      <point x="455" y="428"/>
      <point x="494" y="461"/>
      <point x="694" y="461" type="curve" smooth="yes"/>
      <point x="842" y="461" type="line"/>
      <point x="842" y="715" type="line"/>
      <point x="719" y="715" type="line" smooth="yes"/>
      <point x="557" y="715"/>
      <point x="500" y="741"/>
      <point x="500" y="799" type="curve" smooth="yes"/>
      <point x="500" y="846"/>
      <point x="543" y="874"/>
      <point x="649" y="874" type="curve" smooth="yes"/>
      <point x="758" y="874"/>
      <point x="848" y="850"/>
      <point x="952" y="803" type="curve"/>
      <point x="1063" y="1067" type="line"/>
      <point x="928" y="1124"/>
      <point x="803" y="1153"/>
      <point x="633" y="1153" type="curve" smooth="yes"/>
      <point x="354" y="1153"/>
      <point x="131" y="1069"/>
      <point x="131" y="846" type="curve" smooth="yes"/>
      <point x="131" y="723"/>
      <point x="213" y="631"/>
      <point x="336" y="598" type="curve"/>
      <point x="336" y="588" type="line"/>
      <point x="156" y="563"/>
      <point x="63" y="453"/>
      <point x="63" y="322" type="curve" smooth="yes"/>
      <point x="63" y="102"/>
      <point x="211" y="-20"/>
      <point x="604" y="-20" type="curve" smooth="yes"/>
      <point x="657" y="-20"/>
      <point x="707" y="-16"/>
      <point x="750" y="-12" type="curve"/>
      <point x="750" y="-125" type="line" smooth="yes"/>
      <point x="750" y="-365"/>
      <point x="870" y="-465"/>
    </contour>
  </outline>
</glyph>
<glyph name="uni1D94" format="2">
  <advance width="1114"/>
  <unicode hex="1D94"/>
  <outline>
    <contour>
      <point x="385" y="-514" type="curve" smooth="yes"/>
      <point x="457" y="-514"/>
      <point x="530" y="-502"/>
      <point x="586" y="-485" type="curve"/>
      <point x="586" y="-225" type="line"/>
      <point x="553" y="-238"/>
      <point x="522" y="-244"/>
      <point x="485" y="-244" type="curve" smooth="yes"/>
      <point x="420" y="-244"/>
      <point x="385" y="-217"/>
      <point x="385" y="-133" type="curve" smooth="yes"/>
      <point x="385" y="-16" type="line"/>
      <point x="416" y="-18"/>
      <point x="446" y="-20"/>
      <point x="483" y="-20" type="curve" smooth="yes"/>
      <point x="877" y="-20"/>
      <point x="1051" y="102"/>
      <point x="1051" y="322" type="curve" smooth="yes"/>
      <point x="1051" y="453"/>
      <point x="979" y="563"/>
      <point x="799" y="588" type="curve"/>
      <point x="799" y="598" type="line"/>
      <point x="922" y="631"/>
      <point x="1004" y="723"/>
      <point x="1004" y="846" type="curve" smooth="yes"/>
      <point x="1004" y="1069"/>
      <point x="780" y="1153"/>
      <point x="502" y="1153" type="curve" smooth="yes"/>
      <point x="332" y="1153"/>
      <point x="207" y="1124"/>
      <point x="72" y="1067" type="curve"/>
      <point x="182" y="803" type="line"/>
      <point x="287" y="850"/>
      <point x="377" y="874"/>
      <point x="485" y="874" type="curve" smooth="yes"/>
      <point x="592" y="874"/>
      <point x="635" y="846"/>
      <point x="635" y="799" type="curve" smooth="yes"/>
      <point x="635" y="741"/>
      <point x="578" y="715"/>
      <point x="416" y="715" type="curve" smooth="yes"/>
      <point x="293" y="715" type="line"/>
      <point x="293" y="461" type="line"/>
      <point x="440" y="461" type="line" smooth="yes"/>
      <point x="629" y="461"/>
      <point x="659" y="428"/>
      <point x="659" y="367" type="curve" smooth="yes"/>
      <point x="659" y="330"/>
      <point x="635" y="270"/>
      <point x="461" y="270" type="curve" smooth="yes"/>
      <point x="291" y="270"/>
      <point x="162" y="311"/>
      <point x="72" y="342" type="curve"/>
      <point x="72" y="-166" type="line" smooth="yes"/>
      <point x="72" y="-406"/>
      <point x="193" y="-514"/>
    </contour>
  </outline>
</glyph>
<glyph name="ogonekabove" format="2">
  <unicode hex="1DCE"/>
  <anchor x="-584" y="1133" name="_top"/>
  <anchor x="-580" y="1681" name="top"/>
  <outline>
    <contour>
      <point x="-594" y="1350" type="curve" smooth="yes"/>
      <point x="-594" y="1262"/>
      <point x="-664" y="1176"/>
      <point x="-780" y="1065" type="curve"/>
      <point x="-612" y="1022" type="line"/>
      <point x="-457" y="1108"/>
      <point x="-330" y="1245"/>
      <point x="-330" y="1393" type="curve" smooth="yes"/>
      <point x="-330" y="1563"/>
      <point x="-451" y="1681"/>
      <point x="-643" y="1681" type="curve" smooth="yes"/>
      <point x="-725" y="1681"/>
      <point x="-784" y="1669"/>
      <point x="-838" y="1653" type="curve"/>
      <point x="-838" y="1430" type="line"/>
      <point x="-805" y="1440"/>
      <point x="-748" y="1452"/>
      <point x="-694" y="1452" type="curve" smooth="yes"/>
      <point x="-635" y="1452"/>
      <point x="-594" y="1419"/>
    </contour>
  </outline>
</glyph>
<glyph name="uni1E11" format="2">
  <advance width="1317"/>
  <unicode hex="1E11"/>
  <anchor x="643" y="-492" name="bottom"/>
  <anchor x="479" y="1556" name="top"/>
  <outline>
    <contour>
      <point x="889" y="-252" type="curve" smooth="yes"/>
      <point x="889" y="-121"/>
      <point x="782" y="-80"/>
      <point x="700" y="-61" type="curve"/>
      <point x="748" y="92" type="line"/>
      <point x="553" y="92" type="line"/>
      <point x="463" y="-139" type="line"/>
      <point x="567" y="-158"/>
      <point x="608" y="-182"/>
      <point x="608" y="-229" type="curve" smooth="yes"/>
      <point x="608" y="-264"/>
      <point x="578" y="-287"/>
      <point x="526" y="-287" type="curve" smooth="yes"/>
      <point x="481" y="-287"/>
      <point x="438" y="-279"/>
      <point x="393" y="-264" type="curve"/>
      <point x="393" y="-457" type="line"/>
      <point x="442" y="-475"/>
      <point x="520" y="-492"/>
      <point x="614" y="-492" type="curve" smooth="yes"/>
      <point x="780" y="-492"/>
      <point x="889" y="-397"/>
    </contour>
    <component base="d"/>
  </outline>
</glyph>
<glyph name="uni1FDF" format="2">
  <advance width="1229"/>
  <unicode hex="1FDF"/>
  <anchor x="618" y="1133" name="_top"/>
  <anchor x="627" y="1825" name="top"/>
  <outline>
    <contour>
      <point x="233" y="1565" type="curve"/>
      <point x="389" y="1565" type="line"/>
      <point x="406" y="1634"/>
      <point x="434" y="1642"/>
      <point x="459" y="1642" type="curve"/>
      <point x="555" y="1642"/>
      <point x="676" y="1567"/>
      <point x="791" y="1567" type="curve" smooth="yes"/>
      <point x="899" y="1567"/>
      <point x="993" y="1642"/>
      <point x="1012" y="1825" type="curve"/>
      <point x="854" y="1825" type="line"/>
      <point x="840" y="1757"/>
      <point x="809" y="1747"/>
      <point x="784" y="1747" type="curve" smooth="yes"/>
      <point x="684" y="1747"/>
      <point x="557" y="1823"/>
      <point x="459" y="1823" type="curve" smooth="yes"/>
      <point x="336" y="1823"/>
      <point x="250" y="1751"/>
    </contour>
    <contour>
      <point x="758" y="1194" type="curve"/>
      <point x="758" y="1280" type="line"/>
      <point x="692" y="1284"/>
      <point x="676" y="1305"/>
      <point x="676" y="1335" type="curve" smooth="yes"/>
      <point x="676" y="1389"/>
      <point x="774" y="1368"/>
      <point x="774" y="1448" type="curve" smooth="yes"/>
      <point x="774" y="1505"/>
      <point x="729" y="1552"/>
      <point x="633" y="1552" type="curve" smooth="yes"/>
      <point x="518" y="1552"/>
      <point x="461" y="1493"/>
      <point x="461" y="1397" type="curve" smooth="yes"/>
      <point x="461" y="1276"/>
      <point x="571" y="1194"/>
    </contour>
  </outline>
</glyph>
<glyph name="quoteleft" format="2">
  <advance width="512"/>
  <unicode hex="2018"/>
  <outline>
    <contour>
      <point x="35" y="877" type="line"/>
      <point x="377" y="877" type="line"/>
      <point x="395" y="1040"/>
      <point x="436" y="1274"/>
      <point x="475" y="1460" type="curve"/>
      <point x="197" y="1460" type="line"/>
      <point x="129" y="1309"/>
      <point x="57" y="1047"/>
      <point x="20" y="899" type="curve"/>
    </contour>
  </outline>
</glyph>
<glyph name="dagger" format="2">
  <advance width="1051"/>
  <unicode hex="2020"/>
  <outline>
    <contour>
      <point x="940" y="883" type="line"/>
      <point x="940" y="1169" type="line"/>
      <point x="621" y="1139" type="line"/>
      <point x="680" y="1556" type="line"/>
      <point x="350" y="1556" type="line"/>
      <point x="410" y="1139" type="line"/>
      <point x="111" y="1169" type="line"/>
      <point x="111" y="883" type="line"/>
      <point x="410" y="913" type="line"/>
      <point x="350" y="0" type="line"/>
      <point x="680" y="0" type="line"/>
      <point x="621" y="913" type="line"/>
    </contour>
  </outline>
</glyph>
<glyph name="bullet" format="2">
  <advance width="803"/>
  <unicode hex="2022"/>
  <outline>
    <contour>
      <point x="74" y="748" type="curve" smooth="yes"/>
      <point x="74" y="492"/>
      <point x="217" y="387"/>
      <point x="401" y="387" type="curve" smooth="yes"/>
      <point x="582" y="387"/>
      <point x="729" y="492"/>
      <point x="729" y="748" type="curve" smooth="yes"/>
      <point x="729" y="1008"/>
      <point x="582" y="1108"/>
      <point x="401" y="1108" type="curve" smooth="yes"/>
      <point x="217" y="1108"/>
      <point x="74" y="1008"/>
    </contour>
  </outline>
</glyph>
<glyph name="swungdash" format="2">
  <advance width="2048"/>
  <unicode hex="2053"/>
  <outline>
    <contour>
      <point x="1573" y="664" type="curve" smooth="yes"/>
      <point x="1329" y="664"/>
      <point x="827" y="809"/>
      <point x="545" y="809" type="curve" smooth="yes"/>
      <point x="262" y="809"/>
      <point x="61" y="645"/>
      <point x="43" y="393" type="curve"/>
      <point x="252" y="393" type="line"/>
      <point x="274" y="471"/>
      <point x="362" y="520"/>
      <point x="494" y="520" type="curve" smooth="yes"/>
      <point x="731" y="520"/>
      <point x="1245" y="375"/>
      <point x="1522" y="375" type="curve" smooth="yes"/>
      <point x="1804" y="375"/>
      <point x="2005" y="539"/>
      <point x="2023" y="791" type="curve"/>
      <point x="1815" y="791" type="line"/>
      <point x="1792" y="713"/>
      <point x="1704" y="664"/>
    </contour>
  </outline>
</glyph>
<glyph name="dottedcross" format="2">
  <advance width="1737"/>
  <unicode hex="205C"/>
  <outline>
    <contour>
      <point x="737" y="-76" type="line"/>
      <point x="1006" y="-78" type="line"/>
      <point x="1006" y="592" type="line"/>
      <point x="1692" y="592" type="line"/>
      <point x="1694" y="860" type="line"/>
      <point x="1006" y="860" type="line"/>
      <point x="1006" y="1528" type="line"/>
      <point x="737" y="1526" type="line"/>
      <point x="737" y="860" type="line"/>
      <point x="43" y="860" type="line"/>
      <point x="45" y="592" type="line"/>
      <point x="737" y="592" type="line"/>
    </contour>
    <contour>
      <point x="365" y="43" type="curve" smooth="yes"/>
      <point x="475" y="43"/>
      <point x="569" y="98"/>
      <point x="569" y="233" type="curve" smooth="yes"/>
      <point x="569" y="375"/>
      <point x="475" y="426"/>
      <point x="365" y="426" type="curve" smooth="yes"/>
      <point x="248" y="426"/>
      <point x="152" y="375"/>
      <point x="152" y="233" type="curve" smooth="yes"/>
      <point x="152" y="98"/>
      <point x="248" y="43"/>
    </contour>
    <contour>
      <point x="1389" y="43" type="curve" smooth="yes"/>
      <point x="1499" y="43"/>
      <point x="1593" y="98"/>
      <point x="1593" y="233" type="curve" smooth="yes"/>
      <point x="1593" y="375"/>
      <point x="1499" y="426"/>
      <point x="1389" y="426" type="curve" smooth="yes"/>
      <point x="1272" y="426"/>
      <point x="1176" y="375"/>
      <point x="1176" y="233" type="curve" smooth="yes"/>
      <point x="1176" y="98"/>
      <point x="1272" y="43"/>
    </contour>
    <contour>
      <point x="365" y="1034" type="curve" smooth="yes"/>
      <point x="475" y="1034"/>
      <point x="569" y="1090"/>
      <point x="569" y="1225" type="curve" smooth="yes"/>
      <point x="569" y="1366"/>
      <point x="475" y="1417"/>
      <point x="365" y="1417" type="curve" smooth="yes"/>
      <point x="248" y="1417"/>
      <point x="152" y="1366"/>
      <point x="152" y="1225" type="curve" smooth="yes"/>
      <point x="152" y="1090"/>
      <point x="248" y="1034"/>
    </contour>
    <contour>
      <point x="1389" y="1034" type="curve" smooth="yes"/>
      <point x="1499" y="1034"/>
      <point x="1593" y="1085"/>
      <point x="1593" y="1225" type="curve" smooth="yes"/>
      <point x="1593" y="1366"/>
      <point x="1499" y="1417"/>
      <point x="1389" y="1417" type="curve" smooth="yes"/>
      <point x="1272" y="1417"/>
      <point x="1176" y="1366"/>
      <point x="1176" y="1225" type="curve" smooth="yes"/>
      <point x="1176" y="1090"/>
      <point x="1272" y="1034"/>
    </contour>
  </outline>
</glyph>
<glyph name="planckconstantovertwopi" format="2">
  <advance width="1393"/>
  <unicode hex="210F"/>
  <outline>
    <contour>
      <point x="94" y="0" type="line"/>
      <point x="485" y="0" type="line"/>
      <point x="549" y="397" type="line" smooth="yes"/>
      <point x="584" y="621"/>
      <point x="649" y="745"/>
      <point x="791" y="745" type="curve" smooth="yes"/>
      <point x="858" y="745"/>
      <point x="901" y="702"/>
      <point x="901" y="629" type="curve" smooth="yes"/>
      <point x="901" y="594"/>
      <point x="895" y="549"/>
      <point x="891" y="518" type="curve" smooth="yes"/>
      <point x="807" y="0" type="line"/>
      <point x="1200" y="0" type="line"/>
      <point x="1303" y="637" type="line" smooth="yes"/>
      <point x="1309" y="672"/>
      <point x="1311" y="702"/>
      <point x="1311" y="731" type="curve" smooth="yes"/>
      <point x="1311" y="956"/>
      <point x="1155" y="1053"/>
      <point x="969" y="1053" type="curve" smooth="yes"/>
      <point x="811" y="1053"/>
      <point x="702" y="989"/>
      <point x="633" y="905" type="curve"/>
      <point x="614" y="905" type="line"/>
      <point x="631" y="969"/>
      <point x="651" y="1049"/>
      <point x="659" y="1098" type="curve" smooth="yes"/>
      <point x="670" y="1167" type="line"/>
      <point x="924" y="1167" type="line"/>
      <point x="963" y="1409" type="line"/>
      <point x="709" y="1409" type="line"/>
      <point x="731" y="1556" type="line"/>
      <point x="340" y="1556" type="line"/>
      <point x="317" y="1409" type="line"/>
      <point x="182" y="1409" type="line"/>
      <point x="143" y="1167" type="line"/>
      <point x="279" y="1167" type="line"/>
    </contour>
  </outline>
</glyph>
<glyph name="afii61289" format="2">
  <advance width="1200"/>
  <unicode hex="2113"/>
  <outline>
    <contour>
      <point x="707" y="240" type="curve" smooth="yes"/>
      <point x="639" y="240"/>
      <point x="610" y="281"/>
      <point x="610" y="397" type="curve" smooth="yes"/>
      <point x="610" y="580" type="line"/>
      <point x="967" y="686"/>
      <point x="1094" y="879"/>
      <point x="1094" y="1092" type="curve" smooth="yes"/>
      <point x="1094" y="1348"/>
      <point x="938" y="1479"/>
      <point x="680" y="1479" type="curve" smooth="yes"/>
      <point x="342" y="1479"/>
      <point x="231" y="1294"/>
      <point x="231" y="1063" type="curve" smooth="yes"/>
      <point x="231" y="733" type="line"/>
      <point x="172" y="717"/>
      <point x="115" y="702"/>
      <point x="55" y="686" type="curve"/>
      <point x="55" y="432" type="line"/>
      <point x="115" y="449"/>
      <point x="172" y="463"/>
      <point x="231" y="479" type="curve"/>
      <point x="231" y="420" type="line" smooth="yes"/>
      <point x="231" y="150"/>
      <point x="383" y="-16"/>
      <point x="639" y="-16" type="curve" smooth="yes"/>
      <point x="995" y="-16"/>
      <point x="1098" y="152"/>
      <point x="1098" y="434" type="curve"/>
      <point x="799" y="434" type="line"/>
      <point x="799" y="313"/>
      <point x="776" y="240"/>
    </contour>
    <contour>
      <point x="748" y="1102" type="curve" smooth="yes"/>
      <point x="748" y="969"/>
      <point x="700" y="887"/>
      <point x="610" y="844" type="curve"/>
      <point x="610" y="1124" type="line" smooth="yes"/>
      <point x="610" y="1204"/>
      <point x="629" y="1239"/>
      <point x="680" y="1239" type="curve" smooth="yes"/>
      <point x="729" y="1239"/>
      <point x="748" y="1194"/>
    </contour>
  </outline>
</glyph>
<glyph name="afii61352" format="2">
  <advance width="2245"/>
  <unicode hex="2116"/>
  <outline>
    <contour>
      <point x="143" y="0" type="line"/>
      <point x="496" y="0" type="line"/>
      <point x="496" y="471" type="line" smooth="yes"/>
      <point x="496" y="590"/>
      <point x="485" y="788"/>
      <point x="477" y="903" type="curve"/>
      <point x="496" y="903" type="line"/>
      <point x="858" y="0" type="line"/>
      <point x="1305" y="0" type="line"/>
      <point x="1305" y="1462" type="line"/>
      <point x="952" y="1462" type="line"/>
      <point x="952" y="989" type="line" smooth="yes"/>
      <point x="952" y="850"/>
      <point x="963" y="670"/>
      <point x="969" y="573" type="curve"/>
      <point x="944" y="573" type="line"/>
      <point x="588" y="1462" type="line"/>
      <point x="143" y="1462" type="line"/>
    </contour>
    <contour>
      <point x="1438" y="0" type="line"/>
      <point x="2154" y="0" type="line"/>
      <point x="2154" y="221" type="line"/>
      <point x="1438" y="221" type="line"/>
    </contour>
    <contour>
      <point x="1792" y="305" type="curve" smooth="yes"/>
      <point x="2015" y="305"/>
      <point x="2159" y="444"/>
      <point x="2159" y="682" type="curve" smooth="yes"/>
      <point x="2159" y="915"/>
      <point x="2001" y="1055"/>
      <point x="1796" y="1055" type="curve" smooth="yes"/>
      <point x="1573" y="1055"/>
      <point x="1427" y="918"/>
      <point x="1427" y="682" type="curve" smooth="yes"/>
      <point x="1427" y="446"/>
      <point x="1583" y="305"/>
    </contour>
    <contour>
      <point x="1794" y="510" type="curve" smooth="yes"/>
      <point x="1724" y="510"/>
      <point x="1694" y="563"/>
      <point x="1694" y="678" type="curve" smooth="yes"/>
      <point x="1694" y="793"/>
      <point x="1724" y="850"/>
      <point x="1794" y="850" type="curve" smooth="yes"/>
      <point x="1862" y="850"/>
      <point x="1892" y="793"/>
      <point x="1892" y="678" type="curve" smooth="yes"/>
      <point x="1892" y="563"/>
      <point x="1862" y="510"/>
    </contour>
  </outline>
</glyph>
<glyph name="prescription" format="2">
  <advance width="1559"/>
  <unicode hex="211E"/>
  <outline>
    <contour>
      <point x="158" y="0" type="line"/>
      <point x="553" y="0" type="line"/>
      <point x="553" y="565" type="line"/>
      <point x="647" y="565" type="line"/>
      <point x="842" y="315" type="line"/>
      <point x="606" y="0" type="line"/>
      <point x="944" y="0" type="line"/>
      <point x="1022" y="113" type="line"/>
      <point x="1106" y="0" type="line"/>
      <point x="1493" y="0" type="line"/>
      <point x="1249" y="319" type="line"/>
      <point x="1528" y="659" type="line"/>
      <point x="1184" y="659" type="line"/>
      <point x="1079" y="520" type="line"/>
      <point x="965" y="670" type="line"/>
      <point x="1139" y="748"/>
      <point x="1233" y="879"/>
      <point x="1233" y="1040" type="curve" smooth="yes"/>
      <point x="1233" y="1315"/>
      <point x="1034" y="1462"/>
      <point x="637" y="1462" type="curve" smooth="yes"/>
      <point x="158" y="1462" type="line"/>
    </contour>
    <contour>
      <point x="553" y="862" type="line"/>
      <point x="553" y="1163" type="line"/>
      <point x="631" y="1163" type="line" smooth="yes"/>
      <point x="774" y="1163"/>
      <point x="834" y="1106"/>
      <point x="834" y="1022" type="curve" smooth="yes"/>
      <point x="834" y="907"/>
      <point x="748" y="862"/>
      <point x="627" y="862" type="curve" smooth="yes"/>
    </contour>
  </outline>
</glyph>
<glyph name="response" format="2">
  <advance width="1229"/>
  <unicode hex="211F"/>
  <outline>
    <contour>
      <point x="786" y="1550" type="line"/>
      <point x="350" y="-297" type="line"/>
      <point x="492" y="-297" type="line"/>
      <point x="952" y="1649" type="line"/>
      <point x="373" y="1798" type="line"/>
      <point x="336" y="1657" type="line"/>
    </contour>
    <component base="R"/>
  </outline>
</glyph>
<glyph name="onethird" format="2">
  <advance width="1892"/>
  <unicode hex="2153"/>
  <outline>
    <contour>
      <point x="383" y="0" type="line"/>
      <point x="684" y="0" type="line"/>
      <point x="1438" y="1462" type="line"/>
      <point x="1137" y="1462" type="line"/>
    </contour>
    <contour>
      <point x="334" y="586" type="line"/>
      <point x="616" y="586" type="line"/>
      <point x="616" y="1462" type="line"/>
      <point x="397" y="1462" type="line"/>
      <point x="57" y="1188" type="line"/>
      <point x="203" y="1018" type="line"/>
      <point x="297" y="1106" type="line" smooth="yes"/>
      <point x="313" y="1120"/>
      <point x="332" y="1141"/>
      <point x="344" y="1159" type="curve"/>
      <point x="338" y="1114"/>
      <point x="334" y="1053"/>
      <point x="334" y="983" type="curve" smooth="yes"/>
    </contour>
    <contour>
      <point x="1454" y="-16" type="curve" smooth="yes"/>
      <point x="1692" y="-16"/>
      <point x="1829" y="76"/>
      <point x="1829" y="238" type="curve" smooth="yes"/>
      <point x="1829" y="352"/>
      <point x="1767" y="420"/>
      <point x="1638" y="453" type="curve"/>
      <point x="1638" y="461" type="line"/>
      <point x="1755" y="504"/>
      <point x="1800" y="575"/>
      <point x="1800" y="680" type="curve" smooth="yes"/>
      <point x="1800" y="813"/>
      <point x="1677" y="895"/>
      <point x="1481" y="895" type="curve" smooth="yes"/>
      <point x="1352" y="895"/>
      <point x="1239" y="856"/>
      <point x="1139" y="780" type="curve"/>
      <point x="1255" y="610" type="line"/>
      <point x="1327" y="666"/>
      <point x="1380" y="684"/>
      <point x="1446" y="684" type="curve" smooth="yes"/>
      <point x="1513" y="684"/>
      <point x="1538" y="649"/>
      <point x="1538" y="616" type="curve" smooth="yes"/>
      <point x="1538" y="561"/>
      <point x="1495" y="539"/>
      <point x="1399" y="539" type="curve" smooth="yes"/>
      <point x="1319" y="539" type="line"/>
      <point x="1319" y="344" type="line"/>
      <point x="1423" y="344" type="line" smooth="yes"/>
      <point x="1516" y="344"/>
      <point x="1559" y="328"/>
      <point x="1559" y="272" type="curve" smooth="yes"/>
      <point x="1559" y="227"/>
      <point x="1520" y="205"/>
      <point x="1442" y="205" type="curve" smooth="yes"/>
      <point x="1321" y="205"/>
      <point x="1223" y="231"/>
      <point x="1145" y="287" type="curve"/>
      <point x="1145" y="53" type="line"/>
      <point x="1229" y="6"/>
      <point x="1331" y="-16"/>
    </contour>
  </outline>
</glyph>
<glyph name="seveneighths" format="2">
  <advance width="1915"/>
  <unicode hex="215E"/>
  <outline>
    <contour>
      <point x="383" y="0" type="line"/>
      <point x="684" y="0" type="line"/>
      <point x="1438" y="1462" type="line"/>
      <point x="1137" y="1462" type="line"/>
    </contour>
    <contour>
      <point x="131" y="586" type="line"/>
      <point x="451" y="586" type="line"/>
      <point x="754" y="1278" type="line"/>
      <point x="754" y="1462" type="line"/>
      <point x="43" y="1462" type="line"/>
      <point x="43" y="1247" type="line"/>
      <point x="473" y="1247" type="line"/>
    </contour>
    <contour>
      <point x="1491" y="164" type="curve" smooth="yes"/>
      <point x="1423" y="164"/>
      <point x="1386" y="197"/>
      <point x="1386" y="252" type="curve" smooth="yes"/>
      <point x="1386" y="291"/>
      <point x="1419" y="322"/>
      <point x="1485" y="344" type="curve"/>
      <point x="1501" y="340" type="line" smooth="yes"/>
      <point x="1587" y="317"/>
      <point x="1599" y="291"/>
      <point x="1599" y="244" type="curve" smooth="yes"/>
      <point x="1599" y="190"/>
      <point x="1563" y="164"/>
    </contour>
    <contour>
      <point x="1495" y="-27" type="curve" smooth="yes"/>
      <point x="1714" y="-27"/>
      <point x="1862" y="80"/>
      <point x="1862" y="242" type="curve" smooth="yes"/>
      <point x="1862" y="342"/>
      <point x="1810" y="412"/>
      <point x="1686" y="461" type="curve"/>
      <point x="1792" y="528"/>
      <point x="1827" y="588"/>
      <point x="1827" y="668" type="curve" smooth="yes"/>
      <point x="1827" y="807"/>
      <point x="1700" y="895"/>
      <point x="1497" y="895" type="curve" smooth="yes"/>
      <point x="1292" y="895"/>
      <point x="1159" y="811"/>
      <point x="1159" y="672" type="curve" smooth="yes"/>
      <point x="1159" y="582"/>
      <point x="1200" y="508"/>
      <point x="1284" y="451" type="curve"/>
      <point x="1157" y="389"/>
      <point x="1126" y="342"/>
      <point x="1126" y="242" type="curve" smooth="yes"/>
      <point x="1126" y="70"/>
      <point x="1266" y="-27"/>
    </contour>
    <contour>
      <point x="1495" y="551" type="curve"/>
      <point x="1438" y="578"/>
      <point x="1413" y="604"/>
      <point x="1413" y="643" type="curve" smooth="yes"/>
      <point x="1413" y="678"/>
      <point x="1438" y="702"/>
      <point x="1493" y="702" type="curve" smooth="yes"/>
      <point x="1544" y="702"/>
      <point x="1573" y="682"/>
      <point x="1573" y="643" type="curve" smooth="yes"/>
      <point x="1573" y="596"/>
      <point x="1542" y="573"/>
    </contour>
  </outline>
</glyph>
<glyph name="uni2C6B" format="2">
  <advance width="1251"/>
  <unicode hex="2C6B"/>
  <anchor x="627" y="-455" name="bottom"/>
  <anchor x="627" y="1462" name="top"/>
  <outline>
    <contour>
      <point x="815" y="-455" type="line"/>
      <point x="1200" y="-455" type="line"/>
      <point x="1200" y="319" type="line"/>
      <point x="551" y="319" type="line"/>
      <point x="1184" y="1219" type="line"/>
      <point x="1184" y="1462" type="line"/>
      <point x="76" y="1462" type="line"/>
      <point x="76" y="1143" type="line"/>
      <point x="694" y="1143" type="line"/>
      <point x="61" y="244" type="line"/>
      <point x="61" y="0" type="line"/>
      <point x="815" y="0" type="line"/>
    </contour>
  </outline>
</glyph>
<glyph name="hypodiastole" format="2">
  <advance width="633"/>
  <unicode hex="2E12"/>
  <outline>
    <contour>
      <point x="205" y="-150" type="line"/>
      <point x="266" y="-150"/>
      <point x="301" y="-184"/>
      <point x="301" y="-246" type="curve" smooth="yes"/>
      <point x="301" y="-307"/>
      <point x="260" y="-342"/>
      <point x="205" y="-342" type="curve"/>
      <point x="205" y="-461" type="line"/>
      <point x="338" y="-461"/>
      <point x="428" y="-381"/>
      <point x="428" y="-246" type="curve" smooth="yes"/>
      <point x="428" y="-109"/>
      <point x="338" y="-29"/>
      <point x="205" y="-29" type="curve"/>
    </contour>
  </outline>
</glyph>
<glyph name="dottedrightpointingangle" format="2">
  <advance width="1159"/>
  <unicode hex="2E16"/>
  <outline>
    <contour>
      <point x="72" y="178" type="line"/>
      <point x="1083" y="627" type="line"/>
      <point x="1083" y="799" type="line"/>
      <point x="72" y="1305" type="line"/>
      <point x="72" y="1008" type="line"/>
      <point x="692" y="725" type="line"/>
      <point x="72" y="473" type="line"/>
    </contour>
    <contour>
      <point x="422" y="1358" type="curve" smooth="yes"/>
      <point x="422" y="1239"/>
      <point x="494" y="1188"/>
      <point x="578" y="1188" type="curve" smooth="yes"/>
      <point x="659" y="1188"/>
      <point x="735" y="1239"/>
      <point x="735" y="1358" type="curve" smooth="yes"/>
      <point x="735" y="1485"/>
      <point x="659" y="1528"/>
      <point x="578" y="1528" type="curve" smooth="yes"/>
      <point x="494" y="1528"/>
      <point x="422" y="1485"/>
    </contour>
    <contour>
      <point x="422" y="86" type="curve" smooth="yes"/>
      <point x="422" y="-33"/>
      <point x="494" y="-84"/>
      <point x="578" y="-84" type="curve" smooth="yes"/>
      <point x="659" y="-84"/>
      <point x="735" y="-33"/>
      <point x="735" y="86" type="curve" smooth="yes"/>
      <point x="735" y="213"/>
      <point x="659" y="256"/>
      <point x="578" y="256" type="curve" smooth="yes"/>
      <point x="494" y="256"/>
      <point x="422" y="213"/>
    </contour>
  </outline>
</glyph>
<glyph name="brackhalfbottomright" format="2">
  <advance width="707"/>
  <unicode hex="2E25"/>
  <outline>
    <contour>
      <point x="305" y="600" type="line"/>
      <point x="305" y="-115" type="line"/>
      <point x="51" y="-115" type="line"/>
      <point x="51" y="-324" type="line"/>
      <point x="543" y="-324" type="line"/>
      <point x="543" y="600" type="line"/>
    </contour>
  </outline>
</glyph>
<glyph name="onedotovertwodotspunctuation" format="2">
  <advance width="1778"/>
  <unicode hex="2E2B"/>
  <outline>
    <contour>
      <point x="676" y="1317" type="curve" smooth="yes"/>
      <point x="676" y="1182"/>
      <point x="772" y="1126"/>
      <point x="889" y="1126" type="curve" smooth="yes"/>
      <point x="999" y="1126"/>
      <point x="1094" y="1182"/>
      <point x="1094" y="1317" type="curve" smooth="yes"/>
      <point x="1094" y="1458"/>
      <point x="999" y="1509"/>
      <point x="889" y="1509" type="curve" smooth="yes"/>
      <point x="772" y="1509"/>
      <point x="676" y="1458"/>
    </contour>
    <contour>
      <point x="106" y="141" type="curve" smooth="yes"/>
      <point x="106" y="6"/>
      <point x="203" y="-49"/>
      <point x="319" y="-49" type="curve" smooth="yes"/>
      <point x="430" y="-49"/>
      <point x="524" y="6"/>
      <point x="524" y="141" type="curve" smooth="yes"/>
      <point x="524" y="283"/>
      <point x="430" y="334"/>
      <point x="319" y="334" type="curve" smooth="yes"/>
      <point x="203" y="334"/>
      <point x="106" y="283"/>
    </contour>
    <contour>
      <point x="1253" y="141" type="curve" smooth="yes"/>
      <point x="1253" y="6"/>
      <point x="1350" y="-49"/>
      <point x="1466" y="-49" type="curve" smooth="yes"/>
      <point x="1577" y="-49"/>
      <point x="1671" y="6"/>
      <point x="1671" y="141" type="curve" smooth="yes"/>
      <point x="1671" y="283"/>
      <point x="1577" y="334"/>
      <point x="1466" y="334" type="curve" smooth="yes"/>
      <point x="1350" y="334"/>
      <point x="1253" y="283"/>
    </contour>
  </outline>
</glyph>
<glyph name="uniA64A" format="2">
  <advance width="1659"/>
  <unicode hex="A64A"/>
  <outline>
    <contour>
      <point x="844" y="948" type="line"/>
      <point x="594" y="1462" type="line"/>
      <point x="164" y="1462" type="line"/>
      <point x="647" y="637" type="line"/>
      <point x="647" y="377" type="line"/>
      <point x="1040" y="377" type="line"/>
      <point x="1040" y="639" type="line"/>
      <point x="1526" y="1462" type="line"/>
      <point x="1096" y="1462" type="line"/>
    </contour>
    <contour>
      <point x="1554" y="467" type="curve" smooth="yes"/>
      <point x="1554" y="764"/>
      <point x="1337" y="952"/>
      <point x="842" y="952" type="curve" smooth="yes"/>
      <point x="340" y="952"/>
      <point x="125" y="764"/>
      <point x="125" y="467" type="curve" smooth="yes"/>
      <point x="125" y="174"/>
      <point x="342" y="-20"/>
      <point x="840" y="-20" type="curve" smooth="yes"/>
      <point x="1337" y="-20"/>
      <point x="1554" y="174"/>
    </contour>
    <contour>
      <point x="522" y="469" type="curve" smooth="yes"/>
      <point x="522" y="592"/>
      <point x="612" y="662"/>
      <point x="842" y="664" type="curve" smooth="yes"/>
      <point x="1083" y="662"/>
      <point x="1157" y="586"/>
      <point x="1157" y="469" type="curve" smooth="yes"/>
      <point x="1157" y="340"/>
      <point x="1071" y="266"/>
      <point x="840" y="264" type="curve" smooth="yes"/>
      <point x="614" y="266"/>
      <point x="522" y="336"/>
    </contour>
  </outline>
</glyph>
<glyph name="uniA64C" format="2">
  <advance width="2298"/>
  <unicode hex="A64C"/>
  <outline>
    <contour>
      <point x="713" y="-20" type="curve" smooth="yes"/>
      <point x="885" y="-20"/>
      <point x="1038" y="51"/>
      <point x="1145" y="143" type="curve"/>
      <point x="1253" y="51"/>
      <point x="1403" y="-20"/>
      <point x="1585" y="-20" type="curve" smooth="yes"/>
      <point x="2054" y="-20"/>
      <point x="2193" y="330"/>
      <point x="2193" y="782" type="curve" smooth="yes"/>
      <point x="2193" y="1223"/>
      <point x="2001" y="1481"/>
      <point x="1610" y="1481" type="curve" smooth="yes"/>
      <point x="1454" y="1481"/>
      <point x="1333" y="1444"/>
      <point x="1253" y="1380" type="curve"/>
      <point x="1401" y="1090" type="line"/>
      <point x="1436" y="1120"/>
      <point x="1499" y="1159"/>
      <point x="1579" y="1159" type="curve" smooth="yes"/>
      <point x="1700" y="1159"/>
      <point x="1788" y="1044"/>
      <point x="1788" y="768" type="curve" smooth="yes"/>
      <point x="1788" y="459"/>
      <point x="1729" y="303"/>
      <point x="1563" y="303" type="curve" smooth="yes"/>
      <point x="1475" y="303"/>
      <point x="1395" y="340"/>
      <point x="1348" y="383" type="curve"/>
      <point x="1348" y="745" type="line"/>
      <point x="950" y="745" type="line"/>
      <point x="950" y="383" type="line"/>
      <point x="891" y="334"/>
      <point x="819" y="303"/>
      <point x="735" y="303" type="curve" smooth="yes"/>
      <point x="598" y="303"/>
      <point x="510" y="410"/>
      <point x="510" y="780" type="curve" smooth="yes"/>
      <point x="510" y="977"/>
      <point x="567" y="1159"/>
      <point x="719" y="1159" type="curve" smooth="yes"/>
      <point x="813" y="1159"/>
      <point x="862" y="1120"/>
      <point x="899" y="1090" type="curve"/>
      <point x="1044" y="1380" type="line"/>
      <point x="967" y="1444"/>
      <point x="844" y="1481"/>
      <point x="705" y="1481" type="curve" smooth="yes"/>
      <point x="313" y="1481"/>
      <point x="104" y="1217"/>
      <point x="104" y="776" type="curve" smooth="yes"/>
      <point x="104" y="268"/>
      <point x="268" y="-20"/>
    </contour>
  </outline>
</glyph>
<glyph name="uniA654" format="2">
  <advance width="2204"/>
  <unicode hex="A654"/>
  <outline>
    <contour>
      <point x="106" y="733" type="curve" smooth="yes"/>
      <point x="106" y="281"/>
      <point x="301" y="-20"/>
      <point x="768" y="-20" type="curve" smooth="yes"/>
      <point x="1178" y="-20"/>
      <point x="1368" y="219"/>
      <point x="1405" y="596" type="curve"/>
      <point x="1649" y="596" type="line"/>
      <point x="1649" y="0" type="line"/>
      <point x="2046" y="0" type="line"/>
      <point x="2046" y="1462" type="line"/>
      <point x="1649" y="1462" type="line"/>
      <point x="1649" y="920" type="line"/>
      <point x="1399" y="920" type="line"/>
      <point x="1352" y="1268"/>
      <point x="1159" y="1485"/>
      <point x="766" y="1485" type="curve" smooth="yes"/>
      <point x="301" y="1485"/>
      <point x="106" y="1188"/>
    </contour>
    <contour>
      <point x="1014" y="733" type="curve" smooth="yes"/>
      <point x="1014" y="469"/>
      <point x="944" y="309"/>
      <point x="768" y="309" type="curve" smooth="yes"/>
      <point x="588" y="309"/>
      <point x="522" y="469"/>
      <point x="522" y="733" type="curve" smooth="yes"/>
      <point x="522" y="997"/>
      <point x="588" y="1161"/>
      <point x="766" y="1161" type="curve" smooth="yes"/>
      <point x="946" y="1161"/>
      <point x="1014" y="997"/>
    </contour>
  </outline>
</glyph>
<glyph name="uniA659" format="2">
  <advance width="1360"/>
  <unicode hex="A659"/>
  <outline>
    <contour>
      <point x="0" y="0" type="line"/>
      <point x="391" y="0" type="line"/>
      <point x="526" y="410" type="line"/>
      <point x="842" y="410" type="line"/>
      <point x="973" y="0" type="line"/>
      <point x="1360" y="0" type="line"/>
      <point x="918" y="1133" type="line"/>
      <point x="436" y="1133" type="line"/>
    </contour>
    <contour>
      <point x="170" y="0" type="line"/>
      <point x="1137" y="0" type="line"/>
      <point x="1137" y="262" type="line"/>
      <point x="170" y="262" type="line"/>
    </contour>
    <contour>
      <point x="592" y="631" type="line"/>
      <point x="623" y="725" type="line" smooth="yes"/>
      <point x="643" y="786"/>
      <point x="668" y="868"/>
      <point x="682" y="926" type="curve"/>
      <point x="688" y="926" type="line"/>
      <point x="702" y="866"/>
      <point x="723" y="803"/>
      <point x="745" y="729" type="curve" smooth="yes"/>
      <point x="776" y="631" type="line"/>
    </contour>
  </outline>
</glyph>
<glyph name="uniA67D" format="2">
  <unicode hex="A67D"/>
  <anchor x="-2" y="1133" name="_top"/>
  <outline>
    <contour>
      <point x="301" y="1653" type="line"/>
      <point x="80" y="1653" type="line"/>
      <point x="-27" y="1268" type="line"/>
      <point x="195" y="1268" type="line"/>
    </contour>
    <contour>
      <point x="-305" y="1653" type="line"/>
      <point x="-305" y="1569" type="line" smooth="yes"/>
      <point x="-305" y="1440"/>
      <point x="-246" y="1382"/>
      <point x="-133" y="1382" type="curve" smooth="yes"/>
      <point x="-51" y="1382"/>
      <point x="-2" y="1397"/>
      <point x="25" y="1411" type="curve"/>
      <point x="66" y="1573" type="line"/>
      <point x="33" y="1556"/>
      <point x="-2" y="1548"/>
      <point x="-33" y="1548" type="curve" smooth="yes"/>
      <point x="-66" y="1548"/>
      <point x="-82" y="1563"/>
      <point x="-82" y="1599" type="curve" smooth="yes"/>
      <point x="-82" y="1653" type="line"/>
    </contour>
  </outline>
</glyph>
<glyph name="uniA68A" format="2">
  <advance width="1696"/>
  <unicode hex="A68A"/>
  <outline>
    <contour>
      <point x="1202" y="504" type="curve" smooth="yes"/>
      <point x="1202" y="-86" type="line" smooth="yes"/>
      <point x="1202" y="-152"/>
      <point x="1174" y="-188"/>
      <point x="1108" y="-188" type="curve" smooth="yes"/>
      <point x="1069" y="-188"/>
      <point x="1014" y="-176"/>
      <point x="973" y="-158" type="curve"/>
      <point x="973" y="-463" type="line"/>
      <point x="1024" y="-485"/>
      <point x="1100" y="-492"/>
      <point x="1167" y="-492" type="curve" smooth="yes"/>
      <point x="1470" y="-492"/>
      <point x="1597" y="-326"/>
      <point x="1597" y="-47" type="curve" smooth="yes"/>
      <point x="1597" y="524" type="line" smooth="yes"/>
      <point x="1597" y="780"/>
      <point x="1423" y="936"/>
      <point x="1092" y="936" type="curve" smooth="yes"/>
      <point x="805" y="936" type="line"/>
      <point x="805" y="1139" type="line"/>
      <point x="1198" y="1139" type="line"/>
      <point x="1198" y="1462" type="line"/>
      <point x="51" y="1462" type="line"/>
      <point x="51" y="1139" type="line"/>
      <point x="408" y="1139" type="line"/>
      <point x="408" y="0" type="line"/>
      <point x="805" y="0" type="line"/>
      <point x="805" y="612" type="line"/>
      <point x="1081" y="612" type="line" smooth="yes"/>
      <point x="1165" y="612"/>
      <point x="1202" y="575"/>
    </contour>
  </outline>
</glyph>
<glyph name="uniA68E" format="2">
  <advance width="1554"/>
  <unicode hex="A68E"/>
  <outline>
    <contour>
      <point x="438" y="-492" type="curve" smooth="yes"/>
      <point x="1051" y="-492" type="line" smooth="yes"/>
      <point x="1415" y="-492"/>
      <point x="1526" y="-303"/>
      <point x="1526" y="-68" type="curve" smooth="yes"/>
      <point x="1526" y="66"/>
      <point x="1468" y="174"/>
      <point x="1358" y="242" type="curve"/>
      <point x="1358" y="1462" type="line"/>
      <point x="961" y="1462" type="line"/>
      <point x="961" y="324" type="line"/>
      <point x="555" y="324" type="line"/>
      <point x="555" y="1462" type="line"/>
      <point x="158" y="1462" type="line"/>
      <point x="158" y="0" type="line"/>
      <point x="1040" y="0" type="line" smooth="yes"/>
      <point x="1157" y="0"/>
      <point x="1217" y="-68"/>
      <point x="1217" y="-158" type="curve" smooth="yes"/>
      <point x="1217" y="-293"/>
      <point x="1106" y="-332"/>
      <point x="963" y="-332" type="curve" smooth="yes"/>
      <point x="492" y="-332" type="line" smooth="yes"/>
      <point x="440" y="-332"/>
      <point x="414" y="-317"/>
      <point x="414" y="-285" type="curve" smooth="yes"/>
      <point x="414" y="-256"/>
      <point x="428" y="-233"/>
      <point x="481" y="-233" type="curve" smooth="yes"/>
      <point x="999" y="-233" type="line"/>
      <point x="999" y="-96" type="line"/>
      <point x="397" y="-96" type="line" smooth="yes"/>
      <point x="274" y="-96"/>
      <point x="197" y="-172"/>
      <point x="197" y="-291" type="curve" smooth="yes"/>
      <point x="197" y="-426"/>
      <point x="281" y="-492"/>
    </contour>
  </outline>
</glyph>
<glyph name="uniA68F" format="2">
  <advance width="1372"/>
  <unicode hex="A68F"/>
  <outline>
    <contour>
      <point x="406" y="-492" type="curve" smooth="yes"/>
      <point x="866" y="-489" type="line" smooth="yes"/>
      <point x="1249" y="-487"/>
      <point x="1348" y="-315"/>
      <point x="1348" y="-92" type="curve" smooth="yes"/>
      <point x="1348" y="37"/>
      <point x="1303" y="135"/>
      <point x="1210" y="199" type="curve"/>
      <point x="1210" y="1133" type="line"/>
      <point x="819" y="1133" type="line"/>
      <point x="819" y="291" type="line"/>
      <point x="526" y="291" type="line"/>
      <point x="526" y="1133" type="line"/>
      <point x="135" y="1133" type="line"/>
      <point x="135" y="0" type="line"/>
      <point x="856" y="0" type="line" smooth="yes"/>
      <point x="995" y="0"/>
      <point x="1053" y="-66"/>
      <point x="1053" y="-166" type="curve" smooth="yes"/>
      <point x="1053" y="-268"/>
      <point x="987" y="-332"/>
      <point x="778" y="-332" type="curve" smooth="yes"/>
      <point x="471" y="-332" type="line" smooth="yes"/>
      <point x="420" y="-332"/>
      <point x="393" y="-311"/>
      <point x="393" y="-293" type="curve" smooth="yes"/>
      <point x="393" y="-260"/>
      <point x="408" y="-233"/>
      <point x="461" y="-233" type="curve" smooth="yes"/>
      <point x="856" y="-233" type="line"/>
      <point x="856" y="-96" type="line"/>
      <point x="377" y="-96" type="line" smooth="yes"/>
      <point x="254" y="-96"/>
      <point x="176" y="-172"/>
      <point x="176" y="-291" type="curve" smooth="yes"/>
      <point x="176" y="-408"/>
      <point x="244" y="-492"/>
    </contour>
  </outline>
</glyph>
<glyph name="uniA717" format="2">
  <advance width="745"/>
  <unicode hex="A717"/>
  <outline>
    <contour>
      <point x="664" y="2017" type="line"/>
      <point x="426" y="2017" type="line"/>
      <point x="426" y="1286" type="line"/>
      <point x="664" y="1286" type="line"/>
    </contour>
    <contour>
      <point x="379" y="1649" type="curve" smooth="yes"/>
      <point x="379" y="1745"/>
      <point x="319" y="1798"/>
      <point x="231" y="1798" type="curve" smooth="yes"/>
      <point x="150" y="1798"/>
      <point x="82" y="1745"/>
      <point x="82" y="1649" type="curve" smooth="yes"/>
      <point x="82" y="1548"/>
      <point x="150" y="1499"/>
      <point x="231" y="1499" type="curve" smooth="yes"/>
      <point x="319" y="1499"/>
      <point x="379" y="1548"/>
    </contour>
  </outline>
</glyph>
<glyph name="uniA71D" format="2">
  <advance width="555"/>
  <unicode hex="A71D"/>
  <outline>
    <contour>
      <point x="391" y="1051" type="line"/>
      <point x="449" y="1780" type="line"/>
      <point x="104" y="1780" type="line"/>
      <point x="164" y="1051" type="line"/>
    </contour>
    <contour>
      <point x="123" y="807" type="curve"/>
      <point x="123" y="713"/>
      <point x="193" y="672"/>
      <point x="274" y="672" type="curve"/>
      <point x="358" y="672"/>
      <point x="426" y="713"/>
      <point x="426" y="807" type="curve"/>
      <point x="426" y="907"/>
      <point x="358" y="948"/>
      <point x="274" y="948" type="curve"/>
      <point x="193" y="948"/>
      <point x="123" y="907"/>
    </contour>
  </outline>
</glyph>
<glyph name="uniA734" format="2">
  <advance width="2421"/>
  <unicode hex="A734"/>
  <outline>
    <contour>
      <point x="508" y="274" type="line"/>
      <point x="1397" y="274" type="line"/>
      <point x="1004" y="1468" type="line"/>
      <point x="477" y="1468" type="line"/>
      <point x="0" y="0" type="line"/>
      <point x="434" y="0" type="line"/>
    </contour>
    <contour>
      <point x="901" y="598" type="line"/>
      <point x="590" y="598" type="line"/>
      <point x="653" y="838" type="line" smooth="yes"/>
      <point x="678" y="934"/>
      <point x="725" y="1126"/>
      <point x="743" y="1227" type="curve"/>
      <point x="762" y="1126"/>
      <point x="817" y="915"/>
      <point x="838" y="838" type="curve" smooth="yes"/>
    </contour>
    <component base="O" xOffset="788"/>
  </outline>
</glyph>
<glyph name="uniA75F" format="2">
  <advance width="1251"/>
  <unicode hex="A75F"/>
  <outline>
    <contour>
      <point x="596" y="1309" type="line"/>
      <point x="152" y="-190" type="line"/>
      <point x="315" y="-190" type="line"/>
      <point x="766" y="1309" type="line"/>
    </contour>
    <component base="v"/>
  </outline>
</glyph>
<glyph name="uniA76B" format="2">
  <advance width="1087"/>
  <unicode hex="A76B"/>
  <outline>
    <contour>
      <point x="594" y="33" type="curve" smooth="yes"/>
      <point x="594" y="-119"/>
      <point x="489" y="-180"/>
      <point x="360" y="-180" type="curve" smooth="yes"/>
      <point x="223" y="-180"/>
      <point x="127" y="-135"/>
      <point x="47" y="-98" type="curve"/>
      <point x="47" y="-422" type="line"/>
      <point x="154" y="-461"/>
      <point x="264" y="-492"/>
      <point x="436" y="-492" type="curve" smooth="yes"/>
      <point x="797" y="-492"/>
      <point x="1004" y="-291"/>
      <point x="1004" y="0" type="curve" smooth="yes"/>
      <point x="1004" y="240"/>
      <point x="872" y="360"/>
      <point x="657" y="395" type="curve"/>
      <point x="657" y="403" type="line"/>
      <point x="862" y="469"/>
      <point x="948" y="606"/>
      <point x="948" y="770" type="curve" smooth="yes"/>
      <point x="948" y="1040"/>
      <point x="717" y="1151"/>
      <point x="485" y="1151" type="curve" smooth="yes"/>
      <point x="270" y="1151"/>
      <point x="139" y="1104"/>
      <point x="33" y="1051" type="curve"/>
      <point x="133" y="778" type="line"/>
      <point x="178" y="803"/>
      <point x="258" y="842"/>
      <point x="369" y="842" type="curve" smooth="yes"/>
      <point x="489" y="842"/>
      <point x="553" y="780"/>
      <point x="553" y="694" type="curve" smooth="yes"/>
      <point x="553" y="594"/>
      <point x="489" y="522"/>
      <point x="313" y="522" type="curve" smooth="yes"/>
      <point x="221" y="522" type="line"/>
      <point x="221" y="231" type="line"/>
      <point x="324" y="231" type="line" smooth="yes"/>
      <point x="498" y="231"/>
      <point x="594" y="145"/>
    </contour>
  </outline>
</glyph>
<glyph name="uniA774" format="2">
  <advance width="1874"/>
  <unicode hex="A774"/>
  <outline>
    <contour>
      <point x="1137" y="0" type="line"/>
      <point x="1819" y="0" type="line"/>
      <point x="1819" y="295" type="line"/>
      <point x="1137" y="295" type="line"/>
    </contour>
    <contour>
      <point x="1444" y="610" type="line"/>
      <point x="1153" y="-322" type="line"/>
      <point x="1393" y="-322" type="line"/>
      <point x="1681" y="610" type="line"/>
    </contour>
    <component base="n"/>
  </outline>
</glyph>
<glyph name="uniA78A" format="2">
  <advance width="973"/>
  <unicode hex="A78A"/>
  <outline>
    <contour>
      <point x="870" y="567" type="line"/>
      <point x="102" y="567" type="line"/>
      <point x="102" y="307" type="line"/>
      <point x="870" y="307" type="line"/>
    </contour>
    <contour>
      <point x="102" y="737" type="line"/>
      <point x="870" y="737" type="line"/>
      <point x="870" y="995" type="line"/>
      <point x="102" y="995" type="line"/>
    </contour>
  </outline>
</glyph>
<glyph name="uniA78E" format="2">
  <advance width="836"/>
  <unicode hex="A78E"/>
  <outline>
    <contour>
      <point x="309" y="-53" type="line" smooth="yes"/>
      <point x="309" y="-270"/>
      <point x="401" y="-430"/>
      <point x="676" y="-430" type="curve" smooth="yes"/>
      <point x="758" y="-430"/>
      <point x="825" y="-422"/>
      <point x="879" y="-395" type="curve"/>
      <point x="879" y="-98" type="line"/>
      <point x="842" y="-111"/>
      <point x="819" y="-121"/>
      <point x="774" y="-121" type="curve" smooth="yes"/>
      <point x="731" y="-121"/>
      <point x="702" y="-88"/>
      <point x="702" y="-49" type="curve" smooth="yes"/>
      <point x="702" y="578" type="line"/>
      <point x="897" y="578" type="line"/>
      <point x="897" y="768" type="line"/>
      <point x="702" y="768" type="line"/>
      <point x="702" y="1556" type="line"/>
      <point x="309" y="1556" type="line"/>
      <point x="309" y="1034" type="line"/>
      <point x="281" y="1053"/>
      <point x="242" y="1059"/>
      <point x="195" y="1059" type="curve" smooth="yes"/>
      <point x="59" y="1057"/>
      <point x="-37" y="971"/>
      <point x="-37" y="825" type="curve" smooth="yes"/>
      <point x="-37" y="680"/>
      <point x="53" y="578"/>
      <point x="258" y="578" type="curve" smooth="yes"/>
      <point x="309" y="578" type="line"/>
    </contour>
    <contour>
      <point x="229" y="874" type="curve" smooth="yes"/>
      <point x="276" y="874"/>
      <point x="311" y="844"/>
      <point x="311" y="793" type="curve" smooth="yes"/>
      <point x="311" y="768" type="line"/>
      <point x="268" y="768" type="line" smooth="yes"/>
      <point x="195" y="768"/>
      <point x="164" y="780"/>
      <point x="164" y="821" type="curve" smooth="yes"/>
      <point x="164" y="848"/>
      <point x="184" y="874"/>
    </contour>
  </outline>
</glyph>
<glyph name="uniA79E" format="2">
  <advance width="1669"/>
  <unicode hex="A79E"/>
  <outline>
    <contour>
      <point x="659" y="-20" type="curve" smooth="yes"/>
      <point x="897" y="-20"/>
      <point x="991" y="66"/>
      <point x="1063" y="141" type="curve"/>
      <point x="1083" y="141" type="line"/>
      <point x="1167" y="0" type="line"/>
      <point x="1495" y="0" type="line"/>
      <point x="1495" y="1462" type="line"/>
      <point x="1106" y="1462" type="line"/>
      <point x="1106" y="692" type="line" smooth="yes"/>
      <point x="1106" y="418"/>
      <point x="1026" y="303"/>
      <point x="772" y="303" type="curve" smooth="yes"/>
      <point x="627" y="303"/>
      <point x="559" y="348"/>
      <point x="559" y="455" type="curve" smooth="yes"/>
      <point x="559" y="553"/>
      <point x="623" y="602"/>
      <point x="795" y="602" type="curve" smooth="yes"/>
      <point x="834" y="602" type="line"/>
      <point x="834" y="922" type="line"/>
      <point x="813" y="922" type="line" smooth="yes"/>
      <point x="641" y="922"/>
      <point x="553" y="981"/>
      <point x="553" y="1141" type="curve" smooth="yes"/>
      <point x="553" y="1462" type="line"/>
      <point x="158" y="1462" type="line"/>
      <point x="158" y="1120" type="line" smooth="yes"/>
      <point x="158" y="926"/>
      <point x="279" y="811"/>
      <point x="500" y="772" type="curve"/>
      <point x="500" y="764" type="line"/>
      <point x="229" y="741"/>
      <point x="154" y="612"/>
      <point x="154" y="418" type="curve" smooth="yes"/>
      <point x="154" y="162"/>
      <point x="350" y="-20"/>
    </contour>
  </outline>
</glyph>
<glyph name="uniA7A0" format="2">
  <advance width="1516"/>
  <unicode hex="A7A0"/>
  <outline>
    <contour>
      <point x="514" y="782" type="curve"/>
      <point x="1440" y="864" type="line"/>
      <point x="1440" y="1085" type="line"/>
      <point x="580" y="1010" type="line"/>
      <point x="637" y="1100"/>
      <point x="731" y="1159"/>
      <point x="874" y="1159" type="curve" smooth="yes"/>
      <point x="1004" y="1159"/>
      <point x="1116" y="1133"/>
      <point x="1221" y="1081" type="curve"/>
      <point x="1346" y="1391" type="line"/>
      <point x="1225" y="1444"/>
      <point x="1055" y="1483"/>
      <point x="872" y="1483" type="curve" smooth="yes"/>
      <point x="465" y="1483"/>
      <point x="211" y="1290"/>
      <point x="131" y="969" type="curve"/>
      <point x="8" y="958" type="line"/>
      <point x="8" y="737" type="line"/>
      <point x="104" y="745" type="line"/>
      <point x="104" y="254"/>
      <point x="356" y="-20"/>
      <point x="811" y="-20" type="curve" smooth="yes"/>
      <point x="1024" y="-20"/>
      <point x="1225" y="16"/>
      <point x="1376" y="68" type="curve"/>
      <point x="1376" y="770" type="line"/>
      <point x="745" y="770" type="line"/>
      <point x="745" y="465" type="line"/>
      <point x="1006" y="465" type="line"/>
      <point x="1006" y="322" type="line"/>
      <point x="971" y="313"/>
      <point x="891" y="305"/>
      <point x="844" y="305" type="curve" smooth="yes"/>
      <point x="631" y="305"/>
      <point x="512" y="453"/>
      <point x="512" y="725" type="curve" smooth="yes"/>
      <point x="512" y="743"/>
      <point x="512" y="764"/>
    </contour>
  </outline>
</glyph>
<glyph name="uniA92E" format="2">
  <advance width="1044"/>
  <unicode hex="A92E"/>
  <outline>
    <contour>
      <point x="45" y="395" type="curve"/>
      <point x="213" y="395" type="line"/>
      <point x="268" y="479"/>
      <point x="367" y="532"/>
      <point x="520" y="532" type="curve" smooth="yes"/>
      <point x="688" y="532"/>
      <point x="784" y="471"/>
      <point x="834" y="395" type="curve"/>
      <point x="999" y="395" type="line"/>
      <point x="956" y="653"/>
      <point x="793" y="764"/>
      <point x="520" y="764" type="curve" smooth="yes"/>
      <point x="281" y="764"/>
      <point x="109" y="666"/>
    </contour>
  </outline>
</glyph>
<glyph name="uniAB48" format="2">
  <advance width="1407"/>
  <unicode hex="AB48"/>
  <outline>
    <contour>
      <point x="1278" y="1151" type="curve" smooth="yes"/>
      <point x="1143" y="1151"/>
      <point x="1014" y="1071"/>
      <point x="936" y="952" type="curve"/>
      <point x="936" y="1137" type="line"/>
      <point x="915" y="1145"/>
      <point x="883" y="1151"/>
      <point x="831" y="1151" type="curve" smooth="yes"/>
      <point x="672" y="1151"/>
      <point x="553" y="1053"/>
      <point x="506" y="946" type="curve"/>
      <point x="492" y="946" type="line"/>
      <point x="428" y="1133" type="line"/>
      <point x="137" y="1133" type="line"/>
      <point x="137" y="0" type="line"/>
      <point x="526" y="0" type="line"/>
      <point x="526" y="557" type="line" smooth="yes"/>
      <point x="526" y="752"/>
      <point x="666" y="782"/>
      <point x="739" y="782" type="curve" smooth="yes"/>
      <point x="856" y="782"/>
      <point x="901" y="737"/>
      <point x="936" y="700" type="curve"/>
      <point x="1020" y="770"/>
      <point x="1120" y="784"/>
      <point x="1196" y="784" type="curve" smooth="yes"/>
      <point x="1251" y="784"/>
      <point x="1303" y="780"/>
      <point x="1350" y="772" type="curve"/>
      <point x="1384" y="1141" type="line"/>
      <point x="1362" y="1145"/>
      <point x="1331" y="1151"/>
    </contour>
  </outline>
</glyph>
<glyph name="uniAB59" format="2">
  <advance width="1294"/>
  <unicode hex="AB59"/>
  <outline>
    <contour>
      <point x="-223" y="-492" type="line"/>
      <point x="-23" y="-492" type="line" smooth="yes"/>
      <point x="248" y="-492"/>
      <point x="322" y="-362"/>
      <point x="387" y="-242" type="curve" smooth="yes"/>
      <point x="672" y="291" type="line"/>
      <point x="840" y="0" type="line"/>
      <point x="1284" y="0" type="line"/>
      <point x="911" y="578" type="line"/>
      <point x="1272" y="1130" type="line"/>
      <point x="825" y="1130" type="line"/>
      <point x="649" y="819" type="line"/>
      <point x="477" y="1130" type="line"/>
      <point x="33" y="1130" type="line"/>
      <point x="408" y="526" type="line"/>
      <point x="57" y="-80" type="line" smooth="yes"/>
      <point x="39" y="-113"/>
      <point x="20" y="-137"/>
      <point x="-2" y="-137" type="curve" smooth="yes"/>
      <point x="-31" y="-137"/>
      <point x="-45" y="-123"/>
      <point x="-45" y="-63" type="curve" smooth="yes"/>
      <point x="-45" y="-33" type="line"/>
      <point x="-223" y="-33" type="line"/>
    </contour>
  </outline>
</glyph>
<glyph name="longs_t" format="2">
  <advance width="1675"/>
  <unicode hex="FB05"/>
  <anchor x="760" y="0" name="bottom"/>
  <anchor x="1204" y="567" name="center"/>
  <anchor x="731" y="1567" name="top"/>
  <anchor x="1595" y="1360" name="topright"/>
  <outline>
    <contour>
      <point x="1294" y="-20" type="curve" smooth="yes"/>
      <point x="1442" y="-20"/>
      <point x="1526" y="6"/>
      <point x="1612" y="43" type="curve"/>
      <point x="1612" y="328" type="line"/>
      <point x="1548" y="305"/>
      <point x="1493" y="289"/>
      <point x="1423" y="289" type="curve" smooth="yes"/>
      <point x="1356" y="289"/>
      <point x="1317" y="326"/>
      <point x="1317" y="399" type="curve" smooth="yes"/>
      <point x="1317" y="840" type="line"/>
      <point x="1595" y="840" type="line"/>
      <point x="1595" y="1133" type="line"/>
      <point x="1317" y="1133" type="line"/>
      <point x="1317" y="1360" type="line"/>
      <point x="1208" y="1466"/>
      <point x="1059" y="1567"/>
      <point x="745" y="1567" type="curve" smooth="yes"/>
      <point x="360" y="1567"/>
      <point x="135" y="1421"/>
      <point x="135" y="1075" type="curve" smooth="yes"/>
      <point x="135" y="0" type="line"/>
      <point x="526" y="0" type="line"/>
      <point x="526" y="1067" type="line" smooth="yes"/>
      <point x="526" y="1190"/>
      <point x="588" y="1286"/>
      <point x="745" y="1286" type="curve" smooth="yes"/>
      <point x="858" y="1286"/>
      <point x="903" y="1247"/>
      <point x="924" y="1214" type="curve"/>
      <point x="924" y="1098" type="line"/>
      <point x="791" y="999" type="line"/>
      <point x="791" y="840" type="line"/>
      <point x="924" y="840" type="line"/>
      <point x="924" y="373" type="line" smooth="yes"/>
      <point x="924" y="66"/>
      <point x="1073" y="-20"/>
    </contour>
  </outline>
</glyph>
<glyph name="uniFE23" format="2">
  <unicode hex="FE23"/>
  <anchor x="0" y="1133" name="_top"/>
  <outline>
    <contour>
      <point x="0" y="1544" type="curve"/>
      <point x="0" y="1290" type="line"/>
      <point x="141" y="1266"/>
      <point x="297" y="1245"/>
      <point x="461" y="1245" type="curve"/>
      <point x="647" y="1245"/>
      <point x="809" y="1360"/>
      <point x="825" y="1589" type="curve"/>
      <point x="647" y="1589" type="line"/>
      <point x="612" y="1520"/>
      <point x="541" y="1491"/>
      <point x="481" y="1491" type="curve"/>
      <point x="307" y="1491"/>
      <point x="164" y="1513"/>
    </contour>
  </outline>
</glyph>
<glyph name="Eng.alt1" format="2">
  <advance width="1559"/>
  <anchor x="780" y="-453" name="bottom"/>
  <anchor x="780" y="1462" name="top"/>
  <outline>
    <contour>
      <point x="920" y="-453" type="curve" smooth="yes"/>
      <point x="1282" y="-453"/>
      <point x="1403" y="-205"/>
      <point x="1403" y="57" type="curve" smooth="yes"/>
      <point x="1403" y="948" type="line" smooth="yes"/>
      <point x="1403" y="1321"/>
      <point x="1208" y="1479"/>
      <point x="932" y="1479" type="curve" smooth="yes"/>
      <point x="682" y="1479"/>
      <point x="565" y="1360"/>
      <point x="510" y="1276" type="curve"/>
      <point x="500" y="1276" type="line"/>
      <point x="451" y="1456" type="line"/>
      <point x="154" y="1456" type="line"/>
      <point x="154" y="0" type="line"/>
      <point x="549" y="0" type="line"/>
      <point x="549" y="784" type="line" smooth="yes"/>
      <point x="549" y="1063"/>
      <point x="629" y="1153"/>
      <point x="801" y="1153" type="curve" smooth="yes"/>
      <point x="946" y="1153"/>
      <point x="1008" y="1061"/>
      <point x="1008" y="899" type="curve" smooth="yes"/>
      <point x="1008" y="106" type="line" smooth="yes"/>
      <point x="1008" y="-49"/>
      <point x="946" y="-113"/>
      <point x="823" y="-113" type="curve" smooth="yes"/>
      <point x="780" y="-113"/>
      <point x="741" y="-104"/>
      <point x="705" y="-92" type="curve"/>
      <point x="705" y="-422" type="line"/>
      <point x="756" y="-438"/>
      <point x="838" y="-453"/>
    </contour>
  </outline>
</glyph>
<glyph name="braceright.sc" format="2">
  <advance width="776"/>
  <outline>
    <contour>
      <point x="723" y="324" type="curve"/>
      <point x="723" y="614" type="line"/>
      <point x="625" y="614"/>
      <point x="516" y="647"/>
      <point x="516" y="750" type="curve" smooth="yes"/>
      <point x="516" y="942" type="line" smooth="yes"/>
      <point x="516" y="1141"/>
      <point x="449" y="1231"/>
      <point x="53" y="1231" type="curve"/>
      <point x="53" y="965" type="line"/>
      <point x="102" y="963"/>
      <point x="201" y="975"/>
      <point x="201" y="897" type="curve" smooth="yes"/>
      <point x="201" y="680" type="line" smooth="yes"/>
      <point x="201" y="545"/>
      <point x="279" y="492"/>
      <point x="412" y="475" type="curve"/>
      <point x="412" y="465" type="line"/>
      <point x="276" y="444"/>
      <point x="201" y="393"/>
      <point x="201" y="266" type="curve" smooth="yes"/>
      <point x="201" y="45" type="line" smooth="yes"/>
      <point x="201" y="-29"/>
      <point x="100" y="-18"/>
      <point x="53" y="-20" type="curve"/>
      <point x="53" y="-289" type="line"/>
      <point x="442" y="-289"/>
      <point x="516" y="-199"/>
      <point x="516" y="4" type="curve" smooth="yes"/>
      <point x="516" y="190" type="line" smooth="yes"/>
      <point x="516" y="289"/>
      <point x="629" y="326"/>
    </contour>
  </outline>
</glyph>
<glyph name="brevecomb.sc" format="2">
  <advance width="1235"/>
  <anchor x="614" y="1210" name="_top"/>
  <anchor x="623" y="1704" name="top"/>
  <outline>
    <contour>
      <point x="1055" y="1704" type="curve"/>
      <point x="799" y="1704" type="line"/>
      <point x="768" y="1604"/>
      <point x="694" y="1583"/>
      <point x="614" y="1583" type="curve" smooth="yes"/>
      <point x="504" y="1583"/>
      <point x="459" y="1593"/>
      <point x="428" y="1704" type="curve"/>
      <point x="182" y="1704" type="line"/>
      <point x="193" y="1458"/>
      <point x="332" y="1303"/>
      <point x="614" y="1303" type="curve" smooth="yes"/>
      <point x="883" y="1303"/>
      <point x="1042" y="1466"/>
    </contour>
  </outline>
</glyph>
<glyph name="dieresiscaron" format="2">
  <outline>
    <contour>
      <point x="-166" y="1534" type="curve"/>
      <point x="168" y="1534" type="line"/>
      <point x="240" y="1626"/>
      <point x="319" y="1710"/>
      <point x="389" y="1782" type="curve"/>
      <point x="389" y="1808" type="line"/>
      <point x="240" y="1808" type="line"/>
      <point x="158" y="1772"/>
      <point x="74" y="1724"/>
      <point x="2" y="1667" type="curve"/>
      <point x="-68" y="1724"/>
      <point x="-147" y="1772"/>
      <point x="-238" y="1808" type="curve"/>
      <point x="-389" y="1808" type="line"/>
      <point x="-389" y="1782" type="line"/>
      <point x="-307" y="1704"/>
      <point x="-236" y="1626"/>
    </contour>
    <contour>
      <point x="-209" y="1225" type="curve"/>
      <point x="-117" y="1225"/>
      <point x="-55" y="1276"/>
      <point x="-55" y="1362" type="curve"/>
      <point x="-55" y="1454"/>
      <point x="-117" y="1501"/>
      <point x="-209" y="1501" type="curve"/>
      <point x="-305" y="1501"/>
      <point x="-360" y="1454"/>
      <point x="-360" y="1362" type="curve"/>
      <point x="-360" y="1276"/>
      <point x="-305" y="1225"/>
    </contour>
    <contour>
      <point x="207" y="1225" type="curve"/>
      <point x="297" y="1225"/>
      <point x="360" y="1276"/>
      <point x="360" y="1362" type="curve"/>
      <point x="360" y="1454"/>
      <point x="297" y="1501"/>
      <point x="207" y="1501" type="curve"/>
      <point x="113" y="1501"/>
      <point x="57" y="1454"/>
      <point x="57" y="1362" type="curve"/>
      <point x="57" y="1276"/>
      <point x="113" y="1225"/>
    </contour>
  </outline>
</glyph>
<glyph name="five.osf" format="2">
  <advance width="1200"/>
  <outline>
    <contour>
      <point x="655" y="621" type="curve" smooth="yes"/>
      <point x="584" y="621"/>
      <point x="520" y="608"/>
      <point x="492" y="602" type="curve"/>
      <point x="510" y="803" type="line"/>
      <point x="1008" y="803" type="line"/>
      <point x="1008" y="1133" type="line"/>
      <point x="174" y="1133" type="line"/>
      <point x="119" y="360" type="line"/>
      <point x="264" y="289" type="line"/>
      <point x="336" y="311"/>
      <point x="418" y="324"/>
      <point x="479" y="324" type="curve" smooth="yes"/>
      <point x="643" y="324"/>
      <point x="707" y="260"/>
      <point x="707" y="164" type="curve" smooth="yes"/>
      <point x="707" y="43"/>
      <point x="623" y="-20"/>
      <point x="475" y="-20" type="curve" smooth="yes"/>
      <point x="328" y="-20"/>
      <point x="205" y="16"/>
      <point x="94" y="72" type="curve"/>
      <point x="94" y="-252" type="line"/>
      <point x="203" y="-305"/>
      <point x="342" y="-332"/>
      <point x="512" y="-332" type="curve" smooth="yes"/>
      <point x="911" y="-332"/>
      <point x="1106" y="-123"/>
      <point x="1106" y="176" type="curve" smooth="yes"/>
      <point x="1106" y="465"/>
      <point x="934" y="621"/>
    </contour>
  </outline>
</glyph>
<glyph name="j.sc" format="2">
  <advance width="645"/>
  <anchor x="326" y="-395" name="bottom"/>
  <anchor x="324" y="1210" name="top"/>
  <anchor x="604" y="1210" name="topright"/>
  <outline>
    <contour>
      <point x="51" y="-395" type="curve" smooth="yes"/>
      <point x="326" y="-395"/>
      <point x="522" y="-256"/>
      <point x="522" y="145" type="curve" smooth="yes"/>
      <point x="522" y="1210" type="line"/>
      <point x="131" y="1210" type="line"/>
      <point x="131" y="113" type="line" smooth="yes"/>
      <point x="131" y="-31"/>
      <point x="106" y="-102"/>
      <point x="-10" y="-102" type="curve" smooth="yes"/>
      <point x="-57" y="-102"/>
      <point x="-96" y="-92"/>
      <point x="-131" y="-84" type="curve"/>
      <point x="-131" y="-381" type="line"/>
      <point x="-88" y="-387"/>
      <point x="-29" y="-395"/>
    </contour>
  </outline>
</glyph>
<glyph name="macronacute" format="2">
  <outline>
    <contour>
      <point x="-190" y="1524" type="line"/>
      <point x="70" y="1524" type="line"/>
      <point x="162" y="1577"/>
      <point x="319" y="1702"/>
      <point x="387" y="1784" type="curve"/>
      <point x="387" y="1819" type="line"/>
      <point x="-16" y="1819" type="line"/>
      <point x="-49" y="1745"/>
      <point x="-143" y="1610"/>
      <point x="-190" y="1556" type="curve"/>
    </contour>
    <contour>
      <point x="-338" y="1241" type="line"/>
      <point x="340" y="1241" type="line"/>
      <point x="340" y="1466" type="line"/>
      <point x="-338" y="1466" type="line"/>
    </contour>
  </outline>
</glyph>
<glyph name="six.lf" format="2">
  <advance width="1247"/>
  <outline>
    <contour>
      <point x="106" y="618" type="curve" smooth="yes"/>
      <point x="106" y="215"/>
      <point x="313" y="-20"/>
      <point x="657" y="-20" type="curve" smooth="yes"/>
      <point x="983" y="-20"/>
      <point x="1174" y="178"/>
      <point x="1174" y="500" type="curve" smooth="yes"/>
      <point x="1174" y="801"/>
      <point x="1024" y="975"/>
      <point x="764" y="975" type="curve" smooth="yes"/>
      <point x="631" y="975"/>
      <point x="535" y="918"/>
      <point x="475" y="805" type="curve"/>
      <point x="463" y="805" type="line"/>
      <point x="473" y="1067"/>
      <point x="600" y="1176"/>
      <point x="864" y="1176" type="curve" smooth="yes"/>
      <point x="942" y="1176"/>
      <point x="1014" y="1169"/>
      <point x="1081" y="1157" type="curve"/>
      <point x="1081" y="1466" type="line"/>
      <point x="1001" y="1477"/>
      <point x="932" y="1483"/>
      <point x="872" y="1483" type="curve" smooth="yes"/>
      <point x="375" y="1483"/>
      <point x="106" y="1227"/>
    </contour>
    <contour>
      <point x="649" y="293" type="curve" smooth="yes"/>
      <point x="559" y="293"/>
      <point x="500" y="383"/>
      <point x="500" y="512" type="curve" smooth="yes"/>
      <point x="500" y="600"/>
      <point x="563" y="670"/>
      <point x="653" y="670" type="curve" smooth="yes"/>
      <point x="745" y="670"/>
      <point x="791" y="610"/>
      <point x="791" y="492" type="curve" smooth="yes"/>
      <point x="791" y="352"/>
      <point x="733" y="293"/>
    </contour>
  </outline>
</glyph>
<glyph name="tildeacute" format="2">
  <outline>
    <contour>
      <point x="-367" y="1239" type="curve"/>
      <point x="-217" y="1239" type="line"/>
      <point x="-201" y="1296"/>
      <point x="-178" y="1315"/>
      <point x="-131" y="1315" type="curve"/>
      <point x="-66" y="1315"/>
      <point x="6" y="1237"/>
      <point x="139" y="1237" type="curve"/>
      <point x="299" y="1237"/>
      <point x="356" y="1348"/>
      <point x="371" y="1475" type="curve"/>
      <point x="219" y="1475" type="line"/>
      <point x="211" y="1423"/>
      <point x="184" y="1399"/>
      <point x="141" y="1399" type="curve"/>
      <point x="63" y="1399"/>
      <point x="8" y="1477"/>
      <point x="-139" y="1477" type="curve"/>
      <point x="-291" y="1477"/>
      <point x="-356" y="1366"/>
    </contour>
    <contour>
      <point x="-205" y="1526" type="line"/>
      <point x="57" y="1526" type="line"/>
      <point x="160" y="1589"/>
      <point x="303" y="1702"/>
      <point x="387" y="1784" type="curve"/>
      <point x="387" y="1804" type="line"/>
      <point x="-20" y="1804" type="line"/>
      <point x="-70" y="1718"/>
      <point x="-133" y="1630"/>
      <point x="-205" y="1554" type="curve"/>
    </contour>
  </outline>
</glyph>
<glyph name="tildemacron" format="2">
  <outline>
    <contour>
      <point x="-371" y="1239" type="curve"/>
      <point x="-221" y="1239" type="line"/>
      <point x="-205" y="1296"/>
      <point x="-182" y="1315"/>
      <point x="-135" y="1315" type="curve"/>
      <point x="-70" y="1315"/>
      <point x="2" y="1237"/>
      <point x="135" y="1237" type="curve"/>
      <point x="295" y="1237"/>
      <point x="352" y="1348"/>
      <point x="367" y="1475" type="curve"/>
      <point x="215" y="1475" type="line"/>
      <point x="207" y="1423"/>
      <point x="180" y="1399"/>
      <point x="137" y="1399" type="curve"/>
      <point x="59" y="1399"/>
      <point x="4" y="1477"/>
      <point x="-143" y="1477" type="curve"/>
      <point x="-295" y="1477"/>
      <point x="-360" y="1366"/>
    </contour>
    <contour>
      <point x="-360" y="1569" type="line"/>
      <point x="362" y="1569" type="line"/>
      <point x="362" y="1790" type="line"/>
      <point x="-360" y="1790" type="line"/>
    </contour>
  </outline>
</glyph>
<glyph name="two.osf" format="2">
  <advance width="1233"/>
  <outline>
    <contour>
      <point x="1147" y="0" type="line"/>
      <point x="1147" y="326" type="line"/>
      <point x="696" y="326" type="line"/>
      <point x="696" y="340" type="line"/>
      <point x="782" y="387" type="line" smooth="yes"/>
      <point x="997" y="506"/>
      <point x="1096" y="618"/>
      <point x="1096" y="807" type="curve" smooth="yes"/>
      <point x="1096" y="1016"/>
      <point x="922" y="1153"/>
      <point x="637" y="1153" type="curve" smooth="yes"/>
      <point x="416" y="1153"/>
      <point x="246" y="1106"/>
      <point x="57" y="944" type="curve"/>
      <point x="246" y="692" type="line"/>
      <point x="348" y="778"/>
      <point x="455" y="821"/>
      <point x="559" y="821" type="curve" smooth="yes"/>
      <point x="662" y="821"/>
      <point x="700" y="780"/>
      <point x="700" y="723" type="curve" smooth="yes"/>
      <point x="700" y="662"/>
      <point x="637" y="614"/>
      <point x="489" y="526" type="curve" smooth="yes"/>
      <point x="94" y="291" type="line"/>
      <point x="94" y="0" type="line"/>
    </contour>
  </outline>
</glyph>
<glyph name="uni02E6_uni02E5_uni02E5" format="2">
  <advance width="1110"/>
  <outline>
    <contour>
      <point x="815" y="0" type="line"/>
      <point x="950" y="0" type="line"/>
      <point x="950" y="1409" type="line"/>
      <point x="451" y="1409" type="line"/>
      <point x="80" y="1042" type="line"/>
      <point x="176" y="944" type="line"/>
      <point x="508" y="1274" type="line"/>
      <point x="815" y="1274" type="line"/>
    </contour>
  </outline>
</glyph>
<glyph name="uni1FCE0306" format="2">
  <advance width="870"/>
  <anchor x="455" y="1133" name="_top"/>
  <anchor x="459" y="1898" name="top"/>
  <outline>
    <contour>
      <point x="444" y="1214" type="curve"/>
      <point x="678" y="1214"/>
      <point x="791" y="1331"/>
      <point x="807" y="1497" type="curve"/>
      <point x="629" y="1497" type="line"/>
      <point x="610" y="1440"/>
      <point x="571" y="1397"/>
      <point x="438" y="1397" type="curve"/>
      <point x="319" y="1397"/>
      <point x="274" y="1448"/>
      <point x="248" y="1497" type="curve"/>
      <point x="59" y="1497" type="line"/>
      <point x="80" y="1329"/>
      <point x="186" y="1214"/>
    </contour>
    <contour>
      <point x="156" y="1528" type="line"/>
      <point x="336" y="1524"/>
      <point x="449" y="1642"/>
      <point x="449" y="1741" type="curve"/>
      <point x="449" y="1831"/>
      <point x="391" y="1898"/>
      <point x="293" y="1898" type="curve"/>
      <point x="217" y="1898"/>
      <point x="170" y="1860"/>
      <point x="170" y="1800" type="curve"/>
      <point x="170" y="1743"/>
      <point x="197" y="1702"/>
      <point x="276" y="1698" type="curve"/>
      <point x="276" y="1649"/>
      <point x="219" y="1626"/>
      <point x="156" y="1620" type="curve"/>
    </contour>
    <contour>
      <point x="457" y="1548" type="line"/>
      <point x="635" y="1548" type="line"/>
      <point x="705" y="1624"/>
      <point x="805" y="1769"/>
      <point x="848" y="1858" type="curve"/>
      <point x="848" y="1878" type="line"/>
      <point x="537" y="1878" type="line"/>
      <point x="516" y="1774"/>
      <point x="477" y="1638"/>
      <point x="457" y="1573" type="curve"/>
    </contour>
  </outline>
</glyph>
<glyph name="zero.lf" format="2">
  <advance width="1262"/>
  <outline>
    <contour>
      <point x="1159" y="729" type="curve" smooth="yes"/>
      <point x="1159" y="1204"/>
      <point x="995" y="1483"/>
      <point x="631" y="1483" type="curve" smooth="yes"/>
      <point x="240" y="1483"/>
      <point x="102" y="1202"/>
      <point x="102" y="729" type="curve" smooth="yes"/>
      <point x="102" y="260"/>
      <point x="264" y="-20"/>
      <point x="631" y="-20" type="curve" smooth="yes"/>
      <point x="1022" y="-20"/>
      <point x="1159" y="260"/>
    </contour>
    <contour>
      <point x="496" y="729" type="curve" smooth="yes"/>
      <point x="496" y="1018"/>
      <point x="520" y="1167"/>
      <point x="631" y="1167" type="curve" smooth="yes"/>
      <point x="739" y="1167"/>
      <point x="766" y="1018"/>
      <point x="766" y="729" type="curve" smooth="yes"/>
      <point x="766" y="440"/>
      <point x="739" y="295"/>
      <point x="631" y="295" type="curve" smooth="yes"/>
      <point x="520" y="295"/>
      <point x="496" y="442"/>
    </contour>
  </outline>
</glyph>
